<svg xmlns="http://www.w3.org/2000/svg" width="22" height="23" fill="none">
  <g fill="#8791BD" filter="url(#a)">
    <path d="M10.014 8.855V.833c.001-.376.245-.675.635-.788.383-.112.816-.012 1.039.28a.86.86 0 0 1 .187.484c.011 2.2.006 4.399.005 6.598V8.86l1.073-.674c.83-.521 1.658-1.047 2.49-1.564.572-.355 1.302-.145 1.486.419.11.335-.029.671-.377.89-1.102.696-2.206 1.39-3.31 2.084-.557.35-1.112.702-1.67 1.053-.419.264-.822.266-1.24.003-1.66-1.044-3.32-2.088-4.98-3.134-.441-.279-.548-.763-.258-1.134.297-.381.875-.479 1.32-.204.8.492 1.588.997 2.382 1.496l1.218.761ZM10.95 13.376c2.005 0 4.01-.002 6.016 0 .467.001.847.284.919.668.074.403-.18.785-.616.909-.109.03-.229.045-.343.045C12.94 15 8.956 15 4.97 15c-.56 0-.975-.355-.971-.822.004-.46.415-.801.973-.802h5.977Z"/>
  </g>
  <defs>
    <filter id="a" width="21.898" height="23" x="0" y="0" color-interpolation-filters="sRGB" filterUnits="userSpaceOnUse">
      <feFlood flood-opacity="0" result="BackgroundImageFix"/>
      <feColorMatrix in="SourceAlpha" result="hardAlpha" values="0 0 0 0 0 0 0 0 0 0 0 0 0 0 0 0 0 0 127 0"/>
      <feOffset dy="4"/>
      <feGaussianBlur stdDeviation="2"/>
      <feComposite in2="hardAlpha" operator="out"/>
      <feColorMatrix values="0 0 0 0 0 0 0 0 0 0 0 0 0 0 0 0 0 0 0.25 0"/>
      <feBlend in2="BackgroundImageFix" result="effect1_dropShadow_3740_10397"/>
      <feBlend in="SourceGraphic" in2="effect1_dropShadow_3740_10397" result="shape"/>
    </filter>
  </defs>
</svg>