<svg width="14" height="15" viewBox="0 0 14 15" fill="none" xmlns="http://www.w3.org/2000/svg">
    <path
        d="M6.0144 8.85544C6.0144 8.28637 6.0144 7.75725 6.0144 7.22812C6.0144 5.09648 6.0135 2.96484 6.015 0.833462C6.0153 0.457044 6.25901 0.158416 6.64876 0.0446035C7.03161 -0.0673821 7.46463 0.0333788 7.68761 0.325742C7.79309 0.463831 7.87482 0.646558 7.87542 0.809446C7.88624 3.0087 7.88113 5.20795 7.87993 7.4072C7.87963 7.87811 7.87993 8.34902 7.87993 8.85909C8.26338 8.61841 8.60866 8.40201 8.95333 8.18535C9.78333 7.66354 10.6106 7.13833 11.4439 6.62069C12.0152 6.26567 12.7454 6.47555 12.9293 7.03965C13.0387 7.37483 12.9005 7.71131 12.5525 7.93084C11.4502 8.62625 10.3459 9.3193 9.24242 10.0137C8.68558 10.3642 8.12965 10.7161 7.57281 11.0667C7.15331 11.3306 6.74973 11.3327 6.33263 11.0703C4.67204 10.0262 3.01175 8.98152 1.35267 7.93554C0.910925 7.65701 0.803945 7.17331 1.09393 6.80185C1.39143 6.42073 1.9687 6.3231 2.41495 6.59798C3.21399 7.0903 4.00252 7.59514 4.79615 8.09399C5.18891 8.34015 5.58287 8.58552 6.0144 8.85544Z"
        fill="#8791BD" />
    <path
        d="M6.9498 13.3759C8.95537 13.3759 10.9606 13.3745 12.9662 13.3769C13.4326 13.3774 13.813 13.6596 13.8846 14.0441C13.9594 14.4472 13.7055 14.829 13.2691 14.9528C13.1603 14.9836 13.0404 14.9979 12.9256 14.9982C8.94065 15.0003 4.95565 15.0003 0.970958 14.9995C0.411118 14.9995 -0.00387921 14.6453 2.73514e-05 14.1775C0.00393391 13.7178 0.415024 13.3766 0.972761 13.3764C2.96481 13.3751 4.95746 13.3759 6.9498 13.3759Z"
        fill="#8791BD" />
</svg>