<svg xmlns="http://www.w3.org/2000/svg" width="14" height="15" fill="none"><path fill="#8791BD" d="M6.03 8.89V.984c0-.371.24-.666.624-.778.377-.11.803-.011 1.023.277a.849.849 0 0 1 .185.477c.01 2.168.005 4.336.004 6.504v1.431l1.057-.664c.817-.514 1.632-1.032 2.453-1.542.562-.35 1.28-.143 1.462.413.108.33-.028.662-.371.878-1.085.686-2.173 1.369-3.26 2.053-.547.346-1.095.693-1.643 1.038-.413.26-.81.263-1.221.004-1.635-1.03-3.27-2.059-4.904-3.09-.434-.275-.54-.752-.254-1.118.293-.375.861-.472 1.3-.2.787.485 1.564.982 2.345 1.474l1.2.75Zm.92 4.457c1.975 0 3.95-.002 5.924 0 .46.001.834.28.905.658.073.398-.177.774-.606.896a1.28 1.28 0 0 1-.338.045c-3.924.002-7.848.002-11.771.001-.552 0-.96-.35-.956-.81.004-.453.408-.79.957-.79h5.886Z"/></svg>