<svg width="24" height="21" viewBox="0 0 24 21" fill="none" xmlns="http://www.w3.org/2000/svg">
    <path
        d="M3.89835 0.16748H20.8971C21.694 0.170008 22.4573 0.488212 23.0199 1.05287C23.5826 1.61726 23.898 2.38181 23.8977 3.17869V12.6758C23.8975 13.4704 23.5808 14.2325 23.0179 14.7933C22.4548 15.3544 21.6917 15.6683 20.8971 15.6658H18.5193V19.0379C18.5193 20.4002 17.8061 20.6529 16.9341 19.604L13.6574 15.6658H3.89829C3.10367 15.6683 2.34063 15.3544 1.77752 14.7933C1.21465 14.2325 0.897947 13.4705 0.89769 12.6758V3.17869C0.897436 2.38181 1.21286 1.61721 1.77545 1.05287C2.33806 0.488238 3.10141 0.170004 3.89835 0.16748Z"
        fill="#8791BD" />
</svg>