<svg width="23" height="22" viewBox="0 0 23 22" fill="none" xmlns="http://www.w3.org/2000/svg">
    <g filter="url(#filter0_f_1202_3766)">
        <path
            d="M21.8972 12.5979V9.39231C21.8813 9.39593 21.8654 9.3997 21.8496 9.40207H21.0256C19.9 9.20675 19.0444 8.22529 19.0444 7.04375C19.0444 6.5457 19.1958 6.08308 19.4557 5.70093L20.0954 5.06127C20.0966 5.06001 20.0979 5.06001 20.099 5.05875H20.0979L17.8383 2.79919L17.8323 2.79305C17.8225 2.8077 17.8115 2.82109 17.8018 2.83574L17.2231 3.41429C16.2893 4.07224 14.9892 3.98435 14.1531 3.1481C13.8017 2.79653 13.583 2.36319 13.4951 1.90782V1.00126L13.4964 1H10.2908C10.2944 1.0159 10.2969 1.03181 10.2993 1.04757V1.87153C10.104 2.99699 9.12252 3.85276 7.94099 3.85276C7.44362 3.85276 6.98157 3.70139 6.59888 3.44132L5.95865 2.80166C5.95865 2.8004 5.95753 2.79915 5.95753 2.79803V2.79929H5.95683L3.69687 5.05885H3.69743L3.69073 5.06499C3.70538 5.07476 3.71947 5.08578 3.73343 5.09555L4.31269 5.6741C4.97132 6.60788 4.88217 7.90799 4.04664 8.74297C3.69507 9.0958 3.26119 9.31428 2.80707 9.40217L1.89997 9.40203H1.89746H1.89872H1.89816V12.5978H1.89872V12.6065C1.91392 12.604 1.93053 12.6004 1.94573 12.5978H2.76915C3.89461 12.7932 4.75092 13.7746 4.75092 14.9562C4.75092 15.4531 4.59899 15.9157 4.33894 16.299L3.69928 16.9386C3.69817 16.9386 3.69747 16.9398 3.69621 16.9398H3.69747L3.69691 16.941L5.95758 19.1993L5.96358 19.2067C5.97279 19.192 5.98381 19.1774 5.99358 19.1627L6.57213 18.5842C7.50659 17.9273 8.80602 18.0152 9.64211 18.8515C9.99299 19.2031 10.2127 19.6364 10.2993 20.0905V20.9975V21V20.9987H13.5037C13.5012 20.9828 13.4988 20.9669 13.4952 20.9512V20.1271C13.6905 19.0016 14.6718 18.1471 15.8535 18.1471C16.3515 18.1471 16.8142 18.2997 17.1962 18.5585L17.8358 19.1982C17.8371 19.1982 17.8371 19.1993 17.8384 19.2007V19.1996L20.0979 16.9413V16.9401L20.1039 16.9341C20.0893 16.9254 20.0759 16.9145 20.0612 16.9035L19.4825 16.3262C18.8244 15.391 18.9123 14.0923 19.7487 13.2561C20.1003 12.9045 20.5336 12.686 20.9889 12.5981H21.8947C21.896 12.5978 21.896 12.5978 21.8972 12.5978L21.8972 12.5979ZM11.8972 14.8623C9.76407 14.8623 8.03498 13.1326 8.03498 11.0001C8.03498 8.86636 9.7641 7.13638 11.8972 7.13638C14.0309 7.13638 15.7595 8.86608 15.7595 11.0001C15.7595 13.1325 14.0309 14.8623 11.8972 14.8623Z"
            fill="#8791BD" />
    </g>
    <path
        d="M21.8972 12.5979V9.39231C21.8813 9.39593 21.8654 9.3997 21.8496 9.40207H21.0256C19.9 9.20675 19.0444 8.22529 19.0444 7.04375C19.0444 6.5457 19.1958 6.08308 19.4557 5.70093L20.0954 5.06127C20.0966 5.06001 20.0979 5.06001 20.099 5.05875H20.0979L17.8383 2.79919L17.8323 2.79305C17.8225 2.8077 17.8115 2.82109 17.8018 2.83574L17.2231 3.41429C16.2893 4.07224 14.9892 3.98435 14.1531 3.1481C13.8017 2.79653 13.583 2.36319 13.4951 1.90782V1.00126L13.4964 1H10.2908C10.2944 1.0159 10.2969 1.03181 10.2993 1.04757V1.87153C10.104 2.99699 9.12252 3.85276 7.94099 3.85276C7.44362 3.85276 6.98157 3.70139 6.59888 3.44132L5.95865 2.80166C5.95865 2.8004 5.95753 2.79915 5.95753 2.79803V2.79929H5.95683L3.69687 5.05885H3.69743L3.69073 5.06499C3.70538 5.07476 3.71947 5.08578 3.73343 5.09555L4.31269 5.6741C4.97132 6.60788 4.88217 7.90799 4.04664 8.74297C3.69507 9.0958 3.26119 9.31428 2.80707 9.40217L1.89997 9.40203H1.89746H1.89872H1.89816V12.5978H1.89872V12.6065C1.91392 12.604 1.93053 12.6004 1.94573 12.5978H2.76915C3.89461 12.7932 4.75092 13.7746 4.75092 14.9562C4.75092 15.4531 4.59899 15.9157 4.33894 16.299L3.69928 16.9386C3.69817 16.9386 3.69747 16.9398 3.69621 16.9398H3.69747L3.69691 16.941L5.95758 19.1993L5.96358 19.2067C5.97279 19.192 5.98381 19.1774 5.99358 19.1627L6.57213 18.5842C7.50659 17.9273 8.80602 18.0152 9.64211 18.8515C9.99299 19.2031 10.2127 19.6364 10.2993 20.0905V20.9975V21V20.9987H13.5037C13.5012 20.9828 13.4988 20.9669 13.4952 20.9512V20.1271C13.6905 19.0016 14.6718 18.1471 15.8535 18.1471C16.3515 18.1471 16.8142 18.2997 17.1962 18.5585L17.8358 19.1982C17.8371 19.1982 17.8371 19.1993 17.8384 19.2007V19.1996L20.0979 16.9413V16.9401L20.1039 16.9341C20.0893 16.9254 20.0759 16.9145 20.0612 16.9035L19.4825 16.3262C18.8244 15.391 18.9123 14.0923 19.7487 13.2561C20.1003 12.9045 20.5336 12.686 20.9889 12.5981H21.8947C21.896 12.5978 21.896 12.5978 21.8972 12.5978L21.8972 12.5979ZM11.8972 14.8623C9.76407 14.8623 8.03498 13.1326 8.03498 11.0001C8.03498 8.86636 9.7641 7.13638 11.8972 7.13638C14.0309 7.13638 15.7595 8.86608 15.7595 11.0001C15.7595 13.1325 14.0309 14.8623 11.8972 14.8623Z"
        fill="#8791BD" />
    <defs>
        <filter id="filter0_f_1202_3766" x="0.897461" y="0" width="21.9998" height="22" filterUnits="userSpaceOnUse"
            color-interpolation-filters="sRGB">
            <feFlood flood-opacity="0" result="BackgroundImageFix" />
            <feBlend mode="normal" in="SourceGraphic" in2="BackgroundImageFix" result="shape" />
            <feGaussianBlur stdDeviation="0.5" result="effect1_foregroundBlur_1202_3766" />
        </filter>
    </defs>
</svg>