<svg xmlns="http://www.w3.org/2000/svg" width="21" height="20" fill="none"><path fill="#8791BD" d="M20.461 11.637v-3.16l-.047.01h-.81a2.36 2.36 0 0 1-1.547-3.65l.63-.63.004-.002h-.001l-2.225-2.228-.006-.006-.03.042-.57.57a2.356 2.356 0 0 1-3.67-1.484V.204H9.034a.633.633 0 0 1 .009.047v.812A2.358 2.358 0 0 1 5.398 2.61l-.63-.63-.001-.004v.001L2.54 4.205l-.006.006.042.03.57.57a2.361 2.361 0 0 1-1.482 3.675H.769.77v3.16l.047-.01h.81a2.36 2.36 0 0 1 1.546 3.65l-.63.63H2.54h.001v.002l2.226 2.226.006.007.03-.043.569-.57a2.357 2.357 0 0 1 3.67 1.485v.896-.001h3.155a.687.687 0 0 0-.008-.047v-.812a2.357 2.357 0 0 1 3.643-1.547l.63.631c.002 0 .002.001.003.002l2.225-2.227v-.001l.005-.006c-.014-.008-.027-.02-.041-.03l-.57-.57a2.363 2.363 0 0 1 1.483-3.674h.894Zm-9.846 2.232a3.805 3.805 0 0 1-3.803-3.807 3.806 3.806 0 0 1 3.803-3.81 3.806 3.806 0 0 1 3.803 3.81 3.805 3.805 0 0 1-3.803 3.807Z"/></svg>