<svg xmlns="http://www.w3.org/2000/svg" width="28" height="28" fill="none">
  <g filter="url(#a)">
    <path fill="#8791BD" d="M24 11.598V8.392c-.016.004-.032.008-.048.01h-.824a2.394 2.394 0 0 1-1.57-3.701l.64-.64.003-.002-2.26-2.26-.006-.006-.03.043-.58.578A2.395 2.395 0 0 1 15.599.908V0h-3.205a.575.575 0 0 1 .009.048v.824a2.394 2.394 0 0 1-3.7 1.57l-.64-.64-.002-.004v.001L5.8 4.06l-.007.006.043.03.58.58A2.393 2.393 0 0 1 4.91 8.401H4h.001v3.204l.047-.008h.824a2.395 2.395 0 0 1 1.57 3.701l-.64.64h-.003.001v.002l2.26 2.258.006.008.03-.044.579-.579a2.396 2.396 0 0 1 3.727 1.506V20v-.001h3.204l-.008-.048v-.824a2.393 2.393 0 0 1 3.7-1.569l.64.64c.002 0 .002.001.003.003V18.2l2.26-2.259.005-.007-.042-.03-.579-.578a2.395 2.395 0 0 1 1.506-3.728H24Zm-10 2.264a3.863 3.863 0 1 1 0-7.725 3.863 3.863 0 0 1 0 7.725Z"/>
  </g>
  <defs>
    <filter id="a" width="28" height="28" x="0" y="0" color-interpolation-filters="sRGB" filterUnits="userSpaceOnUse">
      <feFlood flood-opacity="0" result="BackgroundImageFix"/>
      <feColorMatrix in="SourceAlpha" result="hardAlpha" values="0 0 0 0 0 0 0 0 0 0 0 0 0 0 0 0 0 0 127 0"/>
      <feOffset dy="4"/>
      <feGaussianBlur stdDeviation="2"/>
      <feComposite in2="hardAlpha" operator="out"/>
      <feColorMatrix values="0 0 0 0 0 0 0 0 0 0 0 0 0 0 0 0 0 0 0.25 0"/>
      <feBlend in2="BackgroundImageFix" result="effect1_dropShadow_3740_10398"/>
      <feBlend in="SourceGraphic" in2="effect1_dropShadow_3740_10398" result="shape"/>
    </filter>
  </defs>
</svg>