<svg width="26" height="16" viewBox="0 0 26 16" fill="none" xmlns="http://www.w3.org/2000/svg">
<path d="M12.8686 16C10.1108 15.979 7.90869 15.1201 5.86741 13.8001C3.71427 12.4069 1.87921 10.6609 0.295815 8.64613C-0.0607107 8.19219 -0.102651 7.86745 0.21193 7.46938C2.4874 4.59208 5.14387 2.1792 8.60078 0.792932C11.834 -0.50255 14.9763 -0.160353 18.0138 1.45289C20.7506 2.9055 22.9702 4.96221 24.8821 7.36811C25.2352 7.81158 25.2596 8.1433 24.9416 8.54487C22.6416 11.4396 19.9607 13.863 16.4653 15.2353C15.7942 15.5007 15.0812 15.6753 14.3716 15.8219C13.7844 15.9476 13.1797 15.9651 12.8686 16ZM23.2987 8.00712C21.4147 5.78978 19.335 3.91815 16.7519 2.65759C13.9382 1.28179 11.1279 1.30623 8.32814 2.69599C5.87091 3.91465 3.86108 5.68503 2.09243 7.74872C2.02252 7.82903 1.9631 7.92332 1.90718 8.00363C3.44863 10.0988 6.4721 12.5081 8.79302 13.5208C11.0126 14.488 13.2706 14.6661 15.5635 13.835C18.7198 12.6897 21.1141 10.5248 23.2987 8.00712Z" fill="white"/>
<path d="M12.5999 12.9518C9.85603 12.9623 7.62949 10.7589 7.62599 8.02126C7.619 5.27316 9.82107 3.05932 12.5649 3.04884C15.3123 3.04186 17.5248 5.23476 17.5423 7.98286C17.5563 10.717 15.3472 12.9378 12.5999 12.9518ZM12.5789 4.67256C10.7473 4.67605 9.23386 6.19502 9.25134 8.01778C9.26532 9.85101 10.7858 11.349 12.6104 11.3316C14.4244 11.3141 15.91 9.81957 15.917 8.00729C15.9204 6.18104 14.407 4.66558 12.5789 4.67256Z" fill="white"/>
</svg>
