<svg width="201" height="46" viewBox="0 0 201 46" fill="none" xmlns="http://www.w3.org/2000/svg">
<path d="M10.4058 35.5144L0 0H9.51637L14.8527 23.2619H15.1195L21.3451 0H29.0827L35.2195 23.3507H35.4863L40.9115 0H50.4279L40.1111 35.5144H31.8398L25.4363 13.9394H25.1695L18.677 35.5144H10.4058Z" fill="url(#paint0_linear_5505_4158)"/>
<path d="M63.413 36.0472C60.656 36.0472 58.2546 35.5145 56.2091 34.3603C54.1635 33.2948 52.6515 31.6967 51.5843 29.6546C50.517 27.6125 49.9834 25.1265 49.9834 22.2854C49.9834 19.533 50.517 17.1358 51.5843 15.0937C52.6515 13.0516 54.2524 11.4535 56.2091 10.2992C58.1657 9.14502 60.567 8.6123 63.2352 8.6123C65.1029 8.6123 66.8816 8.87867 68.4825 9.50017C70.0834 10.1217 71.4175 10.9207 72.5737 12.1637C73.7299 13.318 74.6192 14.7385 75.2418 16.4255C75.8644 18.1124 76.2201 20.0657 76.2201 22.2854V24.4162H52.9184V19.4442H68.2157C68.2157 18.5563 67.9489 17.7573 67.5931 17.047C67.1484 16.3367 66.6148 15.804 65.9033 15.3601C65.1918 14.9161 64.3024 14.7386 63.413 14.7386C62.4347 14.7386 61.6343 14.9161 60.8338 15.3601C60.1223 15.804 59.4998 16.3367 59.0551 17.047C58.6104 17.7573 58.3436 18.5563 58.3436 19.533V24.5938C58.3436 25.6592 58.5214 26.6359 58.9661 27.435C59.4108 28.234 60.0334 28.8555 60.8338 29.2995C61.6343 29.7434 62.5236 30.0098 63.6798 30.0098C64.3913 30.0098 65.1028 29.921 65.7254 29.6546C66.348 29.477 66.8816 29.1219 67.3263 28.7668C67.771 28.3228 68.1267 27.8789 68.3046 27.2574L76.1312 27.5238C75.7754 29.2995 75.0639 30.8088 73.9967 32.0518C72.9294 33.3836 71.5064 34.3603 69.7276 35.0706C67.8599 35.6921 65.7254 36.0472 63.413 36.0472Z" fill="url(#paint1_linear_5505_4158)"/>
<path d="M82.4458 35.5144V0H97.2984C99.9666 0 102.19 0.355145 103.969 1.15422C105.748 1.9533 107.171 2.92994 108.06 4.35052C108.949 5.68231 109.394 7.28046 109.394 9.05618C109.394 10.388 109.127 11.631 108.505 12.6964C107.971 13.7618 107.171 14.6497 106.192 15.36C105.214 16.0703 104.058 16.5142 102.724 16.7806V17.1357C104.147 17.2245 105.481 17.5796 106.726 18.2899C107.971 19.0002 108.949 19.9769 109.661 21.2199C110.372 22.4629 110.817 23.9722 110.817 25.6592C110.817 27.6125 110.372 29.2994 109.394 30.8088C108.416 32.3181 106.993 33.4724 105.125 34.3602C103.257 35.2481 101.034 35.692 98.4546 35.692H82.4458V35.5144ZM91.0728 14.5609H95.8754C96.8538 14.5609 97.6542 14.3833 98.3657 14.117C99.0772 13.7618 99.6998 13.3179 100.056 12.7852C100.5 12.1637 100.678 11.4534 100.678 10.6543C100.678 9.50011 100.233 8.52346 99.433 7.81318C98.5436 7.10288 97.4763 6.74774 95.9644 6.74774H91.0728V14.5609ZM91.0728 28.5891H96.4091C98.2768 28.5891 99.6108 28.234 100.5 27.5237C101.39 26.8134 101.834 25.8368 101.834 24.5937C101.834 23.7059 101.656 22.9068 101.212 22.1965C100.767 21.575 100.144 21.0423 99.344 20.6872C98.5436 20.332 97.6542 20.1544 96.498 20.1544H90.9839V28.5891H91.0728Z" fill="url(#paint2_linear_5505_4158)"/>
<path d="M127.449 36.0472C124.692 36.0472 122.29 35.5145 120.245 34.3603C118.199 33.2948 116.687 31.6967 115.62 29.6546C114.553 27.6125 114.019 25.1265 114.019 22.2854C114.019 19.533 114.553 17.1358 115.62 15.0937C116.687 13.0516 118.288 11.4535 120.245 10.2992C122.201 9.14502 124.603 8.6123 127.271 8.6123C129.139 8.6123 130.917 8.87867 132.518 9.50017C134.119 10.1217 135.453 10.9207 136.609 12.1637C137.766 13.4068 138.655 14.7385 139.277 16.4255C139.9 18.1124 140.256 20.0657 140.256 22.2854V24.4162H117.043V19.4442H132.34C132.34 18.5563 132.073 17.7573 131.718 17.047C131.273 16.3367 130.739 15.804 130.028 15.3601C129.316 14.9161 128.516 14.7386 127.538 14.7386C126.559 14.7386 125.759 14.9161 124.958 15.3601C124.247 15.804 123.624 16.3367 123.18 17.047C122.735 17.7573 122.468 18.5563 122.468 19.533V24.5938C122.468 25.6592 122.646 26.6359 123.091 27.435C123.535 28.234 124.158 28.8555 124.958 29.2995C125.759 29.7434 126.648 30.0098 127.804 30.0098C128.516 30.0098 129.227 29.921 129.85 29.6546C130.473 29.477 131.006 29.1219 131.451 28.7668C131.896 28.3228 132.251 27.8789 132.429 27.2574L140.256 27.5238C139.9 29.2995 139.189 30.8088 138.121 32.0518C137.054 33.3836 135.631 34.3603 133.852 35.0706C131.807 35.6921 129.761 36.0472 127.449 36.0472Z" fill="url(#paint3_linear_5505_4158)"/>
<path d="M156.976 36.0472C154.219 36.0472 151.818 35.5145 149.772 34.3603C147.726 33.2948 146.215 31.6967 145.147 29.6546C144.08 27.6125 143.546 25.1265 143.546 22.2854C143.546 19.533 144.08 17.1358 145.147 15.0937C146.215 13.0516 147.815 11.4535 149.772 10.2992C151.729 9.14502 154.13 8.6123 156.798 8.6123C158.666 8.6123 160.445 8.87867 162.045 9.50017C163.646 10.1217 164.98 10.9207 166.137 12.1637C167.293 13.318 168.182 14.7385 168.805 16.4255C169.427 18.1124 169.783 20.0657 169.783 22.2854V24.4162H146.57V19.4442H161.868C161.868 18.5563 161.601 17.7573 161.245 17.047C160.8 16.3367 160.267 15.804 159.555 15.3601C158.844 14.9161 158.043 14.7386 157.065 14.7386C156.087 14.7386 155.286 14.9161 154.486 15.3601C153.774 15.804 153.152 16.3367 152.707 17.047C152.262 17.7573 151.995 18.5563 151.995 19.533V24.5938C151.995 25.6592 152.173 26.6359 152.618 27.435C153.063 28.234 153.685 28.8555 154.486 29.2995C155.286 29.7434 156.176 30.0098 157.332 30.0098C158.043 30.0098 158.755 29.921 159.377 29.6546C160 29.477 160.534 29.1219 160.978 28.7668C161.423 28.3228 161.779 27.8789 161.957 27.2574L169.783 27.5238C169.427 29.2995 168.716 30.8088 167.649 32.0518C166.581 33.3836 165.158 34.3603 163.38 35.0706C161.334 35.6921 159.288 36.0472 156.976 36.0472Z" fill="url(#paint4_linear_5505_4158)"/>
<path d="M173.963 45.5472V8.87858H182.412V13.4067H182.679C183.035 12.6076 183.479 11.8085 184.191 11.0982C184.813 10.3879 185.614 9.76644 186.681 9.23373C187.659 8.7898 188.904 8.52344 190.327 8.52344C192.195 8.52344 193.885 8.96737 195.575 9.94401C197.176 10.9207 198.51 12.43 199.488 14.4721C200.466 16.5142 201 19.089 201 22.1965C201 25.2152 200.555 27.7012 199.577 29.7433C198.599 31.7854 197.354 33.2947 195.753 34.3602C194.152 35.3368 192.373 35.8695 190.327 35.8695C188.993 35.8695 187.837 35.692 186.859 35.248C185.881 34.8041 185.08 34.2714 184.369 33.4723C183.746 32.762 183.212 31.9629 182.857 31.1639H182.679V45.4584H173.963V45.5472ZM182.323 22.1965C182.323 23.6171 182.501 24.8601 182.946 25.9255C183.301 26.9909 183.924 27.79 184.635 28.4115C185.347 29.033 186.236 29.2994 187.304 29.2994C188.371 29.2994 189.26 29.033 189.972 28.4115C190.683 27.79 191.217 26.9909 191.662 25.9255C192.017 24.8601 192.195 23.6171 192.195 22.1965C192.195 20.7759 192.017 19.5329 191.662 18.4675C191.306 17.402 190.772 16.603 189.972 15.9815C189.26 15.36 188.371 15.0936 187.304 15.0936C186.236 15.0936 185.347 15.36 184.635 15.9815C183.924 16.5142 183.39 17.402 182.946 18.3787C182.501 19.4441 182.323 20.6871 182.323 22.1965Z" fill="url(#paint5_linear_5505_4158)"/>
<defs>
<linearGradient id="paint0_linear_5505_4158" x1="0" y1="17.7572" x2="76.117" y2="17.7572" gradientUnits="userSpaceOnUse">
<stop stop-color="#0F0052"/>
<stop offset="1" stop-color="#356172"/>
</linearGradient>
<linearGradient id="paint1_linear_5505_4158" x1="0.000204225" y1="22.3298" x2="76.1172" y2="22.3298" gradientUnits="userSpaceOnUse">
<stop stop-color="#0F0052"/>
<stop offset="1" stop-color="#356172"/>
</linearGradient>
<linearGradient id="paint2_linear_5505_4158" x1="82.4458" y1="17.846" x2="200.892" y2="17.846" gradientUnits="userSpaceOnUse">
<stop stop-color="#00CCA7"/>
<stop offset="0.9944" stop-color="#209782"/>
</linearGradient>
<linearGradient id="paint3_linear_5505_4158" x1="82.4251" y1="22.3298" x2="200.872" y2="22.3298" gradientUnits="userSpaceOnUse">
<stop stop-color="#00CCA7"/>
<stop offset="0.9944" stop-color="#209782"/>
</linearGradient>
<linearGradient id="paint4_linear_5505_4158" x1="82.425" y1="22.3298" x2="200.872" y2="22.3298" gradientUnits="userSpaceOnUse">
<stop stop-color="#00CCA7"/>
<stop offset="0.9944" stop-color="#209782"/>
</linearGradient>
<linearGradient id="paint5_linear_5505_4158" x1="82.4247" y1="27.0353" x2="200.871" y2="27.0353" gradientUnits="userSpaceOnUse">
<stop stop-color="#00CCA7"/>
<stop offset="0.9944" stop-color="#209782"/>
</linearGradient>
</defs>
</svg>
