<svg width="22" height="23" viewBox="0 0 22 23" fill="none" xmlns="http://www.w3.org/2000/svg">
<path d="M7.87814 0.00693968C7.73303 0.0260265 7.59445 0.0731265 7.47223 0.144898C7.47223 0.144898 6.20751 0.848839 4.84781 1.61026C3.48811 2.3708 1.97545 3.20917 1.62953 3.37896C1.60819 3.38715 1.58718 3.396 1.56654 3.40549C0.31082 4.09086 0.0498778 5.21045 0.0048878 5.83833C0.00188847 5.86752 0.0048878 5.8914 0.0048878 5.92235C-0.00610975 6.15758 0.0048878 6.30881 0.0048878 6.30881V17.8611C0.0048878 19.5395 2.2174 20.347 4.31693 20.347C5.01677 20.347 5.71662 20.247 6.31649 20.0702C6.7164 19.8933 7.00333 19.5395 7.00333 19.1858V9.90015C7.00333 7.86614 7.50322 6.91105 9.00289 6.11514C9.4028 5.93827 13.5959 3.37808 13.5959 3.37808C13.7958 3.20121 14.0018 2.84216 14.0018 2.57686V2.49373C14.0018 2.13999 13.8018 1.86938 13.5019 1.69251C13.202 1.51564 12.802 1.51564 12.5021 1.69251C12.4021 1.78094 6.30349 5.41296 5.00378 6.03201C3.70407 6.73949 2.49133 6.91016 2.1914 6.55643C2.09842 6.47418 2.01744 6.22214 2.00444 5.97629V5.92058C2.00544 5.68004 2.07543 5.22725 2.6293 4.92569C3.19118 4.64888 4.58587 3.86093 5.94157 3.10216C6.51444 2.78114 6.58543 2.74665 7.03433 2.49373C7.09342 2.70977 7.24232 2.8982 7.45138 3.02152C7.66045 3.14484 7.91435 3.194 8.16253 3.15921C8.41072 3.12443 8.635 3.00825 8.79073 2.8338C8.94645 2.65935 9.0222 2.43943 9.00289 2.21781V0.891288C9.00401 0.765237 8.97465 0.640432 8.91678 0.525238C8.85891 0.410044 8.77387 0.307124 8.66736 0.223378C8.56085 0.139632 8.43532 0.076995 8.29921 0.0396661C8.16309 0.00233712 8.01953 -0.00882103 7.87814 0.00693968ZM15.8764 3.10216C15.7174 3.12555 15.5671 3.18259 15.4385 3.26842C15.4385 3.26842 10.4056 6.26371 9.53377 6.77751C9.5232 6.78674 9.51287 6.79618 9.50278 6.80581C8.77894 7.28601 8.35003 7.8573 8.15908 8.37995C8.05208 8.6748 7.99942 8.98295 8.00311 9.2926V9.5694C8.00167 9.5968 8.00167 9.62424 8.00311 9.65164V20.347C8.00311 22.0272 10.1906 23 12.1902 23C13.09 23 13.9018 22.8284 14.5017 22.4747C15.7014 21.8557 21.5001 17.8602 21.5001 17.8602C21.8 17.6833 22 17.4339 22 17.1686V5.67208C22 5.2299 21.806 4.9646 21.4061 4.78773C21.1062 4.61086 20.6133 4.69399 20.3134 4.87086C18.7137 5.93208 14.4077 8.92825 13.4079 9.45886C12.0082 10.1663 10.6895 10.3432 10.1896 9.90103C9.98967 9.72416 10.0027 9.5579 10.0027 9.2926C10.0087 9.14049 10.0277 9.00961 10.0657 8.90525C10.1216 8.75138 10.2356 8.56213 10.6585 8.27029C10.6785 8.25614 10.6685 8.25703 10.6895 8.24288C11.4124 7.81574 13.6229 6.48302 15.0645 5.61636C15.1462 5.81018 15.3021 5.97255 15.5051 6.07521C15.7081 6.17788 15.9454 6.21435 16.1757 6.17828C16.4059 6.14221 16.6146 6.03589 16.7654 5.87781C16.9163 5.71972 16.9996 5.51988 17.0011 5.31303V3.98651C17.0022 3.86046 16.9729 3.73565 16.915 3.62046C16.8571 3.50526 16.7721 3.40234 16.6656 3.3186C16.5591 3.23485 16.4335 3.17221 16.2974 3.13489C16.1613 3.09756 16.0177 3.0864 15.8764 3.10216ZM20.0004 9.5694V11.3381L15.0016 14.7641V12.9954L20.0004 9.5694Z" fill="#8791BD"/>
</svg>
