<svg width="26" height="26" viewBox="0 0 26 26" fill="none" xmlns="http://www.w3.org/2000/svg">
<path d="M13.0001 18.4167C12.6931 18.4167 12.4357 18.3127 12.2277 18.1047C12.0197 17.8967 11.916 17.6396 11.9168 17.3333C11.9168 17.0264 12.0208 16.7689 12.2288 16.5609C12.4368 16.3529 12.6939 16.2493 13.0001 16.25C13.307 16.25 13.5645 16.354 13.7725 16.562C13.9805 16.77 14.0841 17.0271 14.0834 17.3333C14.0834 17.6403 13.9794 17.8977 13.7714 18.1057C13.5634 18.3137 13.3063 18.4174 13.0001 18.4167ZM11.9168 14.0833V7.58333H14.0834V14.0833H11.9168ZM7.58342 24.9167C6.98758 24.9167 6.47733 24.7043 6.05267 24.2797C5.628 23.855 5.41603 23.3451 5.41675 22.75V3.25C5.41675 2.65416 5.62908 2.14391 6.05375 1.71925C6.47842 1.29458 6.98831 1.08261 7.58342 1.08333H18.4168C19.0126 1.08333 19.5228 1.29566 19.9475 1.72033C20.3722 2.145 20.5841 2.65489 20.5834 3.25V22.75C20.5834 23.3458 20.3711 23.8561 19.9464 24.2807C19.5218 24.7054 19.0119 24.9174 18.4168 24.9167H7.58342ZM7.58342 19.5H18.4168V6.5H7.58342V19.5Z" fill="#8791BD"/>
</svg>
