<svg width="91" height="85" viewBox="0 0 91 85" fill="none" xmlns="http://www.w3.org/2000/svg">
<path d="M90.9688 18.2501V21.2813C90.9688 21.6833 90.8091 22.0688 90.5248 22.353C90.2406 22.6372 89.8551 22.7969 89.4531 22.7969H84.9062V25.0704C84.9062 26.3259 83.8883 27.3438 82.6328 27.3438H8.36719C7.11168 27.3438 6.09375 26.3259 6.09375 25.0704V22.7969H1.54688C1.14491 22.7969 0.759401 22.6372 0.475166 22.353C0.190931 22.0688 0.03125 21.6833 0.03125 21.2813V18.2501C0.0312522 17.9502 0.120194 17.6571 0.286822 17.4078C0.453451 17.1585 0.690277 16.9643 0.967338 16.8496L44.9205 0.177739C45.2915 0.024087 45.7085 0.024087 46.0795 0.177739L90.0327 16.8496C90.3097 16.9643 90.5465 17.1585 90.7132 17.4078C90.8798 17.6571 90.9688 17.9502 90.9688 18.2501ZM86.4219 75.8438H4.57812C2.06692 75.8438 0.03125 77.8795 0.03125 80.3907V83.4219C0.03125 83.8239 0.190931 84.2094 0.475166 84.4936C0.759401 84.7779 1.14491 84.9376 1.54688 84.9376H89.4531C89.8551 84.9376 90.2406 84.7779 90.5248 84.4936C90.8091 84.2094 90.9688 83.8239 90.9688 83.4219V80.3907C90.9688 77.8795 88.9331 75.8438 86.4219 75.8438ZM15.1875 30.3751V66.7501H8.36719C7.11168 66.7501 6.09375 67.768 6.09375 69.0235V72.8126H84.9062V69.0235C84.9062 67.768 83.8883 66.7501 82.6328 66.7501H75.8125V30.3751H63.6875V66.7501H51.5625V30.3751H39.4375V66.7501H27.3125V30.3751H15.1875Z" fill="white"/>
</svg>
