<svg width="42" height="49" viewBox="0 0 42 49" fill="none" xmlns="http://www.w3.org/2000/svg">
<path fill-rule="evenodd" clip-rule="evenodd" d="M14.4399 1.64435C14.4399 1.20824 14.6128 0.789995 14.9205 0.481619C15.2282 0.173244 15.6455 0 16.0806 0L25.9243 0C26.3594 0 26.7767 0.173244 27.0844 0.481619C27.3921 0.789995 27.5649 1.20824 27.5649 1.64435C27.5649 2.08046 27.3921 2.49871 27.0844 2.80708C26.7767 3.11546 26.3594 3.2887 25.9243 3.2887H22.6431V6.97205C26.1438 7.24076 29.5204 8.38997 32.4605 10.3134C32.5258 10.2222 32.5982 10.1364 32.6771 10.0568L35.9583 6.76815C36.1488 6.57726 36.3749 6.42584 36.6238 6.32253C36.8726 6.21922 37.1393 6.16604 37.4087 6.16604C37.678 6.16604 37.9447 6.21922 38.1936 6.32253C38.4424 6.42584 38.6685 6.57726 38.859 6.76815C39.0494 6.95904 39.2005 7.18566 39.3036 7.43507C39.4067 7.68448 39.4597 7.95179 39.4597 8.22175C39.4597 8.49171 39.4067 8.75903 39.3036 9.00844C39.2005 9.25785 39.0494 9.48447 38.859 9.67536L35.6598 12.8818C39.0963 16.2399 41.2814 20.6765 41.8514 25.4529C42.4213 30.2293 41.3416 35.0572 38.7921 39.1329C36.2426 43.2085 32.3771 46.2858 27.8393 47.8525C23.3014 49.4191 18.3651 49.3806 13.8521 47.7432C9.33921 46.1059 5.52203 42.9686 3.0362 38.8536C0.550364 34.7387 -0.454112 29.8945 0.190018 25.1276C0.834148 20.3606 3.08802 15.9587 6.57634 12.6547C10.0647 9.35071 14.5769 7.34402 19.3618 6.96876V3.2887H16.0806C15.6455 3.2887 15.2282 3.11546 14.9205 2.80708C14.6128 2.49871 14.4399 2.08046 14.4399 1.64435ZM3.28372 27.954C3.28372 23.244 5.15051 18.7269 8.47341 15.3965C11.7963 12.066 16.3031 10.195 21.0024 10.195C25.7017 10.195 30.2086 12.066 33.5315 15.3965C36.8544 18.7269 38.7212 23.244 38.7212 27.954C38.7212 32.6639 36.8544 37.181 33.5315 40.5115C30.2086 43.8419 25.7017 45.713 21.0024 45.713C16.3031 45.713 11.7963 43.8419 8.47341 40.5115C5.15051 37.181 3.28372 32.6639 3.28372 27.954ZM21.0024 27.954V13.4837C18.6281 13.4834 16.2902 14.07 14.1961 15.1917C12.102 16.3133 10.3162 17.9352 8.99691 19.9139C7.67763 21.8925 6.86561 24.1667 6.63277 26.535C6.39994 28.9033 6.75348 31.2926 7.66208 33.4913C8.57068 35.6899 10.0063 37.63 11.8417 39.1397C13.6772 40.6494 15.8558 41.6821 18.1845 42.1463C20.5133 42.6105 22.9204 42.4919 25.1925 41.8009C27.4646 41.11 29.5316 39.868 31.2104 38.1851L21.0024 27.954Z" fill="#424967"/>
</svg>
