<svg width="20" height="20" viewBox="0 0 20 20" fill="none" xmlns="http://www.w3.org/2000/svg">
<path d="M8.46154 0.769231C8.46154 0.565218 8.3805 0.369561 8.23624 0.225302C8.09198 0.0810437 7.89632 0 7.69231 0H0.769231C0.565218 0 0.369561 0.0810437 0.225302 0.225302C0.0810437 0.369561 0 0.565218 0 0.769231V7.69231C0 7.89632 0.0810437 8.09198 0.225302 8.23624C0.369561 8.3805 0.565218 8.46154 0.769231 8.46154C0.973243 8.46154 1.1689 8.3805 1.31316 8.23624C1.45742 8.09198 1.53846 7.89632 1.53846 7.69231V2.62615L7.14846 8.23615C7.29354 8.37628 7.48785 8.45381 7.68954 8.45206C7.89123 8.4503 8.08416 8.3694 8.22678 8.22678C8.3694 8.08416 8.4503 7.89123 8.45206 7.68954C8.45381 7.48785 8.37628 7.29354 8.23615 7.14846L2.62615 1.53846H7.69231C7.89632 1.53846 8.09198 1.45742 8.23624 1.31316C8.3805 1.1689 8.46154 0.973243 8.46154 0.769231ZM16.5385 1.53846C17.0485 1.53846 17.5376 1.74107 17.8983 2.10172C18.2589 2.46236 18.4615 2.95151 18.4615 3.46154V10H12.9C12.1309 10 11.3932 10.3055 10.8494 10.8494C10.3055 11.3932 10 12.1309 10 12.9V18.4615H3.46154C2.95151 18.4615 2.46236 18.2589 2.10172 17.8983C1.74107 17.5376 1.53846 17.0485 1.53846 16.5385V12.3077C1.53846 12.1037 1.45742 11.908 1.31316 11.7638C1.1689 11.6195 0.973243 11.5385 0.769231 11.5385C0.565218 11.5385 0.369561 11.6195 0.225302 11.7638C0.0810437 11.908 0 12.1037 0 12.3077V16.5385C0 17.4565 0.364697 18.337 1.01386 18.9861C1.66303 19.6353 2.54348 20 3.46154 20H16.5385C17.4565 20 18.337 19.6353 18.9861 18.9861C19.6353 18.337 20 17.4565 20 16.5385V3.46154C20 2.54348 19.6353 1.66303 18.9861 1.01386C18.337 0.364697 17.4565 0 16.5385 0H12.3077C12.1037 0 11.908 0.0810437 11.7638 0.225302C11.6195 0.369561 11.5385 0.565218 11.5385 0.769231C11.5385 0.973243 11.6195 1.1689 11.7638 1.31316C11.908 1.45742 12.1037 1.53846 12.3077 1.53846H16.5385Z" fill="#424967"/>
</svg>
