<svg width="24" height="19" viewBox="0 0 24 19" fill="none" xmlns="http://www.w3.org/2000/svg">
<path d="M7.28571 9.5C8.53602 9.5 9.73512 8.99956 10.6192 8.10876C11.5033 7.21796 12 6.00978 12 4.75C12 3.49022 11.5033 2.28204 10.6192 1.39124C9.73512 0.500445 8.53602 0 7.28571 0C6.03541 0 4.83631 0.500445 3.95221 1.39124C3.06811 2.28204 2.57143 3.49022 2.57143 4.75C2.57143 6.00978 3.06811 7.21796 3.95221 8.10876C4.83631 8.99956 6.03541 9.5 7.28571 9.5ZM18 9.5C18.9093 9.5 19.7814 9.13604 20.4244 8.48819C21.0673 7.84033 21.4286 6.96166 21.4286 6.04545C21.4286 5.12925 21.0673 4.25058 20.4244 3.60272C19.7814 2.95487 18.9093 2.59091 18 2.59091C17.0907 2.59091 16.2186 2.95487 15.5756 3.60272C14.9327 4.25058 14.5714 5.12925 14.5714 6.04545C14.5714 6.96166 14.9327 7.84033 15.5756 8.48819C16.2186 9.13604 17.0907 9.5 18 9.5ZM2.57143 11.2273C1.88944 11.2273 1.23539 11.5002 0.753154 11.9861C0.270918 12.472 0 13.131 0 13.8182V13.9477C0 13.9477 0 19 7.28571 19C14.5714 19 14.5714 13.9477 14.5714 13.9477V13.8182C14.5714 13.131 14.3005 12.472 13.8183 11.9861C13.336 11.5002 12.682 11.2273 12 11.2273H2.57143ZM18 17.2727C16.752 17.2727 15.7646 17.1017 14.982 16.8297C15.3523 16.2251 15.5649 15.6422 15.6849 15.1715C15.7723 14.8333 15.8277 14.4874 15.8503 14.1386C15.852 14.104 15.8537 14.073 15.8537 14.0462L15.8546 14.0099V13.8182C15.8561 12.8621 15.5065 11.9392 14.8731 11.2273H21.9369C22.2078 11.2272 22.476 11.2808 22.7263 11.3852C22.9766 11.4896 23.2041 11.6426 23.3957 11.8356C23.5873 12.0285 23.7392 12.2576 23.8429 12.5098C23.9466 12.762 24 13.0322 24 13.3052C24 13.3052 24 17.2727 18 17.2727Z" fill="#424967"/>
</svg>
