<svg xmlns="http://www.w3.org/2000/svg" width="79" height="92" fill="none">
  <path fill="#fff" d="m58.448 65-3.582 6.522 17.538-2.776c-3.54-1.72-8.33-2.948-13.956-3.746Zm-45.179 1.422C5.146 68.497 0 71.896 0 76.945a7.36 7.36 0 0 0 .72 3.147l28.147-4.455-15.598-9.215ZM78.34 74l-39.175 6.183 10.332 11.381C66.462 90.093 79 84.845 79 76.944a6.884 6.884 0 0 0-.66-2.943V74Zm-45.794 7.25-26.47 4.189C13.073 89.637 25.422 92 39.5 92c.853 0 1.687-.023 2.527-.04l-9.48-10.71ZM38.002 0C23.17 0 11 12.209 11 27.1a26.977 26.977 0 0 0 4.86 15.443L33.364 72.99l.075.098c.69.908 1.364 1.624 2.156 2.15.792.528 1.774.843 2.739.746 1.927-.195 3.108-1.565 4.228-3.092l.06-.079L61.943 39.72l.01-.02c.454-.825.788-1.664 1.072-2.48A26.925 26.925 0 0 0 65 27.1C65 12.21 52.834 0 38.002 0Zm0 15.608c6.434 0 11.456 5.044 11.456 11.491 0 6.45-5.022 11.492-11.456 11.492-6.435 0-11.46-5.044-11.46-11.492 0-6.446 5.026-11.491 11.46-11.491Z"/>
</svg>