<svg width="20" height="20" viewBox="0 0 20 20" fill="none" xmlns="http://www.w3.org/2000/svg">
<path d="M18.919 2.63503L12.966 18.715C12.59 19.731 11.507 20.253 10.548 19.88C10.3105 19.786 10.095 19.6437 9.91518 19.4624C9.73534 19.281 9.59499 19.0643 9.50295 18.826L7.61595 14.056C7.26134 13.1404 6.55837 12.4025 5.66095 12.004L1.11895 10.023C0.173955 9.61003 -0.256045 8.46503 0.156955 7.46503C0.254642 7.22357 0.399244 7.00388 0.582393 6.81867C0.765542 6.63346 0.983602 6.48641 1.22395 6.38603L16.54 0.136029C17.507 -0.258971 18.58 0.237029 18.935 1.24503C19.092 1.69103 19.085 2.18503 18.919 2.63503Z" fill="#8791BD"/>
</svg>
