<svg width="54" height="76" viewBox="0 0 54 76" fill="none" xmlns="http://www.w3.org/2000/svg">
<path d="M27.0018 0C12.1697 0 0 12.2087 0 27.1002C0 32.825 1.80807 38.1579 4.86095 42.5431L22.3629 72.9892L22.4375 73.0872C23.1282 73.9946 23.8024 74.7106 24.5941 75.2372C25.3858 75.7646 26.3685 76.0796 27.333 75.9825C29.2603 75.7884 30.4405 74.4185 31.5607 72.8912L31.6207 72.8125L50.9426 39.7191L50.9535 39.6981C51.4066 38.874 51.7415 38.0352 52.0254 37.2184C53.3288 34.0063 53.9994 30.5698 54 27.1002C54 12.2087 41.834 0 27.0018 0ZM27.0018 15.6076C33.4361 15.6076 38.4581 20.6521 38.4581 27.0993C38.4581 33.5484 33.4361 38.591 27.0018 38.591C20.5667 38.591 15.5419 33.5475 15.5419 27.0993C15.5419 20.653 20.5676 15.6076 27.0018 15.6076V15.6076Z" fill="white"/>
</svg>
