<svg width="79" height="27" viewBox="0 0 79 27" fill="none" xmlns="http://www.w3.org/2000/svg">
<path d="M58.4479 0L54.866 6.5223L72.404 3.7458C68.8648 2.0268 64.0736 0.7983 58.4479 0ZM13.2692 1.422C5.14615 3.4965 0 6.8958 0 11.9448C0.00334475 13.0318 0.24871 14.1053 0.719365 15.0921L28.8666 10.6371L13.2692 1.422ZM78.3401 9L39.1654 15.183L49.4968 26.5644C66.4622 25.0929 79 19.845 79 11.9448C79 10.8918 78.7658 9.9135 78.3401 9.0009V9ZM32.5461 16.2495L6.07649 20.439C13.0731 24.6366 25.4222 27 39.5 27C40.3532 27 41.1869 26.9766 42.0271 26.9595L32.5461 16.2495Z" fill="white"/>
</svg>
