<svg width="28" height="33" viewBox="0 0 28 33" fill="none" xmlns="http://www.w3.org/2000/svg">
<path fill-rule="evenodd" clip-rule="evenodd" d="M9.62663 1.10742C9.62663 0.813714 9.74187 0.532037 9.94698 0.324356C10.1521 0.116674 10.4303 0 10.7204 0L17.2829 0C17.5729 0 17.8511 0.116674 18.0563 0.324356C18.2614 0.532037 18.3766 0.813714 18.3766 1.10742C18.3766 1.40113 18.2614 1.6828 18.0563 1.89048C17.8511 2.09817 17.5729 2.21484 17.2829 2.21484H15.0954V4.69546C17.4292 4.87643 19.6803 5.65039 21.6404 6.94574C21.6838 6.88434 21.7321 6.82657 21.7847 6.77298L23.9722 4.55814C24.0992 4.42958 24.2499 4.3276 24.4158 4.25803C24.5817 4.18845 24.7595 4.15264 24.9391 4.15264C25.1187 4.15264 25.2965 4.18845 25.4624 4.25803C25.6283 4.3276 25.779 4.42958 25.906 4.55814C26.033 4.6867 26.1337 4.83932 26.2024 5.00729C26.2711 5.17526 26.3065 5.35529 26.3065 5.5371C26.3065 5.71891 26.2711 5.89894 26.2024 6.06691C26.1337 6.23488 26.033 6.3875 25.906 6.51606L23.7732 8.67553C26.0642 10.9371 27.521 13.925 27.9009 17.1418C28.2809 20.3585 27.5611 23.61 25.8614 26.3548C24.1618 29.0996 21.5848 31.1721 18.5595 32.2272C15.5343 33.2823 12.2434 33.2563 9.23476 32.1536C6.22614 31.0509 3.68135 28.938 2.02413 26.1667C0.36691 23.3954 -0.302742 20.133 0.126679 16.9226C0.556099 13.7123 2.05868 10.7477 4.38422 8.52256C6.70977 6.29742 9.71795 4.94597 12.9079 4.69325V2.21484H10.7204C10.4303 2.21484 10.1521 2.09817 9.94698 1.89048C9.74187 1.6828 9.62663 1.40113 9.62663 1.10742ZM2.18914 18.8261C2.18914 15.6541 3.43367 12.612 5.64894 10.369C7.86421 8.12609 10.8688 6.866 14.0016 6.866C17.1345 6.866 20.139 8.12609 22.3543 10.369C24.5696 12.612 25.8141 15.6541 25.8141 18.8261C25.8141 21.9982 24.5696 25.0403 22.3543 27.2832C20.139 29.5262 17.1345 30.7863 14.0016 30.7863C10.8688 30.7863 7.86421 29.5262 5.64894 27.2832C3.43367 25.0403 2.18914 21.9982 2.18914 18.8261ZM14.0016 18.8261V9.08084C12.4187 9.08065 10.8602 9.47574 9.46408 10.2311C8.06799 10.9865 6.87746 12.0788 5.99794 13.4114C5.11842 14.7439 4.57707 16.2755 4.42185 17.8705C4.26663 19.4655 4.50232 21.0746 5.10805 22.5553C5.71378 24.0361 6.67086 25.3427 7.89448 26.3594C9.1181 27.3761 10.5705 28.0716 12.123 28.3842C13.6755 28.6969 15.2803 28.617 16.795 28.1516C18.3097 27.6863 19.6877 26.8499 20.8069 25.7165L14.0016 18.8261Z" fill="white"/>
</svg>
