<?xml version="1.0" encoding="UTF-8" standalone="no"?>
<svg
   version="1.1"
   id="Layer_1"
   x="0px"
   y="0px"
   width="15"
   height="15"
viewBox="0 0 15 15" 
   enable-background="new 0 0 122.879 122.879"
   xml:space="preserve"
   sodipodi:docname="x.svg"
   inkscape:version="1.2.1 (9c6d41e410, 2022-07-14)"
   xmlns:inkscape="http://www.inkscape.org/namespaces/inkscape"
   xmlns:sodipodi="http://sodipodi.sourceforge.net/DTD/sodipodi-0.dtd"
   xmlns="http://www.w3.org/2000/svg"
   xmlns:svg="http://www.w3.org/2000/svg"><defs
     id="defs18" /><sodipodi:namedview
     id="namedview16"
     pagecolor="#ffffff"
     bordercolor="#000000"
     borderopacity="0.25"
     inkscape:showpageshadow="2"
     inkscape:pageopacity="0.0"
     inkscape:pagecheckerboard="0"
     inkscape:deskcolor="#d1d1d1"
     showgrid="false"
     inkscape:zoom="32"
     inkscape:cx="6.609375"
     inkscape:cy="7.03125"
     inkscape:window-width="1920"
     inkscape:window-height="1027"
     inkscape:window-x="-8"
     inkscape:window-y="-8"
     inkscape:window-maximized="1"
     inkscape:current-layer="Layer_1" /><g
     id="g13"
     transform="scale(1.2208719)"><path
       fill-rule="evenodd"
       clip-rule="evenodd"
       fill="#ff4141"
       d="m 61.44,0 c 33.933,0 61.439,27.507 61.439,61.439 0,33.932 -27.506,61.439 -61.439,61.439 C 27.507,122.879 0,95.372 0,61.439 0,27.506 27.507,0 61.44,0 Z m 12.011,39.151 c 2.75,-2.793 7.221,-2.805 9.986,-0.027 2.764,2.776 2.775,7.292 0.027,10.083 L 71.4,61.445 83.476,73.694 c 2.729,2.77 2.689,7.257 -0.08,10.022 -2.773,2.765 -7.23,2.758 -9.955,-0.013 L 61.446,71.54 49.428,83.728 c -2.75,2.793 -7.22,2.805 -9.986,0.027 -2.763,-2.776 -2.776,-7.293 -0.027,-10.084 L 51.48,61.434 39.403,49.185 c -2.728,-2.769 -2.689,-7.256 0.082,-10.022 2.772,-2.765 7.229,-2.758 9.953,0.013 l 11.997,12.165 z"
       id="path11" /></g></svg>
