<svg width="29" height="29" viewBox="0 0 29 29" fill="none" xmlns="http://www.w3.org/2000/svg">
<path d="M17.4369 0.223633L14.3247 6.45225L10.4346 2.55898V8.00863L2.65418 6.45225L8.87848 12.6809L0.320068 17.3516H9.65652L4.98829 26.6945L14.3247 20.4659L22.8831 28.2517L20.549 17.3516H28.3294L22.1051 12.6801L28.3294 5.67329L18.993 8.00863L17.4369 0.223633Z" fill="#BB1A34"/>
<path d="M18.148 10.2507L19.5952 9.88837L23.6612 8.87121L21.0307 11.8319L20.0044 12.9879L21.2415 13.9151L23.5173 15.6235H18.9128L19.2808 17.3444L20.4876 22.9772L15.94 18.8403L15.1183 18.0923L14.194 18.7091L10.1171 21.4293L11.9891 17.6835L13.0176 15.6235H7.76123L10.6859 14.026L12.3548 13.1167L11.0111 11.7706L8.64275 9.4019L11.1488 9.90311L12.8496 10.2437V6.96259L13.9777 8.09147L15.3735 9.48725L16.2551 7.72138L17.2455 5.73828" fill="#FCAB40"/>
<path d="M17.0572 11.3189L17.654 11.1692L19.333 10.7494L18.2469 11.9722L17.8228 12.4493L18.3332 12.8318L19.2731 13.5371H17.3723L17.5241 14.2478L18.0228 16.573L16.1454 14.8654L15.8054 14.5566L15.4241 14.8111L13.7412 15.9345L14.5138 14.3874L14.9386 13.5371H12.7687L13.977 12.8776L14.6655 12.5021L14.1108 11.9466L13.1328 10.9682L14.1668 11.1754L14.8694 11.3158V9.96192L15.3354 10.4274L15.9112 11.0039L16.2753 10.2754L16.6838 9.45605" fill="#F5F8FA"/>
</svg>
