<svg width="29" height="26" viewBox="0 0 29 26" fill="none" xmlns="http://www.w3.org/2000/svg">
<path d="M11.3361 19.9318C11.105 19.5477 11.1151 19.0651 11.3633 18.6911L14.7828 13.5348L10.1184 9.54761C9.68584 9.1783 9.58469 8.55218 9.87723 8.06494L13.2259 2.50046C11.9274 1.49106 10.3044 0.878906 8.53045 0.878906C4.29015 0.878906 0.852783 4.30589 0.852783 8.53511C0.852783 9.13408 0.929031 9.71442 1.05974 10.2738C2.12565 16.8795 9.48977 23.8475 14.768 25.7608C14.7874 25.7538 14.8084 25.7437 14.8279 25.736L11.3361 19.9318Z" fill="#DD2E44"/>
<path d="M21.0063 0.880859C18.855 0.880859 16.9231 1.77388 15.5312 3.19526L12.3864 8.42224L17.085 12.4381C17.5316 12.8198 17.6226 13.4739 17.2982 13.9634L13.7161 19.365L16.9535 24.7456C21.8847 22.0076 27.5511 16.0071 28.4754 10.2766C28.6077 9.71715 28.684 9.13681 28.684 8.53784C28.6832 4.30784 25.2458 0.880859 21.0063 0.880859Z" fill="#DD2E44"/>
</svg>
