<svg width="29" height="29" viewBox="0 0 29 29" fill="none" xmlns="http://www.w3.org/2000/svg">
<path d="M28.4696 14.6208C28.4696 22.3336 22.1994 28.5863 14.4649 28.5863C6.73047 28.5863 0.460266 22.3336 0.460266 14.6208C0.460266 6.90795 6.73047 0.655273 14.4649 0.655273C22.1994 0.655273 28.4696 6.90795 28.4696 14.6208Z" fill="#FFCC4D"/>
<path d="M17.5771 21.6039C17.5771 23.7476 16.1836 23.9315 14.4649 23.9315C12.7455 23.9315 11.3528 23.7476 11.3528 21.6039C11.3528 19.4618 12.7455 16.9487 14.4649 16.9487C16.1836 16.9487 17.5771 19.4618 17.5771 21.6039ZM23.8014 12.2936C23.7049 12.2936 23.6069 12.2757 23.5127 12.2377C19.4444 10.6154 17.777 8.17141 17.7078 8.06822C17.4689 7.71132 17.5654 7.22951 17.9233 6.9921C18.2804 6.75468 18.7613 6.84934 19.0009 7.20468C19.0157 7.22563 20.5025 9.36546 24.09 10.7961C24.4892 10.956 24.6837 11.4068 24.5242 11.8048C24.402 12.1089 24.1095 12.2936 23.8014 12.2936ZM5.1285 12.2936C4.81962 12.2936 4.52785 12.1089 4.4057 11.8055C4.24621 11.4075 4.43994 10.956 4.83907 10.7969C8.42738 9.36624 9.91421 7.22641 9.92899 7.20546C10.1686 6.85167 10.6518 6.75779 11.0081 6.99598C11.3637 7.23494 11.4602 7.71365 11.2221 8.06899C11.1528 8.17218 9.48551 10.6161 5.41793 12.2385C5.32301 12.2757 5.22498 12.2936 5.1285 12.2936Z" fill="#664500"/>
<path d="M19.1332 13.0693H22.2453V27.8107L19.1332 27.775V13.0693ZM6.68457 27.8107L9.79672 27.775V13.0693H6.68457V27.8107Z" fill="#5DADEC"/>
<path d="M12.13 14.6208C12.0133 14.6208 11.8943 14.5944 11.783 14.5393C9.05057 13.1769 6.28231 14.5253 6.25508 14.5393C5.86995 14.7325 5.40313 14.575 5.21095 14.1925C5.01878 13.8092 5.17438 13.3429 5.55873 13.1513C5.70034 13.0814 9.05835 11.4467 12.4794 13.1513C12.8637 13.3429 13.0193 13.8092 12.8272 14.1925C12.6902 14.464 12.4156 14.6208 12.13 14.6208ZM23.0226 14.6208C22.9059 14.6208 22.7868 14.5944 22.6756 14.5393C19.9423 13.1769 17.1748 14.5253 17.1476 14.5393C16.7633 14.7317 16.2964 14.5758 16.1035 14.1925C15.9113 13.8092 16.0669 13.3429 16.4513 13.1513C16.5929 13.0814 19.9532 11.4475 23.3719 13.1513C23.7562 13.3429 23.9119 13.8092 23.7197 14.1925C23.5827 14.464 23.3081 14.6208 23.0226 14.6208Z" fill="#664500"/>
<path d="M14.4649 28.5859C22.1995 28.5859 28.4696 27.8911 28.4696 27.0341C28.4696 26.1772 22.1995 25.4824 14.4649 25.4824C6.73037 25.4824 0.460266 26.1772 0.460266 27.0341C0.460266 27.8911 6.73037 28.5859 14.4649 28.5859Z" fill="#5DADEC"/>
<path d="M14.4649 23.1552C15.754 23.1552 16.799 22.4605 16.799 21.6035C16.799 20.7465 15.754 20.0518 14.4649 20.0518C13.1758 20.0518 12.1308 20.7465 12.1308 21.6035C12.1308 22.4605 13.1758 23.1552 14.4649 23.1552Z" fill="#E75A70"/>
</svg>
