<svg width="29" height="29" viewBox="0 0 29 29" fill="none" xmlns="http://www.w3.org/2000/svg">
<path d="M28.2593 14.6208C28.2593 22.3336 21.9891 28.5863 14.2547 28.5863C6.5202 28.5863 0.25 22.3336 0.25 14.6208C0.25 6.90795 6.5202 0.655273 14.2547 0.655273C21.9891 0.655273 28.2593 6.90795 28.2593 14.6208Z" fill="#FFCC4D"/>
<path d="M14.2547 17.3359C6.99324 17.3359 6.09694 23.8175 6.08838 23.8827C6.07204 24.0153 6.12417 24.1465 6.22765 24.231C6.29767 24.2884 6.38559 24.3187 6.47429 24.3187C6.51552 24.3187 6.55676 24.3117 6.59722 24.2993C6.64312 24.2838 11.2405 22.767 14.2547 22.767C18.6078 22.767 21.8366 24.2667 21.8685 24.2815C21.9938 24.3412 22.1471 24.328 22.263 24.245C22.3774 24.162 22.4388 24.0231 22.4209 23.8819C22.4124 23.8175 21.5161 17.3359 14.2547 17.3359ZM22.8131 8.41352C18.4919 8.41352 16.7428 5.02533 16.6705 4.88102C16.4783 4.49774 16.6339 4.03145 17.0183 3.83981C17.4018 3.64895 17.8679 3.80257 18.0608 4.18352C18.1192 4.29679 19.4776 6.86179 22.8131 6.86179C23.2433 6.86179 23.5911 7.20938 23.5911 7.63766C23.5911 8.06593 23.2433 8.41352 22.8131 8.41352ZM5.69625 8.41352C5.26677 8.41352 4.91821 8.06593 4.91821 7.63766C4.91821 7.20938 5.26677 6.86179 5.69625 6.86179C9.65101 6.86179 10.3614 4.4411 10.3901 4.33791C10.503 3.92826 10.9286 3.67998 11.3386 3.78783C11.7509 3.89567 12.0007 4.30998 11.8972 4.72274C11.8591 4.87326 10.9122 8.41352 5.69625 8.41352Z" fill="#664500"/>
<path d="M14.2547 18.5C17.3668 18.5 18.9229 20.0517 18.9229 20.0517H9.58643C9.58643 20.0517 11.1425 18.5 14.2547 18.5Z" fill="#CCD6DD"/>
<path d="M4.919 15.3964C4.68248 15.3964 4.44907 15.2893 4.2958 15.086C4.03749 14.7439 4.10751 14.2574 4.4514 14.0006C4.56266 13.9176 6.74739 12.3069 9.78563 11.725C7.85998 10.7621 5.72272 10.7412 5.69548 10.7412C5.26601 10.7396 4.91823 10.392 4.919 9.96376C4.919 9.53626 5.26679 9.18945 5.69626 9.18945C5.86821 9.18945 9.93812 9.21894 12.4706 11.7444C12.6932 11.9663 12.7601 12.2999 12.6395 12.5901C12.5189 12.8795 12.2349 13.0688 11.9206 13.0688C8.33148 13.0688 5.41384 15.2195 5.38505 15.2412C5.245 15.3459 5.08084 15.3964 4.919 15.3964ZM23.5903 15.3956C23.4285 15.3956 23.2651 15.3459 23.1251 15.242C23.0955 15.2195 20.16 13.0688 16.5888 13.0688C16.2745 13.0688 15.9897 12.8795 15.8699 12.5901C15.7493 12.2999 15.8162 11.9663 16.0387 11.7444C18.572 9.21894 22.6411 9.18945 22.8131 9.18945C23.2426 9.18945 23.5896 9.53626 23.5903 9.96376C23.5911 10.392 23.2433 10.7396 22.8146 10.7412C22.7866 10.7412 20.6494 10.7621 18.7237 11.725C21.762 12.3069 23.9467 13.9176 24.0572 14.0006C24.4003 14.2574 24.4703 14.7423 24.2136 15.0852C24.0611 15.2877 23.8276 15.3956 23.5903 15.3956Z" fill="#664500"/>
</svg>
