<svg width="29" height="29" viewBox="0 0 29 29" fill="none" xmlns="http://www.w3.org/2000/svg">
<path d="M28.0958 14.6032C28.0958 22.3161 21.8256 28.5687 14.0911 28.5687C6.35663 28.5687 0.0864258 22.3161 0.0864258 14.6032C0.0864258 6.89037 6.35663 0.637695 14.0911 0.637695C21.8256 0.637695 28.0958 6.89037 28.0958 14.6032Z" fill="#FFCC4D"/>
<path d="M14.0911 17.589C11.7835 17.589 10.2515 17.3206 8.3578 16.9536C7.92443 16.8714 7.08337 16.9536 7.08337 18.2245C7.08337 20.7654 10.0111 23.9418 14.0911 23.9418C18.1712 23.9418 21.0989 20.7654 21.0989 18.2245C21.0989 16.9536 20.2571 16.8706 19.8245 16.9536C17.9307 17.3206 16.3996 17.589 14.0911 17.589Z" fill="#664500"/>
<path d="M13.0408 3.18284C12.3725 1.29672 10.299 0.306718 8.4068 0.971632C7.25842 1.37508 6.44537 2.29913 6.12871 3.37991C5.20206 2.73672 3.98833 2.52646 2.8415 2.92991C0.950869 3.5956 -0.0434627 5.66482 0.624871 7.55094C0.719792 7.81784 0.845834 8.06534 0.992105 8.29422C2.51006 11.0734 6.89585 13.027 9.55129 13.051C11.603 11.3697 13.7885 7.10405 13.2221 3.99129C13.1925 3.72129 13.1342 3.44974 13.0408 3.18284ZM15.1415 3.18284C15.8098 1.29672 17.8841 0.306718 19.7755 0.971632C20.9239 1.37508 21.7369 2.29913 22.0544 3.37991C22.981 2.73672 24.1947 2.52646 25.3416 2.92991C27.2322 3.5956 28.2257 5.66482 27.559 7.55094C27.4633 7.81784 27.338 8.06534 27.191 8.29422C25.673 11.0734 21.2872 13.027 18.631 13.051C16.5793 11.3697 14.3946 7.10405 14.961 3.99129C14.9898 3.72129 15.0481 3.44974 15.1415 3.18284Z" fill="#DD2E44"/>
</svg>
