<svg width="29" height="29" viewBox="0 0 29 29" fill="none" xmlns="http://www.w3.org/2000/svg">
<path d="M28.8387 14.6208C28.8387 22.3336 22.5685 28.5863 14.8341 28.5863C7.10039 28.5863 0.829407 22.3336 0.829407 14.6208C0.829407 6.90872 7.10039 0.655273 14.8341 0.655273C22.5685 0.655273 28.8387 6.90872 28.8387 14.6208Z" fill="#FFCC4D"/>
<path d="M10.1659 13.8451C11.2401 13.8451 12.111 12.6293 12.111 11.1296C12.111 9.62984 11.2401 8.41406 10.1659 8.41406C9.09161 8.41406 8.22076 9.62984 8.22076 11.1296C8.22076 12.6293 9.09161 13.8451 10.1659 13.8451Z" fill="#664500"/>
<path d="M19.5023 13.8451C20.5765 13.8451 21.4474 12.6293 21.4474 11.1296C21.4474 9.62984 20.5765 8.41406 19.5023 8.41406C18.428 8.41406 17.5572 9.62984 17.5572 11.1296C17.5572 12.6293 18.428 13.8451 19.5023 13.8451Z" fill="#664500"/>
<path d="M20.2803 16.9482C21.999 16.9482 23.3925 18.3378 23.3925 20.0517C23.3925 21.7656 21.999 23.1551 20.2803 23.1551H9.38779C7.6691 23.1551 6.27563 21.7656 6.27563 20.0517C6.27563 18.3378 7.6691 16.9482 9.38779 16.9482H20.2803Z" fill="white"/>
<path d="M20.2803 16.1729H9.3878C7.24276 16.1729 5.49762 17.9131 5.49762 20.0522C5.49762 22.1912 7.24276 23.9315 9.3878 23.9315H20.2803C22.4254 23.9315 24.1705 22.1912 24.1705 20.0522C24.1705 17.9131 22.4254 16.1729 20.2803 16.1729ZM20.2803 17.7246C21.4341 17.7246 22.3888 18.5656 22.5747 19.6642H19.8913V17.7246H20.2803ZM19.1133 17.7246V19.6642H16.7792V17.7246H19.1133ZM16.0011 17.7246V19.6642H13.667V17.7246H16.0011ZM12.889 17.7246V19.6642H10.5549V17.7246H12.889ZM9.3878 17.7246H9.77682V19.6642H7.09337C7.27932 18.5656 8.23397 17.7246 9.3878 17.7246ZM9.3878 22.3797C8.23397 22.3797 7.27932 21.5387 7.09337 20.4401H9.77682V22.3797H9.3878ZM10.5549 22.3797V20.4401H12.889V22.3797H10.5549ZM13.667 22.3797V20.4401H16.0011V22.3797H13.667ZM16.7792 22.3797V20.4401H19.1133V22.3797H16.7792ZM20.2803 22.3797H19.8913V20.4401H22.5747C22.3888 21.5387 21.4341 22.3797 20.2803 22.3797Z" fill="#664500"/>
</svg>
