<svg width="29" height="29" viewBox="0 0 29 29" fill="none" xmlns="http://www.w3.org/2000/svg">
<path d="M24.1924 4.72785C29.6612 10.1814 29.6612 19.0247 24.1924 24.4782C18.7235 29.9317 9.85625 29.9317 4.38665 24.4782C-1.08217 19.0247 -1.08217 10.1814 4.38665 4.72785C9.85547 -0.725688 18.7228 -0.725688 24.1924 4.72785Z" fill="#FFCB4C"/>
<path d="M15.2846 15.5961C12.5661 18.307 10.446 19.7889 7.78044 21.5811C7.17279 21.9916 6.28038 23.0778 7.78122 24.5752C10.7821 27.5677 17.9821 27.8703 22.7872 23.0786C27.5932 18.2861 27.2905 11.107 24.2881 8.11373C22.7872 6.61632 21.6972 7.50701 21.2864 8.11373C19.4907 10.7695 18.0038 12.8845 15.2846 15.5961Z" fill="#65471B"/>
<path d="M9.28204 23.0776C9.28204 23.0776 12.2837 21.5809 16.7854 17.091C21.2879 12.6019 22.788 9.60938 22.788 9.60938C22.788 9.60938 24.2881 14.0993 19.0363 19.3364C13.7845 24.5742 9.28204 23.0776 9.28204 23.0776Z" fill="white"/>
<path d="M6.71532 20.2153C6.54804 20.3821 6.30685 20.4713 6.05476 20.4349C5.62918 20.3743 5.33352 19.9817 5.39499 19.5574C5.41444 19.4208 5.81746 16.741 7.55326 14.1868C5.50936 14.8642 3.98285 16.3561 3.9634 16.3755C3.65919 16.6774 3.16669 16.6766 2.86326 16.3732C2.55982 16.0706 2.55982 15.5803 2.86326 15.2777C2.98463 15.1567 5.8836 12.3077 9.4649 12.3077C9.78001 12.3077 10.0632 12.4962 10.1838 12.7864C10.3044 13.0766 10.2375 13.4102 10.015 13.6321C7.47702 16.163 6.93939 19.7412 6.93395 19.7761C6.90983 19.9499 6.82969 20.1012 6.71532 20.2153ZM19.9171 7.0489C19.8027 7.16295 19.6517 7.24287 19.479 7.26769C19.4424 7.27313 15.8409 7.82244 13.3162 10.3401C13.0937 10.562 12.7591 10.6287 12.4681 10.5085C12.1771 10.3882 11.9881 10.1058 11.9881 9.79157C11.9881 6.21951 14.845 3.32942 14.9664 3.20838C15.2698 2.9058 15.7616 2.9058 16.065 3.20838C16.3692 3.5102 16.37 4.00209 16.0673 4.30468C16.0471 4.32485 14.5509 5.84632 13.8717 7.88451C16.433 6.15356 19.1196 5.75166 19.2565 5.73226C19.6813 5.67175 20.075 5.96502 20.1365 6.38942C20.1746 6.6408 20.0851 6.88209 19.9171 7.0489Z" fill="#65471B"/>
<path d="M23.7045 9.99065C25.8371 10.2498 27.7768 8.73531 28.0358 6.6079C28.2957 4.48126 26.7778 2.54703 24.6444 2.2879C22.5118 2.02953 16.5458 4.4316 16.4517 5.20203C16.3575 5.97169 21.5719 9.73074 23.7045 9.99065ZM9.74342 23.9127C10.0033 26.0394 8.48456 27.9736 6.35118 28.2319C4.21858 28.4911 2.27894 26.9774 2.01907 24.85C1.75921 22.7226 4.16879 16.7732 4.94138 16.6794C5.71319 16.5863 9.48278 21.7861 9.74342 23.9127Z" fill="#64AADD"/>
</svg>
