<svg width="29" height="29" viewBox="0 0 29 29" fill="none" xmlns="http://www.w3.org/2000/svg">
<path d="M14.6752 28.0346C22.4098 28.0346 28.6799 21.782 28.6799 14.069C28.6799 6.35609 22.4098 0.103516 14.6752 0.103516C6.94064 0.103516 0.670532 6.35609 0.670532 14.069C0.670532 21.782 6.94064 28.0346 14.6752 28.0346Z" fill="#FFCC4D"/>
<path d="M19.7325 14.845C22.0958 14.845 24.0117 12.9345 24.0117 10.5778C24.0117 8.22106 22.0958 6.31055 19.7325 6.31055C17.3691 6.31055 15.4532 8.22106 15.4532 10.5778C15.4532 12.9345 17.3691 14.845 19.7325 14.845Z" fill="#F4F7F9"/>
<path d="M9.61795 14.845C11.9813 14.845 13.8972 12.9345 13.8972 10.5778C13.8972 8.22106 11.9813 6.31055 9.61795 6.31055C7.25461 6.31055 5.33875 8.22106 5.33875 10.5778C5.33875 12.9345 7.25461 14.845 9.61795 14.845Z" fill="#F4F7F9"/>
<path d="M18.6502 18.2773C16.5005 17.7598 11.7467 18.2307 9.96575 21.6949C9.90195 21.8175 9.93463 21.9688 10.0436 22.0549C10.0965 22.0976 10.161 22.1186 10.2256 22.1186C10.2917 22.1186 10.3587 22.0961 10.4131 22.0511C12.8126 20.0493 16.1986 20.0493 18.2215 20.0493C19.4936 20.0493 20.1946 20.0493 20.1946 19.5C20.1946 18.9507 19.6461 18.5162 18.6502 18.2773ZM8.83993 10.1897C9.9144 10.1897 10.785 9.32148 10.785 8.25002C10.785 7.27864 10.0669 6.48105 9.13247 6.33984C8.51782 6.4089 7.94519 6.60984 7.43791 6.91088C7.10335 7.25924 6.89484 7.72941 6.89484 8.25002C6.89484 9.32148 7.76546 10.1897 8.83993 10.1897ZM18.9544 10.1897C20.0289 10.1897 20.8995 9.32148 20.8995 8.25002C20.8995 7.27864 20.1814 6.48105 19.247 6.33984C18.6331 6.4089 18.0597 6.60984 17.5532 6.91088C17.2178 7.25924 17.0093 7.72941 17.0093 8.25002C17.0093 9.32148 17.8799 10.1897 18.9544 10.1897Z" fill="#65471B"/>
</svg>
