<svg width="29" height="29" viewBox="0 0 29 29" fill="none" xmlns="http://www.w3.org/2000/svg">
<path d="M14.8575 28.5687C22.592 28.5687 28.8621 22.3162 28.8621 14.6032C28.8621 6.89027 22.592 0.637695 14.8575 0.637695C7.12289 0.637695 0.852783 6.89027 0.852783 14.6032C0.852783 22.3162 7.12289 28.5687 14.8575 28.5687Z" fill="#FFCC4D"/>
<path d="M9.03383 18.9642C9.06884 19.1031 9.94258 22.3617 14.8574 22.3617C19.7731 22.3617 20.6461 19.1031 20.6811 18.9642C20.7239 18.7959 20.6476 18.6213 20.4967 18.5344C20.3449 18.4483 20.1551 18.4739 20.0298 18.5941C20.0151 18.6089 18.5096 20.0341 14.8574 20.0341C11.2053 20.0341 9.69905 18.6089 9.68505 18.5949C9.61036 18.5212 9.51077 18.4824 9.41118 18.4824C9.34583 18.4824 9.27969 18.4987 9.21978 18.5321C9.06729 18.619 8.99104 18.7951 9.03383 18.9642Z" fill="#664500"/>
<path d="M10.1892 13.8275C11.2635 13.8275 12.1343 12.6117 12.1343 11.112C12.1343 9.61226 11.2635 8.39648 10.1892 8.39648C9.11499 8.39648 8.24414 9.61226 8.24414 11.112C8.24414 12.6117 9.11499 13.8275 10.1892 13.8275Z" fill="#664500"/>
<path d="M19.5257 13.8275C20.5999 13.8275 21.4708 12.6117 21.4708 11.112C21.4708 9.61226 20.5999 8.39648 19.5257 8.39648C18.4514 8.39648 17.5806 9.61226 17.5806 11.112C17.5806 12.6117 18.4514 13.8275 19.5257 13.8275Z" fill="#664500"/>
</svg>
