<svg width="29" height="27" viewBox="0 0 29 27" fill="none" xmlns="http://www.w3.org/2000/svg">
<path d="M1.43135 16.0687C0.9513 16.0687 0.689879 15.8701 0.5545 15.7033C0.421455 15.5396 0.283742 15.2494 0.379441 14.7994L2.50193 4.94129L1.16837 5.01655H1.15826C0.756012 5.01655 0.464247 4.88621 0.281408 4.66043C0.11024 4.4494 0.0487746 4.17862 0.109462 3.90009C0.226168 3.35543 0.79647 2.90233 1.40645 2.86897L4.52483 2.69285C4.58552 2.68897 4.64154 2.68664 4.69367 2.68664C4.80804 2.68664 5.1107 2.68664 5.30287 2.92405C5.49894 3.16612 5.4328 3.47414 5.41102 3.575L2.98043 14.8692C2.83493 15.5551 2.26541 16.0245 1.5286 16.0656L1.43135 16.0687ZM9.78982 14.517C8.67022 14.517 7.73969 14.0988 7.09858 13.3074C6.19373 12.1909 5.9572 10.4747 6.41547 8.34422C7.2184 4.61078 9.68945 1.99302 12.5635 1.83086C13.8006 1.76181 14.8245 2.18155 15.5146 3.03267C16.4195 4.14914 16.656 5.86535 16.1978 7.99586C15.3948 11.7278 12.9238 14.3455 10.0481 14.5084C9.96099 14.5147 9.87463 14.517 9.78982 14.517ZM12.446 3.85198L12.3395 3.85509C10.8301 3.94121 9.57353 5.64267 8.97833 8.40629C8.60642 10.1349 8.68189 11.4314 9.18995 12.0583C9.42103 12.3438 9.74781 12.4889 10.1617 12.4889L10.2706 12.4858C11.78 12.4012 13.0358 10.7005 13.6302 7.93612C14.0021 6.2075 13.9274 4.91026 13.4202 4.28336C13.1899 3.99707 12.8615 3.85198 12.446 3.85198ZM21.4643 13.2453C20.3447 13.2453 19.4126 12.8272 18.7707 12.035C17.8659 10.9185 17.6293 9.20233 18.0876 7.07181C18.8913 3.33759 21.3624 0.720606 24.2364 0.559226C25.4836 0.489399 26.4951 0.910692 27.1852 1.76104C28.0901 2.8775 28.3266 4.59371 27.8683 6.72345C27.0662 10.4546 24.5959 13.0723 21.7203 13.2376C21.6331 13.2438 21.5483 13.2453 21.4643 13.2453ZM24.1182 2.57957L24.0124 2.58267C22.5022 2.66879 21.2457 4.37026 20.6512 7.1331C20.2793 8.8625 20.3548 10.1597 20.8629 10.7859C21.0939 11.0714 21.4223 11.2165 21.8362 11.2165L21.9451 11.2134C23.4537 11.1288 24.7103 9.42733 25.3047 6.66371C25.6774 4.93586 25.6027 3.63862 25.0946 3.01173C24.8628 2.72466 24.5344 2.57957 24.1182 2.57957ZM8.64533 26.9315C8.01511 26.9315 7.42225 26.5467 7.18806 25.9237C6.88618 25.1215 7.29387 24.2269 8.09836 23.9259C8.36056 23.8281 14.6331 21.5145 24.0762 20.7293C24.9328 20.6548 25.6844 21.2934 25.756 22.1468C25.8275 23.001 25.1903 23.7505 24.3345 23.8219C15.317 24.5714 9.25142 26.8097 9.19073 26.8322C9.01178 26.899 8.82661 26.9315 8.64533 26.9315ZM1.64375 22.2756C1.01821 22.2756 0.42768 21.897 0.190378 21.2802C-0.117726 20.4803 0.282186 19.5826 1.08434 19.2761C1.50604 19.114 11.6003 15.2991 26.4577 14.5193C27.3237 14.4658 28.0488 15.1315 28.094 15.9872C28.1399 16.843 27.4801 17.5739 26.6219 17.6189C12.2881 18.3715 2.29964 22.1352 2.20005 22.1732C2.01721 22.2422 1.82893 22.2756 1.64375 22.2756Z" fill="#BB1A34"/>
</svg>
