<svg width="29" height="29" viewBox="0 0 29 29" fill="none" xmlns="http://www.w3.org/2000/svg">
<path d="M28.049 14.6208C28.049 22.3336 21.7788 28.5863 14.0443 28.5863C6.31066 28.5863 0.0396729 22.3336 0.0396729 14.6208C0.0396729 6.90872 6.31066 0.655273 14.0443 0.655273C21.7788 0.655273 28.049 6.90872 28.049 14.6208Z" fill="#FFCC4D"/>
<path d="M4.7079 10.7417C4.27842 10.7417 3.92986 10.3942 3.92986 9.96587C3.92986 9.53837 4.27609 9.19156 4.70479 9.19001C4.82616 9.18846 7.4816 9.12329 9.53251 6.39691C9.79004 6.05553 10.2771 5.98415 10.6218 6.24174C10.9657 6.49855 11.0349 6.98501 10.7774 7.32794C8.23863 10.7029 4.85106 10.7417 4.7079 10.7417ZM23.3808 10.7417C23.2376 10.7417 19.8508 10.7029 17.3121 7.32794C17.0538 6.98501 17.1238 6.49855 17.4677 6.24174C17.8108 5.98338 18.2979 6.05398 18.5562 6.39691C20.611 9.12872 23.2719 9.18924 23.3847 9.19001C23.8126 9.19467 24.158 9.54381 24.1557 9.96975C24.1542 10.3973 23.8087 10.7417 23.3808 10.7417ZM4.70868 17.7245C4.47215 17.7245 4.23874 17.6174 4.08547 17.4141C3.82716 17.072 3.89718 16.5855 4.24108 16.3287C4.35234 16.2457 6.53706 14.635 9.5753 14.0531C7.64966 13.0903 5.51239 13.0693 5.48516 13.0693C5.05568 13.0678 4.7079 12.7202 4.70868 12.2919C4.70868 11.8644 5.05646 11.5176 5.48594 11.5176C5.65788 11.5176 9.72779 11.5471 12.2603 14.0725C12.4828 14.2944 12.5497 14.628 12.4291 14.9182C12.3085 15.2084 12.0246 15.3969 11.7102 15.3969C8.12115 15.3969 5.20351 17.5476 5.17472 17.5693C5.03467 17.6741 4.87051 17.7245 4.70868 17.7245ZM23.38 17.7237C23.2182 17.7237 23.0548 17.6741 22.9147 17.5701C22.8852 17.5476 19.9496 15.3969 16.3785 15.3969C16.0641 15.3969 15.7794 15.2084 15.6595 14.9182C15.539 14.628 15.6059 14.2944 15.8284 14.0725C18.3617 11.5471 22.4308 11.5176 22.6028 11.5176C23.0322 11.5176 23.3792 11.8644 23.38 12.2919C23.3808 12.7202 23.033 13.0678 22.6043 13.0693C22.5763 13.0693 20.439 13.0903 18.5134 14.0531C21.5516 14.635 23.7364 16.2449 23.8468 16.3287C24.1899 16.5855 24.26 17.0704 24.0032 17.4134C23.8507 17.6159 23.6173 17.7237 23.38 17.7237ZM14.0443 23.9314C13.8078 23.9314 13.5845 23.8243 13.4367 23.6404L10.9516 20.5432L9.22051 22.8452C9.08514 23.0252 8.87818 23.1377 8.65332 23.1532C8.42769 23.1695 8.20673 23.0873 8.04801 22.9282L7.26997 22.1523C6.96576 21.849 6.96576 21.3586 7.26997 21.0553C7.57419 20.7519 8.06591 20.7519 8.37012 21.0553L8.51406 21.1988L10.3098 18.8107C10.4545 18.6183 10.6793 18.5035 10.9197 18.5004C11.1493 18.4926 11.3889 18.6035 11.5391 18.7913L14.0443 21.9134L16.5488 18.7913C16.699 18.6043 16.9254 18.5004 17.1689 18.5004C17.4101 18.5042 17.635 18.6183 17.7789 18.8107L19.5754 21.198L19.7193 21.0545C20.0236 20.7511 20.5153 20.7511 20.8195 21.0545C21.1237 21.3579 21.1237 21.8482 20.8195 22.1516L20.0415 22.9274C19.882 23.0865 19.6688 23.171 19.4361 23.1524C19.2113 23.1361 19.0043 23.0244 18.869 22.8444L17.137 20.5424L14.6528 23.6397C14.5042 23.8243 14.2809 23.9314 14.0443 23.9314Z" fill="#664500"/>
</svg>
