<svg width="29" height="29" viewBox="0 0 29 29" fill="none" xmlns="http://www.w3.org/2000/svg">
<path d="M28.049 14.155C28.049 21.8678 21.7788 28.1205 14.0443 28.1205C6.31066 28.1205 0.0396729 21.8678 0.0396729 14.155C0.0396729 6.4429 6.31066 0.189453 14.0443 0.189453C21.7788 0.189453 28.049 6.4429 28.049 14.155Z" fill="#FFCC4D"/>
<path d="M14.0444 17.2583C11.2255 17.2583 9.35513 16.9309 7.04203 16.4825C6.51375 16.3808 5.48596 16.4825 5.48596 18.0342C5.48596 21.1377 9.06104 25.017 14.0444 25.017C19.0269 25.017 22.6028 21.1377 22.6028 18.0342C22.6028 16.4825 21.575 16.3801 21.0467 16.4825C18.7336 16.9309 16.8632 17.2583 14.0444 17.2583Z" fill="#664500"/>
<path d="M7.04199 18.0342C7.04199 18.0342 9.3761 18.81 14.0443 18.81C18.7126 18.81 21.0467 18.0342 21.0467 18.0342C21.0467 18.0342 19.4906 21.1376 14.0443 21.1376C8.59807 21.1376 7.04199 18.0342 7.04199 18.0342Z" fill="white"/>
<path d="M4.70862 15.7069C4.47209 15.7069 4.23868 15.5998 4.08541 15.3966C3.8271 15.0544 3.89712 14.5679 4.24102 14.3111C4.35227 14.2281 6.53701 12.6174 9.57524 12.0355C7.6496 11.0727 5.51233 11.0517 5.4851 11.0517C5.05562 11.0502 4.70784 10.7026 4.70862 10.2743C4.70862 9.84681 5.0564 9.5 5.48588 9.5C5.65782 9.5 9.72774 9.52948 12.2603 12.0549C12.4828 12.2768 12.5497 12.6104 12.4291 12.9006C12.3085 13.1908 12.0245 13.3793 11.7102 13.3793C8.12109 13.3793 5.20345 15.53 5.17466 15.5517C5.03461 15.6565 4.87045 15.7069 4.70862 15.7069ZM23.38 15.7061C23.2181 15.7061 23.0548 15.6565 22.9147 15.5525C22.8851 15.53 19.9496 13.3793 16.3784 13.3793C16.0641 13.3793 15.7793 13.1908 15.6595 12.9006C15.5389 12.6104 15.6058 12.2768 15.8283 12.0549C18.3616 9.52948 22.4308 9.5 22.6027 9.5C23.0322 9.5 23.3792 9.84681 23.38 10.2743C23.3808 10.7026 23.033 11.0502 22.6043 11.0517C22.5763 11.0517 20.439 11.0727 18.5133 12.0355C21.5516 12.6174 23.7363 14.2273 23.8468 14.3111C24.1899 14.5679 24.2599 15.0528 24.0032 15.3958C23.8507 15.5983 23.6173 15.7061 23.38 15.7061Z" fill="#664500"/>
</svg>
