<svg width="29" height="29" viewBox="0 0 29 29" fill="none" xmlns="http://www.w3.org/2000/svg">
<path d="M28.8387 14.155C28.8387 21.8678 22.5685 28.1205 14.8341 28.1205C7.10039 28.1205 0.829407 21.8678 0.829407 14.155C0.829407 6.4429 7.10039 0.189453 14.8341 0.189453C22.5685 0.189453 28.8387 6.4429 28.8387 14.155Z" fill="#FFCC4D"/>
<path d="M22.97 13.9975C22.9233 13.8927 21.8037 11.4395 19.5023 11.4395C17.2016 11.4395 16.0812 13.8927 16.0346 13.9975C15.963 14.1581 16.0097 14.3458 16.1474 14.456C16.2835 14.5662 16.4788 14.5701 16.622 14.4669C16.6313 14.4599 17.6039 13.767 19.5023 13.767C21.3898 13.767 22.3608 14.4506 22.3826 14.4661C22.451 14.5173 22.5335 14.5429 22.6144 14.5429C22.7 14.5429 22.7864 14.5142 22.8572 14.4583C22.9949 14.3482 23.0424 14.1589 22.97 13.9975ZM13.6335 13.9975C13.5869 13.8927 12.4673 11.4395 10.1658 11.4395C7.86517 11.4395 6.74479 13.8927 6.69811 13.9975C6.62653 14.1581 6.67321 14.3458 6.81015 14.456C6.94708 14.5662 7.14237 14.5701 7.28475 14.4669C7.29486 14.4599 8.26663 13.767 10.1658 13.767C12.0533 13.767 13.0243 14.4506 13.0461 14.4661C13.1146 14.5173 13.1971 14.5429 13.278 14.5429C13.3636 14.5429 13.4499 14.5142 13.5207 14.4583C13.6592 14.3482 13.7051 14.1589 13.6335 13.9975ZM14.8341 17.2584C12.0152 17.2584 10.1448 16.931 7.83171 16.4826C7.30342 16.3809 6.27563 16.4826 6.27563 18.0343C6.27563 21.1377 9.85072 25.017 14.8341 25.017C19.8166 25.017 23.3925 21.1377 23.3925 18.0343C23.3925 16.4826 22.3647 16.3801 21.8364 16.4826C19.5233 16.931 17.6529 17.2584 14.8341 17.2584Z" fill="#664500"/>
<path d="M7.83179 18.0342C7.83179 18.0342 10.1659 18.81 14.8341 18.81C19.5023 18.81 21.8364 18.0342 21.8364 18.0342C21.8364 18.0342 20.2804 21.1376 14.8341 21.1376C9.38786 21.1376 7.83179 18.0342 7.83179 18.0342Z" fill="white"/>
<path d="M28.0607 8.72346C28.0607 10.8664 26.3195 12.6028 24.1705 12.6028C22.0216 12.6028 20.2803 10.8664 20.2803 8.72346C20.2803 6.58053 23.3925 0.964844 24.1705 0.964844C24.9486 0.964844 28.0607 6.58053 28.0607 8.72346Z" fill="#5DADEC"/>
</svg>
