<svg width="29" height="29" viewBox="0 0 29 29" fill="none" xmlns="http://www.w3.org/2000/svg">
<path d="M28.2593 14.155C28.2593 21.8678 21.9891 28.1205 14.2547 28.1205C6.52098 28.1205 0.25 21.8678 0.25 14.155C0.25 6.4429 6.52098 0.189453 14.2547 0.189453C21.9891 0.189453 28.2593 6.4429 28.2593 14.155Z" fill="#FFCC4D"/>
<path d="M22.3906 13.9975C22.344 13.8927 21.2244 11.4395 18.9229 11.4395C16.6223 11.4395 15.5019 13.8927 15.4552 13.9975C15.3836 14.1581 15.4303 14.3458 15.568 14.456C15.7042 14.5662 15.8995 14.5701 16.0426 14.4669C16.052 14.4599 17.0245 13.767 18.9229 13.767C20.8104 13.767 21.7814 14.4506 21.8032 14.4661C21.8717 14.5173 21.9542 14.5429 22.0351 14.5429C22.1207 14.5429 22.207 14.5142 22.2778 14.4583C22.4155 14.3482 22.463 14.1589 22.3906 13.9975ZM13.0542 13.9975C13.0075 13.8927 11.8879 11.4395 9.58648 11.4395C7.28582 11.4395 6.16545 13.8927 6.11876 13.9975C6.04718 14.1581 6.09387 14.3458 6.2308 14.456C6.36774 14.5662 6.56302 14.5701 6.7054 14.4669C6.71552 14.4599 7.68729 13.767 9.58648 13.767C11.474 13.767 12.445 14.4506 12.4668 14.4661C12.5352 14.5173 12.6177 14.5429 12.6986 14.5429C12.7842 14.5429 12.8706 14.5142 12.9414 14.4583C13.0799 14.3482 13.1258 14.1589 13.0542 13.9975ZM14.2547 17.2584C11.4359 17.2584 9.56547 16.931 7.25236 16.4826C6.72408 16.3809 5.69629 16.4826 5.69629 18.0343C5.69629 21.1377 9.27137 25.017 14.2547 25.017C19.2373 25.017 22.8131 21.1377 22.8131 18.0343C22.8131 16.4826 21.7853 16.3801 21.257 16.4826C18.9439 16.931 17.0735 17.2584 14.2547 17.2584Z" fill="#664500"/>
<path d="M7.25232 18.0342C7.25232 18.0342 9.58643 18.81 14.2547 18.81C18.9229 18.81 21.257 18.0342 21.257 18.0342C21.257 18.0342 19.7009 21.1376 14.2547 21.1376C8.80839 21.1376 7.25232 18.0342 7.25232 18.0342Z" fill="white"/>
</svg>
