<svg width="29" height="29" viewBox="0 0 29 29" fill="none" xmlns="http://www.w3.org/2000/svg">
<path d="M14.6752 28.1205C22.4098 28.1205 28.6799 21.8679 28.6799 14.155C28.6799 6.44203 22.4098 0.189453 14.6752 0.189453C6.94064 0.189453 0.670532 6.44203 0.670532 14.155C0.670532 21.8679 6.94064 28.1205 14.6752 28.1205Z" fill="#FFCC4D"/>
<path d="M14.6752 16.4829C11.8564 16.4829 9.986 16.1555 7.6729 15.7071C7.14461 15.6054 6.11682 15.7071 6.11682 17.2588C6.11682 20.3623 9.6919 24.2416 14.6752 24.2416C19.6578 24.2416 23.2336 20.3623 23.2336 17.2588C23.2336 15.7071 22.2059 15.6047 21.6776 15.7071C19.3645 16.1555 17.4941 16.4829 14.6752 16.4829Z" fill="#664500"/>
<path d="M7.67285 17.2588C7.67285 17.2588 10.007 18.0347 14.6752 18.0347C19.3434 18.0347 21.6775 17.2588 21.6775 17.2588C21.6775 17.2588 20.1214 20.3622 14.6752 20.3622C9.22893 20.3622 7.67285 17.2588 7.67285 17.2588Z" fill="white"/>
<path d="M10.007 13.3793C11.0812 13.3793 11.9521 12.1635 11.9521 10.6638C11.9521 9.16402 11.0812 7.94824 10.007 7.94824C8.93274 7.94824 8.06189 9.16402 8.06189 10.6638C8.06189 12.1635 8.93274 13.3793 10.007 13.3793Z" fill="#664500"/>
<path d="M19.3434 13.3793C20.4177 13.3793 21.2885 12.1635 21.2885 10.6638C21.2885 9.16402 20.4177 7.94824 19.3434 7.94824C18.2692 7.94824 17.3983 9.16402 17.3983 10.6638C17.3983 12.1635 18.2692 13.3793 19.3434 13.3793Z" fill="#664500"/>
</svg>
