<svg width="14" height="14" viewBox="0 0 14 14" fill="none" xmlns="http://www.w3.org/2000/svg">
<path d="M14 7C14 10.8659 10.8659 14 7 14C3.13406 14 0 10.8659 0 7C0 3.13406 3.13406 0 7 0C10.8659 0 14 3.13406 14 7Z" fill="#FFCC4D"/>
<path d="M6.99995 8.16678C5.591 8.16678 4.65611 8.00267 3.49995 7.7779C3.23589 7.72695 2.72217 7.7779 2.72217 8.55567C2.72217 10.1112 4.50911 12.0557 6.99995 12.0557C9.49039 12.0557 11.2777 10.1112 11.2777 8.55567C11.2777 7.7779 10.764 7.72656 10.4999 7.7779C9.34378 8.00267 8.40889 8.16678 6.99995 8.16678Z" fill="#664500"/>
<path d="M3.5 8.55566C3.5 8.55566 4.66667 8.94455 7 8.94455C9.33333 8.94455 10.5 8.55566 10.5 8.55566C10.5 8.55566 9.72222 10.1112 7 10.1112C4.27778 10.1112 3.5 8.55566 3.5 8.55566Z" fill="white"/>
<path d="M6.09847 1.71606L4.33213 2.02756L3.42213 0.373612C3.3218 0.191223 3.11569 0.0936116 2.91191 0.129389C2.70697 0.165556 2.54752 0.328112 2.51563 0.533445L2.22591 2.39894L0.459579 2.71044C0.251523 2.747 0.0909121 2.91461 0.0625232 3.12422C0.0341343 3.33383 0.144579 3.53761 0.335912 3.62861L1.91869 4.37994L1.6278 6.25128C1.59552 6.45972 1.7013 6.66506 1.88952 6.76033C1.95913 6.79533 2.0338 6.81206 2.10808 6.81206C2.23525 6.81206 2.36086 6.76228 2.45458 6.66739L3.82036 5.28256L5.57736 6.11672C5.76791 6.20694 5.99502 6.16456 6.13969 6.01094C6.28436 5.85733 6.31313 5.62828 6.21163 5.44356L5.29852 3.78378L6.52936 2.53622C6.67791 2.38572 6.71175 2.15628 6.61375 1.96883C6.51497 1.78139 6.30536 1.67989 6.09847 1.71606ZM7.90136 1.71606L9.66769 2.02756L10.5777 0.373612C10.678 0.191223 10.8841 0.0936116 11.0879 0.129389C11.2925 0.165556 11.4519 0.328112 11.4838 0.533445L11.7735 2.39894L13.5399 2.71044C13.7483 2.747 13.9089 2.91422 13.9369 3.12383C13.9649 3.33344 13.8549 3.53722 13.6635 3.62822L12.0807 4.37956L12.3716 6.25089C12.4039 6.45933 12.2981 6.66467 12.1099 6.75994C12.0403 6.79494 11.9656 6.81167 11.8914 6.81167C11.7642 6.81167 11.6386 6.76189 11.5449 6.667L10.1791 5.28217L8.42208 6.11633C8.23152 6.20656 8.00441 6.16417 7.85975 6.01056C7.71508 5.85694 7.6863 5.62789 7.7878 5.44317L8.70091 3.78378L7.47008 2.53622C7.32152 2.38572 7.28769 2.15628 7.38569 1.96883C7.48486 1.78139 7.69447 1.67989 7.90136 1.71606Z" fill="#E95F28"/>
</svg>
