<svg width="29" height="29" viewBox="0 0 29 29" fill="none" xmlns="http://www.w3.org/2000/svg">
<path d="M28.8856 14.6032C28.8856 22.3161 22.6154 28.5687 14.8809 28.5687C7.14642 28.5687 0.876221 22.3161 0.876221 14.6032C0.876221 6.89037 7.14642 0.637695 14.8809 0.637695C22.6154 0.637695 28.8856 6.89037 28.8856 14.6032Z" fill="#FFCC4D"/>
<path d="M14.8809 16.9312C12.0621 16.9312 10.1917 16.6038 7.87858 16.1553C7.3503 16.0537 6.32251 16.1553 6.32251 17.7071C6.32251 20.8105 9.89758 24.6898 14.8809 24.6898C19.8634 24.6898 23.4393 20.8105 23.4393 17.7071C23.4393 16.1553 22.4115 16.0529 21.8832 16.1553C19.5701 16.6038 17.6997 16.9312 14.8809 16.9312Z" fill="#664500"/>
<path d="M7.87854 17.707C7.87854 17.707 10.2127 18.4829 14.8809 18.4829C19.5491 18.4829 21.8832 17.707 21.8832 17.707C21.8832 17.707 20.3271 20.8105 14.8809 20.8105C9.43461 20.8105 7.87854 17.707 7.87854 17.707Z" fill="white"/>
<path d="M13.0773 4.06196L9.54348 4.68342L7.72287 1.38368C7.52214 1.0198 7.10977 0.825059 6.70208 0.896438C6.29206 0.968593 5.97306 1.2929 5.90926 1.70256L5.32962 5.42437L1.79577 6.04584C1.37952 6.11877 1.05819 6.45316 1.00139 6.87135C0.944595 7.28954 1.16556 7.69609 1.54835 7.87765L4.71497 9.37661L4.133 13.1101C4.06842 13.5259 4.28005 13.9356 4.65662 14.1257C4.79589 14.1955 4.94527 14.2289 5.09388 14.2289C5.34829 14.2289 5.5996 14.1295 5.78711 13.9402L8.51958 11.1774L12.0348 12.8416C12.416 13.0216 12.8704 12.937 13.1598 12.6306C13.4492 12.3241 13.5068 11.8671 13.3037 11.4986L11.4769 8.18721L13.9394 5.69825C14.2366 5.39799 14.3043 4.94023 14.1082 4.56627C13.9106 4.1923 13.4912 3.9898 13.0773 4.06196ZM16.6843 4.06196L20.2182 4.68342L22.0388 1.38368C22.2395 1.0198 22.6519 0.825059 23.0596 0.896438C23.4688 0.968593 23.7878 1.2929 23.8516 1.70256L24.4313 5.42437L27.9651 6.04584C28.3821 6.11877 28.7035 6.45239 28.7595 6.87058C28.8155 7.28877 28.5953 7.69532 28.2125 7.87687L25.0459 9.37584L25.6279 13.1093C25.6925 13.5251 25.4808 13.9348 25.1043 14.1249C24.965 14.1947 24.8156 14.2281 24.667 14.2281C24.4126 14.2281 24.1613 14.1288 23.9738 13.9395L21.2413 11.1766L17.7261 12.8408C17.3449 13.0208 16.8905 12.9363 16.6011 12.6298C16.3116 12.3233 16.2541 11.8664 16.4571 11.4978L18.284 8.18721L15.8215 5.69825C15.5243 5.39799 15.4566 4.94023 15.6526 4.56627C15.851 4.1923 16.2704 3.9898 16.6843 4.06196Z" fill="#E95F28"/>
</svg>
