<svg width="24" height="24" viewBox="0 0 24 24" fill="none" xmlns="http://www.w3.org/2000/svg">
<rect width="24" height="24" rx="6" fill="url(#paint0_linear_1_2383)"/>
<path fill-rule="evenodd" clip-rule="evenodd" d="M5.43206 11.8733C8.93031 10.3492 11.263 9.3444 12.4302 8.85893C15.7627 7.47282 16.4552 7.23203 16.9065 7.22408C17.0058 7.22234 17.2278 7.24694 17.3715 7.3636C17.4929 7.46211 17.5263 7.59518 17.5423 7.68857C17.5583 7.78197 17.5782 7.99473 17.5624 8.16097C17.3818 10.0585 16.6004 14.6631 16.2028 16.7884C16.0346 17.6876 15.7034 17.9891 15.3828 18.0186C14.6859 18.0828 14.1567 17.5581 13.4818 17.1157C12.4256 16.4233 11.829 15.9924 10.8038 15.3168C9.61901 14.536 10.387 14.1069 11.0622 13.4056C11.239 13.2221 14.3093 10.4294 14.3688 10.176C14.3762 10.1443 14.3831 10.0262 14.3129 9.96385C14.2428 9.90148 14.1392 9.92281 14.0645 9.93977C13.9586 9.96381 12.2713 11.079 9.00281 13.2853C8.5239 13.6142 8.09011 13.7744 7.70146 13.766C7.27299 13.7568 6.44881 13.5238 5.83611 13.3246C5.0846 13.0803 4.48733 12.9512 4.53934 12.5363C4.56643 12.3202 4.864 12.0992 5.43206 11.8733Z" fill="white"/>
<defs>
<linearGradient id="paint0_linear_1_2383" x1="12" y1="0" x2="12" y2="23.822" gradientUnits="userSpaceOnUse">
<stop stop-color="#2AABEE"/>
<stop offset="1" stop-color="#229ED9"/>
</linearGradient>
</defs>
</svg>
