<svg width="24" height="24" viewBox="0 0 24 24" fill="none" xmlns="http://www.w3.org/2000/svg">
<rect width="24" height="24" rx="6" fill="url(#paint0_linear_1_2351)"/>
<path d="M4.72099 18.9815L5.74992 15.2451C5.11379 14.1484 4.78008 12.9064 4.78356 11.6367C4.78356 7.6582 8.03721 4.42346 12.0313 4.42346C13.971 4.42346 15.7924 5.1742 17.1586 6.53728C18.5282 7.90037 19.2825 9.7132 19.279 11.6402C19.279 15.6188 16.0253 18.8535 12.0278 18.8535H12.0243C10.8112 18.8535 9.61885 18.549 8.55863 17.9748L4.72099 18.9815ZM8.74286 16.6705L8.96186 16.8019C9.88651 17.3486 10.9467 17.6357 12.0278 17.6392H12.0313C15.351 17.6392 18.0554 14.9511 18.0554 11.6437C18.0554 10.0419 17.4297 8.53694 16.293 7.40219C15.1563 6.26743 13.6407 5.6447 12.0313 5.6447C8.71158 5.64124 6.00715 8.32936 6.00715 11.6367C6.00715 12.768 6.32348 13.8717 6.92833 14.8265L7.07085 15.0548L6.46252 17.2655L8.74286 16.6705Z" fill="white"/>
<path d="M4.97475 18.729L5.96893 15.1206C5.35365 14.0654 5.03037 12.8649 5.03037 11.6402C5.03385 7.80005 8.17279 4.67603 12.0313 4.67603C13.9049 4.67603 15.6604 5.40254 16.9813 6.7172C18.3022 8.03185 19.0287 9.78241 19.0287 11.6437C19.0287 15.4838 15.8863 18.6079 12.0313 18.6079H12.0278C10.8564 18.6079 9.70576 18.3138 8.68378 17.7603L4.97475 18.729Z" fill="url(#paint1_linear_1_2351)"/>
<path d="M4.72099 18.9815L5.74992 15.2451C5.11379 14.1484 4.78008 12.9064 4.78356 11.6367C4.78356 7.6582 8.03721 4.42346 12.0313 4.42346C13.971 4.42346 15.7924 5.1742 17.1586 6.53728C18.5282 7.90037 19.2825 9.7132 19.279 11.6402C19.279 15.6188 16.0253 18.8535 12.0278 18.8535H12.0243C10.8112 18.8535 9.61885 18.549 8.55863 17.9748L4.72099 18.9815ZM8.74286 16.6705L8.96186 16.8019C9.88651 17.3486 10.9467 17.6357 12.0278 17.6392H12.0313C15.351 17.6392 18.0554 14.9511 18.0554 11.6437C18.0554 10.0419 17.4297 8.53694 16.293 7.40219C15.1563 6.26743 13.6407 5.6447 12.0313 5.6447C8.71158 5.64124 6.00715 8.32936 6.00715 11.6367C6.00715 12.768 6.32348 13.8717 6.92833 14.8265L7.07085 15.0548L6.46252 17.2655L8.74286 16.6705Z" fill="url(#paint2_linear_1_2351)"/>
<path fill-rule="evenodd" clip-rule="evenodd" d="M10.2202 8.61994C10.0846 8.31895 9.94207 8.31203 9.81346 8.30857C9.70917 8.30511 9.58751 8.30511 9.46584 8.30511C9.34418 8.30511 9.14952 8.35009 8.98266 8.52999C8.81581 8.70989 8.35001 9.1458 8.35001 10.0349C8.35001 10.9206 9.00004 11.7786 9.09042 11.8996C9.1808 12.0207 10.3453 13.8993 12.1842 14.6224C13.7137 15.2243 14.0265 15.1032 14.3568 15.0721C14.687 15.041 15.4274 14.6362 15.5803 14.2141C15.7298 13.7921 15.7298 13.4323 15.6846 13.3561C15.6394 13.28 15.5178 13.2351 15.337 13.1451C15.1563 13.0552 14.2664 12.6192 14.0995 12.557C13.9327 12.4982 13.811 12.467 13.6928 12.6469C13.5711 12.8268 13.2235 13.2316 13.1193 13.3527C13.015 13.4738 12.9072 13.4876 12.7264 13.3977C12.5457 13.3077 11.9617 13.1174 11.27 12.5016C10.7312 12.0242 10.3662 11.4326 10.2619 11.2527C10.1576 11.0728 10.2514 10.9759 10.3418 10.886C10.4218 10.8064 10.5226 10.6749 10.613 10.5712C10.7033 10.4674 10.7346 10.3913 10.7937 10.2702C10.8528 10.1491 10.825 10.0453 10.7798 9.95535C10.7346 9.86886 10.3801 8.97628 10.2202 8.61994Z" fill="white"/>
<defs>
<linearGradient id="paint0_linear_1_2351" x1="11.9994" y1="23.9988" x2="11.9994" y2="-0.000839698" gradientUnits="userSpaceOnUse">
<stop stop-color="#20B038"/>
<stop offset="1" stop-color="#60D66A"/>
</linearGradient>
<linearGradient id="paint1_linear_1_2351" x1="12.0014" y1="18.7283" x2="12.0014" y2="4.67553" gradientUnits="userSpaceOnUse">
<stop stop-color="#20B038"/>
<stop offset="1" stop-color="#60D66A"/>
</linearGradient>
<linearGradient id="paint2_linear_1_2351" x1="12.0014" y1="18.9801" x2="12.0014" y2="4.42346" gradientUnits="userSpaceOnUse">
<stop stop-color="#F9F9F9"/>
<stop offset="1" stop-color="white"/>
</linearGradient>
</defs>
</svg>
