<svg width="15" height="14" viewBox="0 0 15 14" fill="none" xmlns="http://www.w3.org/2000/svg">
<path d="M11.4528 0.826076C11.4331 1.01115 11.3448 1.1745 11.2838 1.3455C11.0769 1.92021 10.8629 2.49285 10.6525 3.06653C10.3743 3.82416 10.0981 4.58118 9.81865 5.33814C9.53269 6.11233 9.24574 6.88683 8.95392 7.65961C8.82203 8.00798 8.65637 8.34206 8.43988 8.64556C8.31574 8.81912 8.16251 8.97259 8.01996 9.13244C7.82981 9.34417 7.63805 9.55423 7.44599 9.7633C7.42268 9.78908 7.39413 9.81543 7.36387 9.82605C7.30767 9.84377 7.26664 9.81335 7.23605 9.76446C7.09232 9.53553 6.89626 9.36754 6.63519 9.29593C6.4962 9.25737 6.34719 9.25233 6.20222 9.2395C6.08989 9.23048 6.05317 9.19653 6.07552 9.08867C6.16885 8.63864 6.25859 8.18757 6.36235 7.73968C6.39187 7.61329 6.45694 7.49305 6.51671 7.37664C6.78155 6.85518 7.08395 6.35657 7.41908 5.87583C7.87606 5.22115 8.32334 4.55979 8.77711 3.90179C9.16992 3.33239 9.56465 2.76564 9.95876 2.19692C10.2739 1.74201 10.5867 1.28673 10.9044 0.833162C10.9536 0.762358 11.0235 0.705623 11.0837 0.64219L11.202 0.604881C11.2937 0.613896 11.3656 0.659535 11.4236 0.730125L11.4535 0.824779L11.4528 0.826076Z" stroke="#424967" stroke-miterlimit="10"/>
<path d="M3.66399 13.2466C3.69104 13.212 3.71196 13.1718 3.74446 13.1442C3.93303 12.9894 4.11356 12.8262 4.25093 12.6224C4.43623 12.3472 4.54875 12.044 4.58225 11.7136C4.60439 11.4985 4.61543 11.2826 4.64115 11.0685C4.69983 10.5774 4.93463 10.1944 5.38701 9.98235C6.0338 9.67867 6.7003 9.89127 7.02117 10.5066C7.18511 10.8202 7.22051 11.156 7.10316 11.4954C7.015 11.7487 6.86013 11.9623 6.66553 12.1462C6.36966 12.4248 6.02437 12.6258 5.6558 12.7908C5.20752 12.9918 4.74214 13.1386 4.26582 13.2541C4.13386 13.2859 4.00091 13.3181 3.86957 13.3519C3.80554 13.3689 3.74566 13.3715 3.6901 13.3294L3.66399 13.2466V13.2466Z" stroke="#424967" stroke-miterlimit="10"/>
</svg>
