<svg xmlns="http://www.w3.org/2000/svg" width="32" height="32" preserveAspectRatio="xMidYMid" version="1.0" viewBox="0 0 24 24"><path d="M5.924.226a1.018 1.018 0 0 0-.422.27c-.316.312-.344.468-.344 1.879 0 1.356.033 1.558.303 1.85.238.266.559.386.957.363.358-.023.536-.101.752-.316.302-.298.302-.298.316-1.783.01-.934 0-1.41-.041-1.544C7.38.703 7.129.41 6.885.281 6.639.157 6.213.13 5.925.226zM11.605.226c-.316.1-.6.399-.697.724-.064.215-.073.463-.06 1.548.015 1.233.02 1.306.115 1.485.225.421.642.641 1.15.605.344-.028.527-.101.738-.316.302-.298.302-.298.316-1.783.01-.934 0-1.41-.041-1.544-.064-.242-.316-.536-.56-.664-.246-.124-.673-.151-.961-.055zM17.162.194c-.353.11-.678.412-.77.733-.036.115-.054.619-.054 1.457 0 1.466.018 1.571.334 1.883a1.197 1.197 0 0 0 1.878-.289c.097-.174.101-.252.115-1.48.018-1.525-.005-1.676-.334-2.002-.284-.288-.788-.417-1.169-.302z"/><path d="M1.796 2.283c-.252.087-.49.298-.614.536l-.106.206-.009 9.823c-.009 8.165 0 9.85.055 9.997.087.252.312.486.577.61l.23.11H15.87l-.004-.376c-.005-.72.178-1.113.834-1.791l.43-.445-.43-.449c-.592-.605-.734-.857-.816-1.452-.188-1.347.98-2.566 2.314-2.433.618.064.98.257 1.599.857l.417.403.366-.367c.614-.623 1.013-.833 1.695-.902l.298-.032-.004-6.776V3.025l-.124-.229a1.321 1.321 0 0 0-.275-.339c-.275-.21-.495-.243-1.627-.243H19.5v.77c0 1.123-.156 1.595-.692 2.09-.953.884-2.47.714-3.166-.349-.307-.472-.33-.563-.357-1.571l-.023-.917-.628-.013-.632-.014v.825c0 .691-.014.865-.092 1.117a2.093 2.093 0 0 1-3.518.839c-.504-.522-.605-.852-.605-1.984v-.793H8.517l-.028.857c-.018.715-.04.907-.119 1.132a2.102 2.102 0 0 1-1.503 1.379c-1.14.298-2.355-.486-2.579-1.668a8.605 8.605 0 0 1-.046-.971v-.729H3.111c-.848.005-1.183.019-1.315.07zM18.83 7.447c.252.073.632.453.706.705.146.5.004 1.054-.34 1.338-.361.298.046.284-7.348.284-7.418 0-7.015.014-7.363-.289-.357-.311-.495-.99-.293-1.429.1-.22.444-.54.655-.605.234-.078 13.731-.078 13.983-.004zm-3.798 4.957c.302.137.508.38.6.7.174.606-.078 1.197-.623 1.453-.206.096-.22.096-5.131.096-5.416 0-5.05.019-5.402-.279-.509-.426-.495-1.434.027-1.833.335-.252.115-.242 5.397-.242l4.903-.005zm-2.062 4.728c.1.05.243.183.32.289.115.165.138.238.138.476 0 .358-.11.596-.357.756l-.188.124-4.009.014c-2.208.004-4.082 0-4.164-.014-.184-.032-.463-.27-.541-.467a1.246 1.246 0 0 1-.064-.408c0-.45.247-.756.687-.848.087-.018 1.924-.027 4.078-.027 3.876.009 3.917.009 4.1.105z"/><path d="M17.758 17.586c-.27.087-.518.297-.637.54-.124.257-.128.674-.01.926.051.1.381.49.739.866l.646.682-.715.688c-.408.394-.756.765-.811.87-.179.353-.11.839.165 1.164.27.32.838.435 1.241.247.101-.046.49-.375.866-.733.376-.353.701-.646.72-.646.018 0 .334.32.71.715.38.403.76.756.866.81.252.134.664.134.92-.004.257-.133.5-.426.564-.673.133-.527.05-.697-.802-1.595l-.705-.742.733-.71c.398-.39.765-.783.806-.87.106-.216.106-.66 0-.871-.256-.504-.76-.728-1.283-.577-.265.078-.325.128-1.461 1.214l-.266.256-.188-.206c-.641-.696-1.21-1.25-1.333-1.306-.243-.1-.54-.119-.765-.045z"/></svg>