<?xml version="1.0" encoding="UTF-8" standalone="no"?>
<svg
   version="1.0"
   width="24pt"
   height="24pt"
   viewBox="0 0 24 24"
   preserveAspectRatio="xMidYMid"
   id="svg32"
   sodipodi:docname="log.svg"
   inkscape:version="1.2.1 (9c6d41e410, 2022-07-14)"
   xmlns:inkscape="http://www.inkscape.org/namespaces/inkscape"
   xmlns:sodipodi="http://sodipodi.sourceforge.net/DTD/sodipodi-0.dtd"
   xmlns="http://www.w3.org/2000/svg"
   xmlns:svg="http://www.w3.org/2000/svg">
  <defs
     id="defs36" />
  <sodipodi:namedview
     id="namedview34"
     pagecolor="#ffffff"
     bordercolor="#000000"
     borderopacity="0.25"
     inkscape:showpageshadow="2"
     inkscape:pageopacity="0.0"
     inkscape:pagecheckerboard="0"
     inkscape:deskcolor="#d1d1d1"
     inkscape:document-units="pt"
     showgrid="false"
     inkscape:zoom="13.901418"
     inkscape:cx="7.6610887"
     inkscape:cy="25.896638"
     inkscape:window-width="1920"
     inkscape:window-height="1027"
     inkscape:window-x="-8"
     inkscape:window-y="-8"
     inkscape:window-maximized="1"
     inkscape:current-layer="svg32" />
  <g
     transform="matrix(0.00458159,0,0,-0.00458159,1.035068,23.839534)"
     fill="#000000"
     stroke="none"
     id="g30">
    <path
       d="m 1067,5154 c -31,-9 -65,-31 -92,-59 -69,-68 -75,-102 -75,-410 0,-296 7,-340 66,-404 52,-58 122,-84 209,-79 78,5 117,22 164,69 66,65 66,65 69,389 2,204 0,308 -9,337 -14,53 -69,117 -122,145 -54,27 -147,33 -210,12 z"
       id="path20" />
    <path
       d="m 2307,5154 c -69,-22 -131,-87 -152,-158 -14,-47 -16,-101 -13,-338 3,-269 4,-285 25,-324 49,-92 140,-140 251,-132 75,6 115,22 161,69 66,65 66,65 69,389 2,204 0,308 -9,337 -14,53 -69,117 -122,145 -54,27 -147,33 -210,12 z"
       id="path22" />
    <path
       d="m 3520,5161 c -77,-24 -148,-90 -168,-160 -8,-25 -12,-135 -12,-318 0,-320 4,-343 73,-411 122,-119 329,-88 410,63 21,38 22,55 25,323 4,333 -1,366 -73,437 -62,63 -172,91 -255,66 z"
       id="path24" />
    <path
       d="M 166,4705 C 111,4686 59,4640 32,4588 L 9,4543 7,2399 C 5,617 7,249 19,217 38,162 87,111 145,84 l 50,-24 h 1521 1522 l -1,82 c -1,157 39,243 182,391 l 94,97 -94,98 c -129,132 -160,187 -178,317 -41,294 214,560 505,531 135,-14 214,-56 349,-187 l 91,-88 80,80 c 134,136 221,182 370,197 l 65,7 -1,1479 v 1479 l -27,50 c -15,27 -42,60 -60,74 -60,46 -108,53 -355,53 h -228 v -168 c 0,-245 -34,-348 -151,-456 -208,-193 -539,-156 -691,76 -67,103 -72,123 -78,343 l -5,200 -137,3 -138,3 v -180 c 0,-151 -3,-189 -20,-244 -104,-336 -525,-436 -768,-183 -110,114 -132,186 -132,433 v 173 h -139 -138 l -6,-187 c -4,-156 -9,-198 -26,-247 -55,-155 -170,-260 -328,-301 -249,-65 -514,106 -563,364 -5,30 -10,125 -10,212 v 159 H 453 c -185,-1 -258,-4 -287,-15 z M 3884,3578 c 55,-16 138,-99 154,-154 32,-109 1,-230 -74,-292 -79,-65 10,-62 -1604,-62 -1619,0 -1531,-3 -1607,63 -78,68 -108,216 -64,312 22,48 97,118 143,132 51,17 2997,17 3052,1 z M 3055,2496 c 66,-30 111,-83 131,-153 38,-132 -17,-261 -136,-317 -45,-21 -48,-21 -1120,-21 -1182,0 -1102,-4 -1179,61 -111,93 -108,313 6,400 73,55 25,53 1178,53 l 1070,1 z M 2605,1464 c 22,-11 53,-40 70,-63 25,-36 30,-52 30,-104 0,-78 -24,-130 -78,-165 l -41,-27 -875,-3 c -482,-1 -891,0 -909,3 -40,7 -101,59 -118,102 -8,18 -14,58 -14,89 0,98 54,165 150,185 19,4 420,6 890,6 846,-2 855,-2 895,-23 z"
       id="path26" />
    <path
       d="m 3650,1365 c -59,-19 -113,-65 -139,-118 -27,-56 -28,-147 -2,-202 11,-22 83,-107 161,-189 L 3811,707 3655,557 c -89,-86 -165,-167 -177,-190 -39,-77 -24,-183 36,-254 59,-70 183,-95 271,-54 22,10 107,82 189,160 82,77 153,141 157,141 4,0 73,-70 155,-156 83,-88 166,-165 189,-177 55,-29 145,-29 201,1 56,29 109,93 123,147 29,115 11,152 -175,348 l -154,162 160,155 c 87,85 167,171 176,190 23,47 23,144 0,190 -56,110 -166,159 -280,126 -58,-17 -71,-28 -319,-265 l -58,-56 -41,45 c -140,152 -264,273 -291,285 -53,22 -118,26 -167,10 z"
       id="path28" />
  </g>
</svg>
