<svg width="18" height="24" viewBox="0 0 18 24" fill="none" xmlns="http://www.w3.org/2000/svg">
<g clip-path="url(#clip0_3743_10310)">
<path d="M2.18339 0C5.44922 0 8.71443 0 11.9803 0C11.9852 0.119674 11.9938 0.239348 11.9944 0.359023C11.9957 1.95927 11.9944 3.5589 11.9951 5.15915C11.9951 5.85902 12.227 6.09399 12.9165 6.09399C14.4905 6.09461 16.0639 6.09399 17.638 6.09399C17.7514 6.09399 17.8649 6.09399 18 6.09399V24H15.2757H2.97101H0C0 24 0.00431743 21.7888 0 21.7801C0 15.26 0 6.52005 0 0M3.69511 12.5376C3.70066 12.5376 3.70559 12.5376 3.71114 12.5376C3.71114 13.2368 3.68586 13.938 3.71546 14.636C3.84067 17.5946 5.94942 20.3133 8.74712 21.1316C8.89885 21.1761 9.08326 21.1805 9.23438 21.1378C11.9969 20.3603 14.1741 17.6003 14.2784 14.6861C14.3314 13.2086 14.303 11.7281 14.3024 10.2494C14.3024 9.74436 14.0594 9.50251 13.5648 9.47118C12.6451 9.41291 11.9544 8.98308 11.5491 8.13597C11.361 7.74248 11.0853 7.58333 10.6622 7.58897C9.56127 7.60276 8.46032 7.60401 7.35938 7.58897C6.92516 7.58271 6.64083 7.73872 6.44716 8.14474C6.04811 8.98183 5.36349 9.40727 4.45683 9.47118C3.92516 9.50815 3.70066 9.74185 3.69696 10.2901C3.69202 11.0395 3.69572 11.7895 3.69572 12.5388L3.69511 12.5376Z" fill="#8791BD"/>
<path d="M13.4004 4.65687V0.581055C14.7258 1.93694 16.0828 3.32479 17.3854 4.65687H13.4004Z" fill="#8791BD"/>
<path d="M12.8704 10.8044C12.8704 12.2111 12.9926 13.5926 12.8433 14.9429C12.588 17.2524 11.2724 18.8226 9.15128 19.6847C9.06308 19.7205 8.93541 19.7186 8.84659 19.6822C6.7477 18.8307 5.42903 17.2806 5.16259 14.9993C5.00284 13.6315 5.13298 12.2286 5.13298 10.8251C5.39079 10.728 5.6998 10.6334 5.9903 10.4974C6.60214 10.2098 7.09186 9.76807 7.45268 9.18913C7.54334 9.04376 7.64141 8.99427 7.80671 8.99615C8.60297 9.00429 9.39922 8.99615 10.1955 9.00492C10.296 9.00617 10.4422 9.04815 10.4897 9.12271C11.0664 10.0243 11.875 10.5763 12.8711 10.8044H12.8704ZM8.33528 14.7505C8.07315 14.4692 7.8431 14.2098 7.59947 13.9642C7.25408 13.6171 6.85132 13.5951 6.5565 13.8934C6.26908 14.1835 6.2919 14.6152 6.62126 14.956C6.98639 15.3339 7.35646 15.706 7.72591 16.0795C8.17245 16.5312 8.52032 16.5344 8.96131 16.0876C9.67184 15.3683 10.3799 14.6471 11.0886 13.9266C11.207 13.8063 11.3303 13.6916 11.4414 13.5644C11.7121 13.2543 11.7097 12.8345 11.4432 12.5663C11.17 12.2913 10.7777 12.2944 10.4625 12.5757C10.3891 12.6415 10.3219 12.7154 10.2528 12.7862C9.6299 13.4241 9.00757 14.0626 8.33652 14.7505H8.33528Z" fill="#8791BD"/>
</g>
<defs>
<clipPath id="clip0_3743_10310">
<rect width="18" height="24" fill="white"/>
</clipPath>
</defs>
</svg>
