<svg width="17" height="17" viewBox="0 0 17 17" fill="none"
    xmlns="http://www.w3.org/2000/svg">
    <path d="M11.232 16.4C11.0613 16.4853 10.7413 16.56 10.272 16.624C9.824 16.6667 9.38667 16.688 8.96 16.688C8.08533 16.688 7.424 16.5493 6.976 16.272C6.528 15.9733 6.304 15.3547 6.304 14.416V10.896H1.472C1.32267 10.6613 1.19467 10.352 1.088 9.968C1.00267 9.584 0.96 9.2 0.96 8.816C0.96 8.048 1.13067 7.49333 1.472 7.152C1.81333 6.78933 2.272 6.608 2.848 6.608H6.304V1.232C6.51733 1.168 6.83733 1.104 7.264 1.04C7.712 0.954666 8.14933 0.911999 8.576 0.911999C9.42933 0.911999 10.08 1.06133 10.528 1.36C10.9973 1.65867 11.232 2.288 11.232 3.248V6.608H15.968C16.0747 6.864 16.1813 7.184 16.288 7.568C16.416 7.93067 16.48 8.31467 16.48 8.72C16.48 9.46667 16.3093 10.0213 15.968 10.384C15.6267 10.7253 15.1787 10.896 14.624 10.896H11.232V16.4Z" fill="white"/>
</svg>
