<svg width="12" height="11" viewBox="0 0 12 11" fill="none"
    xmlns="http://www.w3.org/2000/svg">
    <path d="M12 5.51074C12 5.28739 11.9184 5.07329 11.7733 4.91529C11.6282 4.75744 11.4314 4.66874 11.2261 4.66874H2.73945L5.88508 1.47732C6.0435 1.3274 6.13917 1.11374 6.14997 0.885409C6.1609 0.657072 6.08587 0.433863 5.94243 0.26692C5.79899 0.0999773 5.59927 0.00363461 5.38929 0.000108553C5.17933 -0.00356246 4.9769 0.0860125 4.82873 0.247978L0.245998 4.89388C0.0890607 5.05306 0 5.27611 0 5.50959C0 5.74306 0.0890607 5.96613 0.245998 6.1253L4.82873 10.7735C5.03088 10.9787 5.3183 11.0511 5.58278 10.9633C5.84726 10.8754 6.04858 10.6407 6.11094 10.3475C6.17328 10.0544 6.08719 9.74732 5.88505 9.54188L2.73942 6.35264H11.2261C11.4313 6.35264 11.6282 6.26395 11.7733 6.10609C11.9183 5.94809 12 5.734 12 5.51065L12 5.51074Z" fill="white"/>
</svg>
