<svg width="12" height="13" viewBox="0 0 12 13" fill="none"
    xmlns="http://www.w3.org/2000/svg">
    <path d="M5.11718 7.53423C5.11718 7.05007 5.11718 6.59989 5.11718 6.14971C5.11718 4.3361 5.11642 2.52249 5.11769 0.709112C5.11795 0.388854 5.3253 0.134781 5.6569 0.0379488C5.98263 -0.0573288 6.35105 0.0283988 6.54076 0.277142C6.6305 0.394629 6.70004 0.550094 6.70055 0.688679C6.70975 2.55981 6.70541 4.43093 6.70438 6.30206C6.70413 6.70272 6.70438 7.10337 6.70438 7.53734C7.03062 7.33257 7.32438 7.14845 7.61764 6.96412C8.3238 6.52016 9.02766 6.07331 9.73663 5.6329C10.2227 5.33085 10.8439 5.50941 11.0004 5.98935C11.0935 6.27452 10.9759 6.5608 10.6798 6.74758C9.742 7.33923 8.80241 7.92889 7.86359 8.51965C7.38984 8.81792 6.91685 9.1173 6.44309 9.41557C6.08617 9.64011 5.74281 9.64188 5.38794 9.41868C3.9751 8.53031 2.56253 7.6415 1.15097 6.75158C0.775136 6.5146 0.684117 6.10307 0.930839 5.78703C1.18395 5.46277 1.6751 5.37971 2.05477 5.61357C2.73459 6.03244 3.40547 6.46197 4.0807 6.88639C4.41486 7.09582 4.75004 7.30458 5.11718 7.53423Z" fill="white"/>
    <path d="M5.91291 11.3802C7.61925 11.3802 9.32534 11.3791 11.0317 11.3811C11.4285 11.3815 11.7522 11.6216 11.813 11.9487C11.8767 12.2917 11.6606 12.6166 11.2894 12.7218C11.1968 12.7481 11.0948 12.7603 10.9972 12.7605C7.60672 12.7623 4.21628 12.7623 0.826094 12.7616C0.34978 12.7616 -0.00330044 12.4602 2.32706e-05 12.0622C0.00334698 11.6711 0.353104 11.3809 0.827628 11.3806C2.52247 11.3795 4.21781 11.3802 5.91291 11.3802Z" fill="white"/>
</svg>
