<svg width="18" height="19" viewBox="0 0 18 19" fill="none"
    xmlns="http://www.w3.org/2000/svg">
    <path d="M8.30125 0.119906L0.23929 6.16638C0.0904062 6.27927 -0.000978249 6.46443 7.90144e-06 6.65143V17.5347C7.90144e-06 17.8513 0.288076 18.1394 0.604691 18.1394H6.04652C6.36312 18.1394 6.6512 17.8513 6.6512 17.5347V12.496H10.6822V17.5347C10.6822 17.8513 10.9702 18.1394 11.2869 18.1394H16.7287C17.0453 18.1394 17.3334 17.8513 17.3334 17.5347V6.65143C17.3334 6.46459 17.243 6.27943 17.0941 6.16638L9.03213 0.119906C8.7681 -0.0476747 8.53797 -0.0320726 8.30148 0.119906H8.30125ZM8.66649 1.36062L16.1238 6.95361V16.9303H11.8913V11.8916C11.8913 11.575 11.6032 11.2869 11.2866 11.2869H6.04631C5.72971 11.2869 5.44163 11.5749 5.44163 11.8916V16.9303H1.2091V6.95361L8.66649 1.36062Z" fill="white"/>
</svg>
