<svg width="18" height="19" viewBox="0 0 18 19" fill="none"
    xmlns="http://www.w3.org/2000/svg">
    <path d="M1.12674 9.5001C1.12674 9.82547 0.871477 10.0948 0.563368 10.0948C0.250351 10.0948 0 9.82533 0 9.5001C0 6.87722 1.00646 4.50337 2.63408 2.78045C4.26645 1.06239 6.51533 0 8.99998 0C10.488 0 11.8941 0.381159 13.1316 1.06239C13.9695 1.51989 14.7351 2.11459 15.3948 2.81598V1.49434C15.3948 1.16896 15.6452 0.899663 15.9582 0.899663C16.2664 0.899663 16.5168 1.16911 16.5168 1.49434V4.46272C16.5168 4.79313 16.2664 5.0574 15.9582 5.0574H13.1459C12.8329 5.0574 12.5826 4.79312 12.5826 4.46272C12.5826 4.13735 12.8329 3.86805 13.1459 3.86805H14.7927C14.1716 3.15645 13.4396 2.56178 12.6162 2.11446C11.5375 1.51978 10.3048 1.18935 8.99978 1.18935C6.82323 1.18935 4.85367 2.11948 3.43328 3.62417C2.00793 5.12366 1.12674 7.20276 1.12674 9.5001ZM2.60505 17.5057C2.60505 17.831 2.35469 18.0953 2.04168 18.0953C1.73344 18.0953 1.47832 17.831 1.47832 17.5057V14.5066L1.48309 14.4914V14.4609L1.48786 14.4457V14.4304L1.49263 14.4152V14.3999L1.4974 14.3847L1.50217 14.3745V14.3593L1.51171 14.3288L1.51649 14.3186L1.52126 14.3033L1.53093 14.2931V14.2881L1.5357 14.2779L1.54047 14.2626L1.54524 14.2524L1.55491 14.2372L1.55968 14.227L1.56935 14.2168L1.57412 14.2015L1.58379 14.1913L1.58856 14.1811L1.59822 14.1659L1.62723 14.1353L1.632 14.1251L1.661 14.0945H1.66577L1.68511 14.074L1.69478 14.069L1.71411 14.0486L1.72855 14.0436L1.73822 14.0334L1.74789 14.0283L1.76233 14.0181L1.772 14.0131L1.78644 14.008L1.7961 13.9978L1.82498 13.9878L1.83465 13.9827L1.86353 13.9727L1.8732 13.9676L1.90207 13.9575H1.91651L1.92618 13.9525H1.94062L1.95506 13.9475H1.9695L1.98394 13.9424H4.85395C5.16696 13.9424 5.41731 14.2067 5.41731 14.5371C5.41731 14.8625 5.16695 15.1268 4.85395 15.1268H3.20714C3.82351 15.8333 4.5555 16.428 5.36926 16.8753C6.4527 17.4752 7.69033 17.8106 9.00012 17.8106C11.1719 17.8106 13.1414 16.8805 14.5666 15.3758C15.992 13.8712 16.8733 11.7922 16.8733 9.49993C16.8733 9.16952 17.1236 8.90526 17.4366 8.90526C17.7449 8.90526 18 9.16954 18 9.49993C18 12.1228 16.9888 14.4967 15.3611 16.2145C13.7335 17.9326 11.4847 19 9.00006 19C7.50252 19 6.09151 18.6137 4.84912 17.9275C4.01604 17.47 3.26004 16.8804 2.60516 16.179L2.60505 17.5057Z" fill="white"/>
</svg>
