<svg width="92" height="57" viewBox="0 0 92 57" fill="none" xmlns="http://www.w3.org/2000/svg">
<g clip-path="url(#clip0_1791_22779)">
<path d="M46.0373 57.0001C37.3064 56.9826 28.7248 55.8605 20.2955 53.5785C19.6746 53.4109 19.5208 53.1311 19.5106 52.5336C19.3817 45.3771 22.5742 40.1427 28.8141 36.7284C30.4294 35.8438 32.175 35.1852 33.8869 34.4901C34.234 34.3487 34.7553 34.3939 35.1083 34.5498C38.535 36.0682 42.1082 37.0329 45.8586 37.065C49.7145 37.0985 53.38 36.1061 56.9049 34.5644C57.2783 34.4012 57.8157 34.3647 58.1965 34.4959C61.9191 35.787 65.3751 37.5415 68.1283 40.44C71.4657 43.9548 72.6387 48.2231 72.5245 52.9446C72.5128 53.4473 72.1569 53.4633 71.8435 53.5304C68.2249 54.3115 64.6224 55.1902 60.9774 55.8299C56.0438 56.694 51.0471 56.9826 46.0388 56.9986L46.0373 57.0001Z" fill="white"/>
<path d="M60.4149 18.281C60.4456 26.1151 53.9611 32.9233 45.6197 32.7135C37.9139 32.5197 31.5202 26.0408 31.6183 17.9968C31.7135 10.0913 38.1819 3.66339 46.1279 3.69691C54.0563 3.73042 60.4412 10.2487 60.4149 18.2795V18.281Z" fill="white"/>
<path d="M35.4199 3.41866C31.5303 6.37103 29.0701 10.1686 28.2002 14.9061C27.3303 19.6421 28.2676 24.0634 30.823 28.1451C26.5293 30.0031 19.0783 29.1769 14.6542 23.1599C10.1277 17.0031 11.0957 8.43012 16.8479 3.48132C22.631 -1.49516 30.7015 -0.794223 35.4184 3.42012L35.4199 3.41866Z" fill="white"/>
<path d="M61.1853 28.1992C63.7788 24.0635 64.7175 19.6408 63.8447 14.9048C62.9719 10.1702 60.5175 6.36679 56.6719 3.45376C60.0708 0.0598492 67.4516 -1.68447 73.6212 2.28943C79.8992 6.33327 82.0988 14.7197 78.5212 21.372C74.8836 28.1351 67.2143 30.4084 61.1853 28.1977V28.1992Z" fill="white"/>
<path d="M76.2429 52.1372C76.1961 43.7406 72.3681 37.6348 65.0547 33.486C66.2438 33.384 67.3216 33.3301 68.3892 33.1902C71.3796 32.7996 74.266 32.0317 76.9927 30.7172C77.1685 30.6327 77.4247 30.5948 77.6034 30.6546C81.881 32.1177 85.8276 34.1082 88.7594 37.6858C90.4933 39.8017 91.5594 42.2236 91.9958 44.9122C92.0325 45.1366 91.8626 45.5345 91.6722 45.6365C86.8571 48.226 81.8444 50.3667 76.6471 52.0804C76.5593 52.1095 76.4597 52.1066 76.2444 52.1358L76.2429 52.1372Z" fill="white"/>
<path d="M15.803 52.1693C15.475 52.0804 15.2216 52.0279 14.977 51.9463C10.0038 50.2705 5.2005 48.2085 0.553857 45.7764C0.0486279 45.5126 -0.0685266 45.2401 0.0339836 44.7053C0.840886 40.5274 3.01996 37.2238 6.41451 34.6839C8.81618 32.8871 11.5049 31.644 14.3356 30.6881C14.5406 30.6196 14.8262 30.6167 15.0166 30.7056C18.7113 32.4295 22.595 33.3344 26.6735 33.4131C26.7189 33.4131 26.7643 33.4408 26.9473 33.5006C19.6647 37.626 15.8015 43.726 15.8015 52.1693H15.803Z" fill="white"/>
</g>
<defs>
<clipPath id="clip0_1791_22779">
<rect width="92" height="57" fill="white"/>
</clipPath>
</defs>
</svg>
