<svg width="69" height="69" viewBox="0 0 69 69" fill="none" xmlns="http://www.w3.org/2000/svg">
<g clip-path="url(#clip0_1791_23069)">
<path d="M26.5409 19.6943C38.6556 19.9255 49.1101 27.4229 52.1082 38.212C55.2568 49.5544 49.2327 61.5937 37.8606 66.5558C30.8033 69.6339 23.6235 69.8265 16.4436 67.0215C14.7205 66.3492 13.1584 66.1601 11.3967 66.7939C9.64906 67.4207 7.82783 67.848 6.01711 68.2717C4.53561 68.6219 4.0803 68.1141 4.45506 66.6328C4.78078 65.3371 5.07498 64.024 5.52328 62.7668C6.13269 61.0544 5.78946 59.6712 4.67571 58.2389C1.61815 54.2889 0.091116 49.726 0.003557 44.7674C-0.196078 33.495 8.02746 23.4378 19.6518 20.7134C21.9038 20.1846 24.2434 20.027 26.5409 19.6978V19.6943Z" fill="white"/>
<path d="M26.5022 14.8827C25.1888 14.9597 24.1941 14.9947 23.2065 15.0753C21.9596 15.1803 20.8739 14.9632 20.226 13.7481C19.5255 12.4419 20.1139 11.4019 20.9159 10.4003C24.7475 5.58883 29.6333 2.39517 35.5943 0.868369C48.3744 -2.40934 61.9496 3.84142 66.965 15.4535C70.4708 23.5707 69.3746 31.2887 64.2717 38.415C63.2139 39.8892 62.8357 41.2339 63.4066 42.9428C63.8654 44.319 64.2261 45.7338 64.5098 47.159C64.734 48.2656 64.2857 48.8644 63.0458 48.5037C62.4329 48.3251 61.813 48.1675 61.1966 47.9995C58.7169 47.3201 57.9324 46.4131 57.8693 43.7868C57.7292 37.8932 55.95 32.5389 52.4407 27.8429C45.9053 19.1024 36.9708 15.0858 26.5022 14.8827Z" fill="white"/>
</g>
<defs>
<clipPath id="clip0_1791_23069">
<rect width="69" height="69" fill="white"/>
</clipPath>
</defs>
</svg>
