<svg width="95" height="65" viewBox="0 0 95 65" fill="none" xmlns="http://www.w3.org/2000/svg">
<path d="M47.5 0C39.6639 0.0244549 32.095 2.83716 26.1606 7.93C21.6125 11.83 18.3172 16.9118 17.4681 22.0114C7.51687 24.1977 0 32.825 0 43.2427C0 55.3445 10.1412 65 22.4497 65H75.3291C86.1056 65 95 56.55 95 45.9314C95 36.2641 87.6256 28.3873 78.1731 27.0577C76.7303 11.8123 63.4719 0 47.5 0ZM61.4769 30.4082C61.7529 30.6829 61.9719 31.009 62.1212 31.3679C62.2706 31.7268 62.3475 32.1115 62.3475 32.5C62.3475 32.8885 62.2706 33.2732 62.1212 33.6321C61.9719 33.991 61.7529 34.3171 61.4769 34.5918C61.2009 34.8665 60.8732 35.0844 60.5125 35.2331C60.1519 35.3818 59.7654 35.4583 59.375 35.4583C58.9846 35.4583 58.5981 35.3818 58.2375 35.2331C57.8768 35.0844 57.5491 34.8665 57.2731 34.5918L50.4688 27.8141V50.2273C50.4688 51.0109 50.156 51.7624 49.5992 52.3165C49.0425 52.8705 48.2874 53.1818 47.5 53.1818C46.7126 53.1818 45.9575 52.8705 45.4008 52.3165C44.844 51.7624 44.5312 51.0109 44.5312 50.2273V27.8141L37.7269 34.5918C37.1694 35.1466 36.4134 35.4583 35.625 35.4583C34.8366 35.4583 34.0806 35.1466 33.5231 34.5918C32.9657 34.037 32.6525 33.2846 32.6525 32.5C32.6525 31.7154 32.9657 30.963 33.5231 30.4082L45.3981 18.59C45.6739 18.3149 46.0015 18.0966 46.3622 17.9476C46.7228 17.7987 47.1095 17.722 47.5 17.722C47.8905 17.722 48.2771 17.7987 48.6378 17.9476C48.9985 18.0966 49.3261 18.3149 49.6019 18.59L61.4769 30.4082Z" fill="white"/>
</svg>
