<svg xmlns="http://www.w3.org/2000/svg" width="108" height="108" fill="none"><mask id="a" width="108" height="108" x="0" y="0" maskUnits="userSpaceOnUse" style="mask-type:alpha"><path fill="#424966" d="M0 0h108v108H0z"/></mask><g mask="url(#a)"><path fill="url(#b)" d="M28.055 36.105h-2.121v-1.587h2.12c.29 0 .524-.05.704-.147a.892.892 0 0 0 .392-.404 1.33 1.33 0 0 0 .13-.592c0-.234-.044-.451-.13-.65a1.05 1.05 0 0 0-.392-.48c-.18-.126-.414-.188-.703-.188h-1.348V39H24.65v-8.531h3.405c.683 0 1.271.125 1.763.375.496.25.877.593 1.143 1.031.266.434.398.93.398 1.488 0 .551-.132 1.032-.398 1.442-.266.41-.646.73-1.143.96-.492.227-1.08.34-1.763.34Zm11.63-1.54v.345c0 .653-.091 1.238-.275 1.758-.18.516-.435.957-.767 1.324a3.402 3.402 0 0 1-1.178.838 3.817 3.817 0 0 1-1.5.287c-.55 0-1.055-.095-1.512-.287a3.462 3.462 0 0 1-1.184-.838 3.897 3.897 0 0 1-.773-1.324c-.18-.52-.27-1.105-.27-1.758v-.345c0-.653.09-1.239.27-1.758.184-.52.44-.961.768-1.325a3.302 3.302 0 0 1 1.177-.837c.457-.196.961-.293 1.512-.293a3.75 3.75 0 0 1 1.5.293c.457.19.852.47 1.184.837.332.364.59.805.773 1.325.184.52.276 1.105.276 1.758Zm-2.085.345v-.357c0-.422-.038-.793-.112-1.113a2.464 2.464 0 0 0-.316-.815 1.393 1.393 0 0 0-1.219-.662c-.273 0-.512.056-.715.17-.203.11-.373.273-.51.492a2.55 2.55 0 0 0-.31.815c-.066.32-.1.69-.1 1.113v.357c0 .418.034.79.1 1.113.07.32.174.592.31.815.141.222.313.39.516.504.207.113.447.17.72.17.263 0 .495-.057.698-.17.203-.114.373-.282.51-.504.14-.223.246-.494.316-.815.075-.324.112-.695.112-1.113Zm8.789 2.508V39h-4.313v-1.582h4.313Zm-3.58-6.95V39h-2.057v-8.531h2.057Zm6.632 0V39h-2.05v-8.531h2.05Zm2.602 0V39h-.72v-8.531h.72Zm3.973 3.927v.62h-4.213v-.62h4.213Zm.591-3.926v.62h-4.804v-.62h4.804Zm6.768 7.916V39h-4.799v-.615h4.799Zm-4.582-7.916V39h-.72v-8.531h.72Zm3.984 3.826v.615h-4.2v-.615h4.2Zm.569-3.826v.62h-4.77v-.62h4.77Zm1.781 0h.727l3.152 7.511 3.158-7.511h.72L69.282 39h-.55l-3.604-8.531Zm-.223 0h.639l.076 4.804V39h-.715v-8.531Zm7.577 0h.638V39h-.72v-3.727l.082-4.804Zm9.105 3.808v.914c0 .598-.078 1.14-.234 1.623-.153.48-.375.893-.668 1.237-.29.343-.637.607-1.043.79a3.293 3.293 0 0 1-1.372.276 3.29 3.29 0 0 1-1.359-.275 2.971 2.971 0 0 1-1.049-.791 3.675 3.675 0 0 1-.68-1.236 5.154 5.154 0 0 1-.24-1.624v-.914c0-.597.078-1.136.235-1.617a3.66 3.66 0 0 1 .68-1.242 2.968 2.968 0 0 1 1.048-.791 3.25 3.25 0 0 1 1.354-.275c.508 0 .965.091 1.37.275.407.184.757.447 1.05.791.293.344.517.758.674 1.242.156.48.234 1.02.234 1.617Zm-.715.914v-.925a4.86 4.86 0 0 0-.176-1.36 2.9 2.9 0 0 0-.51-1.031 2.23 2.23 0 0 0-.82-.656 2.573 2.573 0 0 0-1.107-.229c-.402 0-.764.076-1.084.229-.32.152-.594.37-.82.656a3.117 3.117 0 0 0-.516 1.031 4.86 4.86 0 0 0-.176 1.36v.925c0 .508.059.965.176 1.371.121.403.295.748.521 1.038.227.285.5.503.82.656.325.152.688.228 1.09.228.418 0 .788-.076 1.108-.228.32-.153.592-.371.814-.656.223-.29.391-.635.504-1.038.118-.406.176-.863.176-1.37Z"/><path fill="#DDDFEC" stroke="#DDE0EC" stroke-miterlimit="10" stroke-width="1.122" d="M52.188 84.48c-.02-.337.33-1.28 0-1.35-2.139-.452-5.926-1.128-7.544-2.479-2.927-2.444-5.556-7.234-7.636-13.104-1.924-5.425-.58-10.567-.156-12.19.224-.859 1.84 2.84 2.05 2.131.46-1.55 1.938-5.714 2.815-7.012.327-.484.995 2.164 1.464 1.817 1.5-1.11 2.59-4.52 8.103-5.645 4.54-.928 9.462-1.182 11.528 1.463 1.456 1.862 3.366 4.52 4.914 7.827 5.855 12.51 2.364 19.713.9 21.335-2.08 2.306-5.814 3.607-7.43 5.067-.502.453.112 2.702.112 2.702l-7.206 5.855s-1.69-2.843-1.914-6.418Z"/><path stroke="#464A64" stroke-linecap="round" stroke-miterlimit="10" stroke-width=".561" d="M50.014 76.643s-1.35-2.17-.868-1.945c1.34.627 2.701 2.893 7.682.372 1.089-.55 3.98-2.48 3.98-2.48M60.338 71.594l1.01 1.935M42.623 61.638c-.335 2.893.816 5.6.816 5.6M54.68 78.687c.292-.083 1.88-.209 1.88-.209"/><path fill="#464A64" stroke="#464A64" stroke-linecap="round" stroke-miterlimit="10" stroke-width=".168" d="M47.688 96.325s.706 7.679 4.178 17.053l-1.23 1.565 4.6-1.677c-2.252-3.913-2.14-11.07-2.14-11.07s1.86-.056 3.019 10.287l5.263 3.466-1.01-2.404c1.01-1.23 5.17-12.083 5.17-12.083l-17.491-5.827-.36.69h.002Z"/><path fill="#192947" d="M47.816 98.062c3.486 2.424 13.416 5.452 16.667 6.494l1.392-2.985-18.058-5.533v2.024" opacity=".3"/><path fill="#EEB55F" d="M47.452 95.151c-1.081-1.366-1.756-3.819-1.682-4.254.068-.397 1.437-3.654 2.758-4.74.513-.423 3.106-1.511 3.106-1.511l2.279 6.95 7.943-6.824s2.916-.542 4.2.473c.75.593 2.529 2.979 2.528 7.176 0 .588-1.608 1.72-1.608 1.72s.714-4.05.659-3.83c-.055.22-.928 14.146-1.458 13.682-2.599-2.274-19.291-6.65-19.181-7.255.162-.892 1.367-7.834 1.367-7.834s-.705 6.509-.911 6.248v-.001Z"/><path fill="#C58D5D" d="M48.363 88.904s-1.034 5.411-1.056 6.054c-.006.172-.499-.791-.703-1.234-.055-.12 1.76-4.82 1.76-4.82ZM67.367 93.846s.313-3.833.268-3.535c-.044.297.303 3.046.303 3.046l-.571.489ZM46.996 96.737l.842 1.325v-.871l-.842-.454ZM64.503 104.556l.513-1.297 1.161.734-1.674.563Z"/><path fill="#474A64" stroke="#fff" stroke-miterlimit="10" stroke-width="1.122" d="M53.5 71.465a9.586 9.586 0 0 0 9.587-9.586 9.586 9.586 0 1 0-19.172 0 9.586 9.586 0 0 0 9.586 9.586Z"/><path fill="#EAEDF8" d="M55.841 62.992a4.283 4.283 0 1 0 0-8.566 4.283 4.283 0 0 0 0 8.566Z"/><path fill="#fff" d="M56.828 57.488a.775.775 0 1 0 0-1.55.775.775 0 0 0 0 1.55ZM58.177 58.047a.387.387 0 1 0 0-.775.387.387 0 0 0 0 .775Z"/></g><defs><linearGradient id="b" x1="53.5" x2="53.5" y1="21.467" y2="42" gradientUnits="userSpaceOnUse"><stop offset=".081" stop-color="#FFB544"/><stop offset=".305" stop-color="#FFB544"/><stop offset=".659" stop-color="#FFB544" stop-opacity=".43"/><stop offset="1" stop-color="#fff" stop-opacity="0"/><stop offset="1" stop-color="#fff" stop-opacity=".09"/><stop offset="1" stop-color="#1B2132"/></linearGradient></defs></svg>