<svg width="32" height="32" viewBox="0 0 28 37" fill="none" xmlns="http://www.w3.org/2000/svg">
<path fill-rule="evenodd" clip-rule="evenodd" d="M18 0C8.05909 0 0 8.05909 0 18C0 27.9409 8.05909 36 18 36C27.9409 36 36 27.9409 36 18C36 8.05909 27.9409 0 18 0ZM19.6364 24.5455C19.6364 24.9794 19.464 25.3957 19.1571 25.7025C18.8502 26.0094 18.434 26.1818 18 26.1818C17.566 26.1818 17.1498 26.0094 16.8429 25.7025C16.536 25.3957 16.3636 24.9794 16.3636 24.5455V19.6364H11.4545C11.0206 19.6364 10.6043 19.464 10.2975 19.1571C9.99058 18.8502 9.81818 18.434 9.81818 18C9.81818 17.566 9.99058 17.1498 10.2975 16.8429C10.6043 16.536 11.0206 16.3636 11.4545 16.3636H16.3636V11.4545C16.3636 11.0206 16.536 10.6043 16.8429 10.2975C17.1498 9.99058 17.566 9.81818 18 9.81818C18.434 9.81818 18.8502 9.99058 19.1571 10.2975C19.464 10.6043 19.6364 11.0206 19.6364 11.4545V16.3636H24.5455C24.9794 16.3636 25.3957 16.536 25.7025 16.8429C26.0094 17.1498 26.1818 17.566 26.1818 18C26.1818 18.434 26.0094 18.8502 25.7025 19.1571C25.3957 19.464 24.9794 19.6364 24.5455 19.6364H19.6364V24.5455Z" fill="white"/>
</svg>
