<svg width="38" height="32" viewBox="0 0 36 31" fill="none" xmlns="http://www.w3.org/2000/svg">
<path d="M19 0C18.2878 -1.02184e-08 17.5826 0.135067 16.9247 0.39749C16.2667 0.659913 15.6688 1.04455 15.1653 1.52945C14.6617 2.01434 14.2622 2.58999 13.9897 3.22354C13.7171 3.85708 13.5769 4.53611 13.5769 5.22186C13.5769 5.9076 13.7171 6.58663 13.9897 7.22018C14.2622 7.85372 14.6617 8.42937 15.1653 8.91427C15.6688 9.39916 16.2667 9.7838 16.9247 10.0462C17.5826 10.3087 18.2878 10.4437 19 10.4437C20.4383 10.4437 21.8177 9.89356 22.8347 8.91427C23.8518 7.93498 24.4231 6.60678 24.4231 5.22186C24.4231 3.83694 23.8518 2.50874 22.8347 1.52945C21.8177 0.550158 20.4383 0 19 0ZM31.2143 2.60832C30.1345 2.60832 29.0989 3.02135 28.3354 3.75655C27.5718 4.49175 27.1429 5.4889 27.1429 6.52863C27.1429 7.56836 27.5718 8.56551 28.3354 9.30071C29.0989 10.0359 30.1345 10.4489 31.2143 10.4489C32.2941 10.4489 33.3297 10.0359 34.0932 9.30071C34.8568 8.56551 35.2857 7.56836 35.2857 6.52863C35.2857 5.4889 34.8568 4.49175 34.0932 3.75655C33.3297 3.02135 32.2941 2.60832 31.2143 2.60832ZM6.78571 2.60832C5.7059 2.60832 4.67032 3.02135 3.90678 3.75655C3.14324 4.49175 2.71429 5.4889 2.71429 6.52863C2.71429 7.56836 3.14324 8.56551 3.90678 9.30071C4.67032 10.0359 5.7059 10.4489 6.78571 10.4489C7.86552 10.4489 8.90111 10.0359 9.66465 9.30071C10.4282 8.56551 10.8571 7.56836 10.8571 6.52863C10.8571 5.4889 10.4282 4.49175 9.66465 3.75655C8.90111 3.02135 7.86552 2.60832 6.78571 2.60832ZM10.8571 15.6577C10.8622 14.9678 11.1503 14.3077 11.6588 13.8215C12.1673 13.3353 12.8548 13.0625 13.5714 13.0625H24.4286C25.1484 13.0625 25.8388 13.3378 26.3479 13.828C26.8569 14.3181 27.1429 14.9829 27.1429 15.676V23.5167C27.1427 24.3392 27.009 25.1566 26.7466 25.9394C26.1456 27.7132 24.9075 29.2226 23.2547 30.1966C21.6019 31.1706 19.6426 31.5453 17.7287 31.2535C15.8148 30.9616 14.0716 30.0224 12.8122 28.6044C11.5528 27.1864 10.8596 25.3825 10.8571 23.5167V15.6577ZM8.14286 15.676C8.14286 14.7221 8.40614 13.8309 8.87029 13.0625H2.71429C1.99441 13.0625 1.30402 13.3378 0.794996 13.828C0.285969 14.3181 3.75693e-07 14.9829 3.75693e-07 15.676V22.2099C-0.000369273 23.2796 0.272042 24.3331 0.793312 25.2778C1.31458 26.2224 2.06876 27.0294 2.98963 27.6279C3.91049 28.2263 4.96987 28.5979 6.07473 28.71C7.17958 28.822 8.29612 28.6712 9.32629 28.2707C8.54506 26.7982 8.13938 25.1676 8.14286 23.514V15.676ZM29.8571 15.676V23.5167C29.8571 25.2285 29.431 26.8437 28.6737 28.2707C29.7039 28.6712 30.8204 28.822 31.9253 28.71C33.0301 28.5979 34.0895 28.2263 35.0104 27.6279C35.9312 27.0294 36.6854 26.2224 37.2067 25.2778C37.728 24.3331 38.0004 23.2796 38 22.2099V15.676C38 14.9829 37.714 14.3181 37.205 13.828C36.696 13.3378 36.0056 13.0625 35.2857 13.0625H29.1297C29.5911 13.8309 29.8571 14.7221 29.8571 15.676Z" fill="white"/>
</svg>