<svg width="44" height="37" viewBox="0 0 50 35" fill="none" 
xmlns="http://www.w3.org/2000/svg">
<path d="M22 0C21.1754 -1.206e-08 20.3588 0.159409 19.597 0.469127C18.8351 0.778845 18.1429 1.2328 17.5598 1.80509C16.9767 2.37737 16.5141 3.05677 16.1986 3.8045C15.883 4.55222 15.7206 5.35363 15.7206 6.16296C15.7206 6.97229 15.883 7.7737 16.1986 8.52142C16.5141 9.26915 16.9767 9.94854 17.5598 10.5208C18.1429 11.0931 18.8351 11.5471 19.597 11.8568C20.3588 12.1665 21.1754 12.3259 22 12.3259C23.6654 12.3259 25.2626 11.6766 26.4402 10.5208C27.6178 9.36505 28.2794 7.79748 28.2794 6.16296C28.2794 4.52844 27.6178 2.96087 26.4402 1.80509C25.2626 0.64931 23.6654 0 22 0ZM36.1429 3.07839C34.8926 3.07839 33.6935 3.56586 32.8094 4.43357C31.9253 5.30127 31.4286 6.47812 31.4286 7.70524C31.4286 8.93236 31.9253 10.1092 32.8094 10.9769C33.6935 11.8446 34.8926 12.3321 36.1429 12.3321C37.3932 12.3321 38.5923 11.8446 39.4764 10.9769C40.3605 10.1092 40.8571 8.93236 40.8571 7.70524C40.8571 6.47812 40.3605 5.30127 39.4764 4.43357C38.5923 3.56586 37.3932 3.07839 36.1429 3.07839ZM7.85714 3.07839C6.60684 3.07839 5.40774 3.56586 4.52364 4.43357C3.63954 5.30127 3.14286 6.47812 3.14286 7.70524C3.14286 8.93236 3.63954 10.1092 4.52364 10.9769C5.40774 11.8446 6.60684 12.3321 7.85714 12.3321C9.10745 12.3321 10.3065 11.8446 11.1906 10.9769C12.0747 10.1092 12.5714 8.93236 12.5714 7.70524C12.5714 6.47812 12.0747 5.30127 11.1906 4.43357C10.3065 3.56586 9.10745 3.07839 7.85714 3.07839ZM12.5714 18.4796C12.5772 17.6653 12.9109 16.8863 13.4997 16.3125C14.0885 15.7386 14.8845 15.4166 15.7143 15.4167H28.2857C29.1193 15.4167 29.9186 15.7416 30.508 16.3201C31.0974 16.8986 31.4286 17.6831 31.4286 18.5012V27.7549C31.4284 28.7257 31.2735 29.6905 30.9697 30.6143C30.2738 32.7078 28.8402 34.4892 26.9265 35.6387C25.0127 36.7882 22.7441 37.2305 20.528 36.8861C18.3119 36.5416 16.2935 35.4331 14.8352 33.7596C13.3769 32.086 12.5743 29.957 12.5714 27.7549V18.4796ZM9.42857 18.5012C9.42857 17.3753 9.73343 16.3235 10.2709 15.4167H3.14286C2.30932 15.4167 1.50992 15.7416 0.920522 16.3201C0.331122 16.8986 4.35013e-07 17.6831 4.35013e-07 18.5012V26.2126C-0.000427579 27.4752 0.314996 28.7185 0.918572 29.8334C1.52215 30.9483 2.39541 31.9008 3.46168 32.607C4.52794 33.3133 5.75459 33.7519 7.03389 33.8842C8.3132 34.0164 9.60603 33.8384 10.7989 33.3657C9.89428 31.6278 9.42455 29.7034 9.42857 27.7518V18.5012ZM34.5714 18.5012V27.7549C34.5714 29.7753 34.078 31.6816 33.2011 33.3657C34.394 33.8384 35.6868 34.0164 36.9661 33.8842C38.2454 33.7519 39.4721 33.3133 40.5383 32.607C41.6046 31.9008 42.4779 30.9483 43.0814 29.8334C43.685 28.7185 44.0004 27.4752 44 26.2126V18.5012C44 17.6831 43.6689 16.8986 43.0795 16.3201C42.4901 15.7416 41.6907 15.4167 40.8571 15.4167H33.7291C34.2634 16.3235 34.5714 17.3753 34.5714 18.5012Z" fill="white"/>
</svg>
