<svg width="34" height="30" viewBox="0 0 28 30" fill="none" xmlns="http://www.w3.org/2000/svg">
<path d="M28.9 3.33333C30.2526 3.33333 31.5498 3.86012 32.5062 4.7978C33.4627 5.73548 34 7.00725 34 8.33333V25C34 26.3261 33.4627 27.5979 32.5062 28.5355C31.5498 29.4732 30.2526 30 28.9 30H5.1C3.7474 30 2.45019 29.4732 1.49376 28.5355C0.53732 27.5979 0 26.3261 0 25L0 8.33333C0 7.00725 0.53732 5.73548 1.49376 4.7978C2.45019 3.86012 3.7474 3.33333 5.1 3.33333V6.66667C5.1 7.55072 5.45821 8.39857 6.09584 9.02369C6.73346 9.64881 7.59826 10 8.5 10C9.40174 10 10.2665 9.64881 10.9042 9.02369C11.5418 8.39857 11.9 7.55072 11.9 6.66667V3.33333H13.6V6.66667C13.6 7.55072 13.9582 8.39857 14.5958 9.02369C15.2335 9.64881 16.0983 10 17 10C17.9017 10 18.7665 9.64881 19.4042 9.02369C20.0418 8.39857 20.4 7.55072 20.4 6.66667V3.33333H22.1V6.66667C22.1 7.55072 22.4582 8.39857 23.0958 9.02369C23.7335 9.64881 24.5983 10 25.5 10C26.4017 10 27.2665 9.64881 27.9042 9.02369C28.5418 8.39857 28.9 7.55072 28.9 6.66667V3.33333ZM5.1 13.3333V16.6667H8.5V13.3333H5.1ZM5.1 20V23.3333H8.5V20H5.1ZM25.5 20V23.3333H28.9V20H25.5ZM25.5 13.3333V16.6667H28.9V13.3333H25.5ZM11.9 13.3333V16.6667H15.3V13.3333H11.9ZM18.7 13.3333V16.6667H22.1V13.3333H18.7ZM18.7 20V23.3333H22.1V20H18.7ZM11.9 20V23.3333H15.3V20H11.9ZM8.5 0C8.95087 0 9.38327 0.175595 9.70208 0.488155C10.0209 0.800716 10.2 1.22464 10.2 1.66667V6.66667C10.2 7.10869 10.0209 7.53262 9.70208 7.84518C9.38327 8.15774 8.95087 8.33333 8.5 8.33333C8.04913 8.33333 7.61673 8.15774 7.29792 7.84518C6.97911 7.53262 6.8 7.10869 6.8 6.66667V1.66667C6.8 1.22464 6.97911 0.800716 7.29792 0.488155C7.61673 0.175595 8.04913 0 8.5 0V0ZM25.5 0C25.9509 0 26.3833 0.175595 26.7021 0.488155C27.0209 0.800716 27.2 1.22464 27.2 1.66667V6.66667C27.2 7.10869 27.0209 7.53262 26.7021 7.84518C26.3833 8.15774 25.9509 8.33333 25.5 8.33333C25.0491 8.33333 24.6167 8.15774 24.2979 7.84518C23.9791 7.53262 23.8 7.10869 23.8 6.66667V1.66667C23.8 1.22464 23.9791 0.800716 24.2979 0.488155C24.6167 0.175595 25.0491 0 25.5 0V0ZM17 0C17.4509 0 17.8833 0.175595 18.2021 0.488155C18.5209 0.800716 18.7 1.22464 18.7 1.66667V6.66667C18.7 7.10869 18.5209 7.53262 18.2021 7.84518C17.8833 8.15774 17.4509 8.33333 17 8.33333C16.5491 8.33333 16.1167 8.15774 15.7979 7.84518C15.4791 7.53262 15.3 7.10869 15.3 6.66667V1.66667C15.3 1.22464 15.4791 0.800716 15.7979 0.488155C16.1167 0.175595 16.5491 0 17 0V0Z" fill="white"/>
</svg>
