<svg width="40" height="32.5" viewBox="0 0 40 32.5" fill="none"
xmlns="http://www.w3.org/2000/svg">
<path d="M37.8122 5.00014H32.8123V8.75013C32.8123 9.11126 32.7412 9.46886 32.603 9.8025C32.4648 10.1361 32.2622 10.4393 32.0069 10.6947C31.7515 10.95 31.4483 11.1526 31.1147 11.2908C30.7811 11.429 30.4235 11.5001 30.0623 11.5001C29.7012 11.5001 29.3436 11.429 29.01 11.2908C28.6763 11.1526 28.3732 10.95 28.1178 10.6947C27.8625 10.4393 27.6599 10.1361 27.5217 9.8025C27.3835 9.46886 27.3124 9.11126 27.3124 8.75013V5.00014H12.7501V8.75013C12.7501 9.47947 12.4604 10.1789 11.9447 10.6947C11.429 11.2104 10.7295 11.5001 10.0002 11.5001C9.27083 11.5001 8.57137 11.2104 8.05565 10.6947C7.53993 10.1789 7.2502 9.47947 7.2502 8.75013V5.00014H2.25028C1.95282 4.99676 1.65769 5.05306 1.38237 5.16572C1.10704 5.27838 0.857098 5.44511 0.647328 5.65605C0.437557 5.86699 0.272217 6.11785 0.161086 6.3938C0.0499541 6.66975 -0.00471175 6.96519 0.000321309 7.26263V35.2375C-0.00464488 35.5297 0.0480007 35.82 0.155251 36.0919C0.262501 36.3637 0.422255 36.6118 0.625388 36.8219C0.828521 37.032 1.07105 37.2 1.33913 37.3164C1.60721 37.4327 1.89559 37.4951 2.18779 37.5H37.8122C38.1044 37.4951 38.3928 37.4327 38.6609 37.3164C38.9289 37.2 39.1715 37.032 39.3746 36.8219C39.5777 36.6118 39.7375 36.3637 39.8447 36.0919C39.952 35.82 40.0046 35.5297 39.9997 35.2375V7.26263C40.0046 6.97043 39.952 6.68012 39.8447 6.40826C39.7375 6.13641 39.5777 5.88835 39.3746 5.67825C39.1715 5.46815 38.9289 5.30013 38.6609 5.18378C38.3928 5.06743 38.1044 5.00503 37.8122 5.00014ZM10.0002 30H7.5002V27.5H10.0002V30ZM10.0002 23.7501H7.5002V21.2501H10.0002V23.7501ZM10.0002 17.5001H7.5002V15.0001H10.0002V17.5001ZM17.5 30H15.0001V27.5H17.5V30ZM17.5 23.7501H15.0001V21.2501H17.5V23.7501ZM17.5 17.5001H15.0001V15.0001H17.5V17.5001ZM24.9999 30H22.5V27.5H24.9999V30ZM24.9999 23.7501H22.5V21.2501H24.9999V23.7501ZM24.9999 17.5001H22.5V15.0001H24.9999V17.5001ZM32.4998 30H29.9998V27.5H32.4998V30ZM32.4998 23.7501H29.9998V21.2501H32.4998V23.7501ZM32.4998 17.5001H29.9998V15.0001H32.4998V17.5001Z" fill="white"/>
<path d="M10.1389 10C10.4704 10 10.7884 9.8683 11.0228 9.63388C11.2572 9.39946 11.3889 9.08152 11.3889 8.75V1.25C11.3889 0.918479 11.2572 0.600537 11.0228 0.366116C10.7884 0.131696 10.4704 0 10.1389 0C9.8074 0 9.48945 0.131696 9.25503 0.366116C9.02061 0.600537 8.88892 0.918479 8.88892 1.25V8.75C8.88892 9.08152 9.02061 9.39946 9.25503 9.63388C9.48945 9.8683 9.8074 10 10.1389 10Z" fill="white"/>
<path d="M30.1389 10C30.4704 10 30.7884 9.8683 31.0228 9.63388C31.2572 9.39946 31.3889 9.08152 31.3889 8.75V1.25C31.3889 0.918479 31.2572 0.600537 31.0228 0.366116C30.7884 0.131696 30.4704 0 30.1389 0C29.8074 0 29.4895 0.131696 29.255 0.366116C29.0206 0.600537 28.8889 0.918479 28.8889 1.25V8.75C28.8889 9.08152 29.0206 9.39946 29.255 9.63388C29.4895 9.8683 29.8074 10 30.1389 10Z" fill="white"/>
</svg>

