<svg width="32" height="32" viewBox="0 0 28 37 " fill="none" 
xmlns="http://www.w3.org/2000/svg">
<path d="M0 19.6073C0 19.2116 0 18.8159 0 18.4202C0.0127633 18.3755 0.0255265 18.3308 0.0319082 18.2861C0.0510531 18.0245 0.070198 17.7692 0.0893429 17.5075C0.159541 16.5245 0.3127 15.5544 0.542439 14.5906C1.4231 10.9525 3.20358 7.81868 5.92854 5.2465C9.43844 1.93393 13.6312 0.191478 18.4684 0.0255304C18.5131 0.0255304 18.5578 0.0127652 18.6025 0C18.8705 0 19.1449 0 19.4129 0C19.464 0.0063826 19.515 0.0191478 19.5661 0.0255304C20.2362 0.0382956 20.8998 0.095739 21.5572 0.185095C22.7441 0.338278 23.8992 0.606347 25.0351 0.989303C29.9043 2.62963 33.8865 6.13368 36.1264 10.7738C37.2432 13.0843 37.8622 15.5225 37.9771 18.0819C38.0473 19.5627 37.958 21.037 37.6835 22.4987C37.3517 24.2475 36.8029 25.9134 35.9988 27.5026C34.4672 30.5344 32.2911 32.9853 29.464 34.8618C27.4027 36.2276 25.1564 37.1467 22.7314 37.6318C21.7039 37.836 20.6637 37.9509 19.6171 37.9892C18.3408 38.0339 17.0772 37.9382 15.8201 37.7275C13.8928 37.402 12.0549 36.7893 10.3191 35.8957C5.73709 33.5214 2.31653 29.411 0.823231 24.4709C0.465859 23.2901 0.229739 22.0902 0.114869 20.8583C0.0829612 20.4881 0.0574347 20.118 0.0319082 19.7541C0.0255265 19.7031 0.00638163 19.6584 0 19.6073ZM20.2106 17.8138C20.2106 17.7245 20.2106 17.6543 20.2106 17.5777C20.2106 14.1694 20.2106 10.7611 20.2106 7.35275C20.2106 7.25702 20.2043 7.15489 20.1979 7.05915C20.1596 6.48472 19.7384 5.87837 18.9152 5.9422C18.4621 5.9805 18.1302 6.1975 17.9388 6.61876C17.8494 6.81023 17.8175 7.01448 17.8175 7.2251C17.8175 7.78039 17.8175 8.34206 17.8175 8.89734C17.8175 12.2291 17.8175 15.5608 17.8239 18.8861C17.8239 19.001 17.8303 19.1159 17.8558 19.2308C17.9515 19.7095 18.2259 20.0286 18.7109 20.1435C18.8386 20.1754 18.979 20.1882 19.113 20.1882C19.7129 20.1945 20.3127 20.1945 20.9126 20.1945C23.6184 20.1882 26.3242 20.1818 29.0237 20.1754C29.4449 20.1754 29.7767 20.0031 30.0575 19.7095C30.1851 19.5754 30.2681 19.4095 30.2936 19.2244C30.4021 18.5287 29.898 17.8777 29.196 17.8202C28.9726 17.8011 28.7493 17.8138 28.5259 17.8138C25.8137 17.8138 23.1079 17.8138 20.3957 17.8138C20.3446 17.8138 20.2872 17.8138 20.2106 17.8138Z" fill="white"/>
</svg>
