<svg width="30" height="38" viewBox="0 0 20 38" fill="none" xmlns="http://www.w3.org/2000/svg">
<path d="M15 0C11.0232 0.00466921 7.21062 1.579 4.39859 4.37763C1.58656 7.17627 0.0047075 10.9707 1.59585e-05 14.9286C-0.00474707 18.1629 1.05681 21.3096 3.02183 23.8857C3.02183 23.8857 3.43092 24.4218 3.49774 24.4991L15 38L26.5077 24.4924C26.5677 24.4204 26.9782 23.8857 26.9782 23.8857L26.9795 23.8816C28.9436 21.3066 30.0046 18.1615 30 14.9286C29.9953 10.9707 28.4134 7.17627 25.6014 4.37763C22.7894 1.579 18.9768 0.00466921 15 0ZM15 20.3571C13.9212 20.3571 12.8666 20.0388 11.9696 19.4423C11.0726 18.8458 10.3735 17.9979 9.96066 17.006C9.54782 16.0141 9.4398 14.9225 9.65027 13.8695C9.86073 12.8165 10.3802 11.8492 11.1431 11.09C11.9059 10.3308 12.8778 9.81377 13.9359 9.60431C14.9939 9.39485 16.0907 9.50235 17.0874 9.91322C18.084 10.3241 18.9359 11.0199 19.5353 11.9126C20.1346 12.8053 20.4545 13.8549 20.4545 14.9286C20.4527 16.3678 19.8775 17.7475 18.8549 18.7652C17.8324 19.7828 16.4461 20.3553 15 20.3571Z" fill="white"/>
</svg>
