<svg width="34" height="30" viewBox="0 0 32 30" fill="none" xmlns="http://www.w3.org/2000/svg">
<path d="M15.6325 21.5625C16.3725 22.3125 17.3283 22.6794 18.5 22.6631C19.6717 22.6481 20.535 22.2188 21.09 21.375L28.9062 9.51562C29.1838 9.07812 29.1449 8.68 28.7897 8.32125C28.4357 7.96125 28.0429 7.92188 27.6112 8.20312L15.91 16.125C15.0775 16.6875 14.6384 17.5469 14.5928 18.7031C14.5459 19.8594 14.8925 20.8125 15.6325 21.5625ZM5.735 30C5.0875 30 4.47083 29.8438 3.885 29.5312C3.29917 29.2188 2.83667 28.7812 2.4975 28.2187C1.69583 26.8125 1.07917 25.3206 0.6475 23.7431C0.215833 22.1644 0 20.5 0 18.75C0 16.1562 0.485934 13.7263 1.4578 11.46C2.42843 9.195 3.75427 7.21062 5.4353 5.50687C7.1151 3.80437 9.08042 2.46063 11.3313 1.47563C13.5821 0.491875 15.9717 0 18.5 0C21.0592 0 23.4562 0.491875 25.691 1.47563C27.927 2.46063 29.8849 3.80437 31.5647 5.50687C33.2457 7.21062 34.5716 9.195 35.5422 11.46C36.5141 13.7263 37 16.1562 37 18.75C37 20.5 36.7922 22.1481 36.3765 23.6944C35.9597 25.2419 35.335 26.75 34.5025 28.2187C34.1633 28.7812 33.7008 29.2188 33.115 29.5312C32.5292 29.8438 31.9125 30 31.265 30H5.735Z" fill="white"/>
</svg>
