<svg width="30" height="33" viewBox="0 0 20 37" fill="none" xmlns="http://www.w3.org/2000/svg">
<path d="M6.45833 9.15385C6.45833 11.5816 7.41093 13.9099 9.10658 15.6266C10.8022 17.3433 13.102 18.3077 15.5 18.3077C17.898 18.3077 20.1978 17.3433 21.8934 15.6266C23.5891 13.9099 24.5417 11.5816 24.5417 9.15385C24.5417 6.7261 23.5891 4.39778 21.8934 2.6811C20.1978 0.96442 17.898 0 15.5 0C13.102 0 10.8022 0.96442 9.10658 2.6811C7.41093 4.39778 6.45833 6.7261 6.45833 9.15385ZM28.4167 34H1.29167C0.949095 34 0.620555 33.8622 0.378321 33.617C0.136086 33.3717 0 33.0391 0 32.6923V28.7692C0 27.0351 0.68043 25.372 1.8916 24.1458C3.10277 22.9196 4.74548 22.2308 6.45833 22.2308H24.5417C26.2545 22.2308 27.8972 22.9196 29.1084 24.1458C30.3196 25.372 31 27.0351 31 28.7692V32.6923C31 33.0391 30.8639 33.3717 30.6217 33.617C30.3794 33.8622 30.0509 34 29.7083 34H28.4167Z" fill="white"/>
</svg>

