<svg width="30" height="37" viewBox="0 0 20 37" fill="none" xmlns="http://www.w3.org/2000/svg">
<path d="M10.7429 0.0111638C10.545 0.0418687 10.3561 0.117638 10.1894 0.233097C10.1894 0.233097 8.46479 1.36552 6.61065 2.59042C4.75652 3.8139 2.6938 5.16257 2.22208 5.43572C2.19299 5.4489 2.16434 5.46313 2.13619 5.4784C0.423845 6.58095 0.0680152 8.38202 0.00666519 9.3921C0.00257519 9.43905 0.00666519 9.47746 0.00666519 9.52725C-0.00833148 9.90568 0.00666519 10.149 0.00666519 10.149V28.733C0.00666519 31.4332 3.02372 32.7321 5.88672 32.7321C6.84106 32.7321 7.79539 32.5713 8.61339 32.2868C9.15872 32.0022 9.55 31.4332 9.55 30.8641V15.9263C9.55 12.6542 10.2317 11.1178 12.2767 9.83739C12.822 9.55286 18.5398 5.4343 18.5398 5.4343C18.8125 5.14977 19.0933 4.57217 19.0933 4.14538V4.01165C19.0933 3.44259 18.8207 3.00726 18.4117 2.72273C18.0027 2.4382 17.4573 2.4382 17.0483 2.72273C16.912 2.865 8.59567 8.70781 6.82333 9.70366C5.051 10.8418 3.39728 11.1164 2.98828 10.5473C2.86149 10.415 2.75106 10.0095 2.73333 9.61404V9.52441C2.7347 9.13745 2.83013 8.40905 3.58542 7.92393C4.35161 7.47864 6.25346 6.21106 8.10214 4.99043C8.88333 4.47401 8.98013 4.41853 9.59226 4.01165C9.67284 4.35919 9.87589 4.66233 10.161 4.86071C10.4461 5.05909 10.7923 5.13818 11.1307 5.08222C11.4692 5.02625 11.775 4.83935 11.9874 4.55872C12.1997 4.27808 12.303 3.9243 12.2767 3.56778V1.43381C12.2782 1.23103 12.2382 1.03026 12.1592 0.844948C12.0803 0.659636 11.9644 0.49407 11.8191 0.359348C11.6739 0.224626 11.5027 0.123862 11.3171 0.0638106C11.1315 0.00375971 10.9357 -0.0141903 10.7429 0.0111638ZM21.6496 4.99043C21.4328 5.02806 21.2279 5.11981 21.0524 5.25789C21.0524 5.25789 14.1894 10.0764 13.0006 10.903C12.9862 10.9178 12.9721 10.933 12.9583 10.9485C11.9713 11.721 11.3864 12.64 11.126 13.4808C10.9801 13.9551 10.9083 14.4508 10.9133 14.949V15.3943C10.9114 15.4383 10.9114 15.4825 10.9133 15.5266V32.7321C10.9133 35.4351 13.8963 37 16.623 37C17.85 37 18.957 36.724 19.775 36.1549C21.411 35.1591 29.3183 28.7316 29.3183 28.7316C29.7273 28.447 30 28.0459 30 27.6191V9.12464C30 8.41332 29.7355 7.98653 29.1902 7.702C28.7812 7.41747 28.1091 7.5512 27.7001 7.83573C25.5187 9.5429 19.6468 14.3628 18.2835 15.2164C16.3748 16.3545 14.5766 16.6391 13.8949 15.9277C13.6223 15.6432 13.64 15.3758 13.64 14.949C13.6482 14.7043 13.6741 14.4937 13.7259 14.3258C13.8022 14.0783 13.9577 13.7739 14.5343 13.3044C14.5616 13.2816 14.548 13.283 14.5766 13.2603C15.5623 12.5731 18.5766 10.4292 20.5426 9.03502C20.6539 9.34682 20.8665 9.60801 21.1434 9.77317C21.4202 9.93832 21.7437 9.997 22.0577 9.93897C22.3717 9.88095 22.6563 9.70991 22.862 9.4556C23.0676 9.20129 23.1813 8.8798 23.1833 8.54705V6.41308C23.1849 6.2103 23.1448 6.00953 23.0659 5.82421C22.987 5.6389 22.871 5.47334 22.7258 5.33861C22.5805 5.20389 22.4094 5.10313 22.2238 5.04308C22.0382 4.98303 21.8424 4.96508 21.6496 4.99043ZM27.2733 15.3943V18.2395L20.4567 23.7509V20.9056L27.2733 15.3943Z" fill="white"/>
</svg>
