<svg width="22" height="22" viewBox="0 0 22 22" fill="none" xmlns="http://www.w3.org/2000/svg">
    <path d="M21.5008 20.2187L16.1694 14.8918C17.505 13.2624 18.2374 11.2234 18.2374 9.11759C18.2374 4.08908 14.1459 0 9.11979 0C7.89103 0 6.69793 0.240403 5.57382 0.716748C4.48752 1.17751 3.51255 1.83418 2.67561 2.67117C1.83866 3.50815 1.17975 4.48313 0.718987 5.56938C0.242634 6.69349 0 7.88663 0 9.11535C0 14.1439 4.09152 18.2329 9.11759 18.2329C11.2256 18.2329 13.2624 17.5006 14.8918 16.165L20.2187 21.4919C20.3901 21.6633 20.6171 21.7568 20.8575 21.7568C21.1001 21.7568 21.3272 21.6633 21.4963 21.4919C21.8525 21.1424 21.8525 20.5703 21.5008 20.2186L21.5008 20.2187ZM16.4324 9.11555C16.4324 13.149 13.1513 16.4279 9.11999 16.4279C5.08652 16.4279 1.8076 13.1469 1.8076 9.11555C1.8076 5.08424 5.08867 1.80317 9.11999 1.80317C13.1513 1.80317 16.4324 5.08424 16.4324 9.11555Z" fill="#D4D4D4"/>
    </svg>
    