<svg width="35" height="35" viewBox="0 0 30 33" fill="none" xmlns="http://www.w3.org/2000/svg">
<path d="M32.1199 8.25503C26.9599 0.30003 16.4249 -2.06497 8.25489 2.88003C0.299892 7.82503 -2.28011 18.575 2.87989 26.53L3.30989 27.175L1.58989 33.625L8.03989 31.905L8.68489 32.335C11.4799 33.84 14.4899 34.7 17.4999 34.7C20.7249 34.7 23.9499 33.84 26.7449 32.12C34.6999 26.96 37.0649 16.425 32.1199 8.25503ZM27.6049 24.81C26.7449 26.1 25.6699 26.96 24.1649 27.175C23.3049 27.175 22.2299 27.605 17.9299 25.885C14.2749 24.165 11.2649 21.37 9.11489 18.145C7.82489 16.64 7.17989 14.705 6.96489 12.77C6.96489 11.05 7.60989 9.54503 8.68489 8.47003C9.11489 8.04003 9.54489 7.82503 9.97489 7.82503H11.0499C11.4799 7.82503 11.9099 7.82503 12.1249 8.68503C12.5549 9.76003 13.6299 12.34 13.6299 12.555C13.8449 12.77 13.8449 13.2 13.6299 13.415C13.8449 13.845 13.6299 14.275 13.4149 14.49C13.1999 14.705 12.9849 15.135 12.7699 15.35C12.3399 15.565 12.1249 15.995 12.3399 16.425C13.1999 17.715 14.2749 19.005 15.3499 20.08C16.6399 21.155 17.9299 22.015 19.4349 22.66C19.8649 22.875 20.2949 22.875 20.5099 22.445C20.7249 22.015 21.7999 20.94 22.2299 20.51C22.6599 20.08 22.8749 20.08 23.3049 20.295L26.7449 22.015C27.1749 22.23 27.6049 22.445 27.8199 22.66C28.0349 23.305 28.0349 24.165 27.6049 24.81Z" fill="white"/>
</svg>
