<svg xmlns="http://www.w3.org/2000/svg" xml:space="preserve" viewBox="0 0 1700.8 1700.8"><path d="M793.9 931.5c-.4-6.3 6.2-23.9 0-25.2-40-8.5-110.9-21.1-141.2-46.4-54.8-45.8-104-135.4-142.9-245.3-36-101.5-10.8-197.8-2.9-228.1 4.2-16.1 34.4 53.1 38.4 39.9 8.6-29 36.3-106.9 52.7-131.2 6.1-9 18.6 40.5 27.4 34 28.1-20.8 48.5-84.6 151.7-105.7 85-17.4 177.1-22.1 215.8 27.4 27.2 34.9 63 84.6 92 146.5 109.6 234.1 44.3 368.9 16.9 399.3-38.9 43.2-108.8 67.5-139.1 94.8-9.4 8.5 2.1 50.6 2.1 50.6l-134.9 109.6c-.2 0-31.8-53.2-36-120.2z" style="fill:#dddfec;stroke:#dde0ec;stroke-width:20;stroke-miterlimit:10"/><path d="M709.7 1153.2s13.2 143.7 78.2 319.1l-23 29.3 86.1-31.4c-42.2-73.2-40.1-207.2-40.1-207.2s34.8-1 56.5 192.5l98.5 64.9-18.9-45c18.9-23 96.8-226.1 96.8-226.1l-327.4-109.1-6.7 13z" style="fill:#464a64;stroke:#464a64;stroke-width:3;stroke-linecap:round;stroke-miterlimit:10"/><path d="M712.1 1185.8c65.2 45.4 251.1 102 311.9 121.5l26.1-55.9-338-103.5v37.9" style="opacity:.3;fill:#192947"/><path d="M705.3 1131.3c-20.2-25.6-32.9-71.5-31.5-79.6 1.3-7.4 26.9-68.4 51.6-88.7 9.6-7.9 58.1-28.3 58.1-28.3l42.6 130.1L974.8 937s54.6-10.1 78.6 8.9c14 11.1 47.3 55.7 47.3 134.3 0 11-30.1 32.2-30.1 32.2s13.4-75.8 12.3-71.7c-1 4.1-17.4 264.7-27.3 256.1-48.6-42.6-361-124.5-359-135.8 3-16.7 25.6-146.6 25.6-146.6s-13.1 121.8-16.9 116.9z" style="fill:#eeb55f"/><path fill="#c58d5d" d="M722.3 1014.4s-19.4 101.3-19.8 113.3c-.1 3.2-9.3-14.8-13.2-23.1-.9-2.3 33-90.2 33-90.2zm355.7 92.4s5.9-71.7 5-66.2 5.7 57 5.7 57l-10.7 9.2zM696.7 1161l15.8 24.8v-16.4zm327.7 146.3 9.6-24.3 21.7 13.7z"/><path fill="none" stroke="#474a64" stroke-linecap="round" stroke-miterlimit="10" stroke-width="10" d="M828.3 777.3c28.2-20.6 61.1-34.5 95.4-40.5M863 785.7c8-5.7 16.7-10.2 26-13.4"/><path d="M635.5 623.7c-7.2-16.8-14.4-33.5-21.6-50.3" style="fill:none;stroke:#474a64;stroke-width:7;stroke-linecap:round;stroke-miterlimit:10"/><path d="M1051.7 458.8c9.8 14 28.5 23 47.1 22.8 18.6-.2 36.3-9.8 44.7-24 16.1-27.5-38-109.2-46.8-128.5-3-6.6-15.6-28.9-18.1-22.2-7.8 20.8-44.5 126.8-26.9 151.9z" style="fill:#a2bee5"/><circle cx="818.5" cy="508.6" r="179.4" style="fill:#474a64;stroke:#fff;stroke-width:20;stroke-miterlimit:10"/><circle cx="767.4" cy="533.6" r="80.2" style="fill:#eaedf8"/><circle cx="785.9" cy="496.2" r="14.5" fill="#fff"/><circle cx="811.1" cy="513.9" r="7.3" fill="#fff"/></svg>