<svg xmlns="http://www.w3.org/2000/svg" xml:space="preserve" viewBox="0 0 1700.8 1700.8"><path d="M793.9 931.5c-.4-6.3 6.2-23.9 0-25.2-40-8.5-110.9-21.1-141.2-46.4-54.8-45.8-104-135.4-142.9-245.3-36-101.5-10.8-197.8-2.9-228.1 4.2-16.1 34.4 53.1 38.4 39.9 8.6-29 36.3-106.9 52.7-131.2 6.1-9 18.6 40.5 27.4 34 28.1-20.8 48.5-84.6 151.7-105.7 85-17.4 177.1-22.1 215.8 27.4 27.2 34.9 63 84.6 92 146.5 109.6 234.1 44.3 368.9 16.9 399.3-38.9 43.2-108.8 67.5-139.1 94.8-9.4 8.5 2.1 50.6 2.1 50.6l-134.9 109.6c-.2 0-31.8-53.2-36-120.2z" style="fill:#dddfec;stroke:#dde0ec;stroke-width:20;stroke-miterlimit:10"/><path d="M709.7 1153.2s13.2 143.7 78.2 319.1l-23 29.3 86.1-31.4c-42.2-73.2-40.1-207.2-40.1-207.2s34.8-1 56.5 192.5l98.5 64.9-18.9-45c18.9-23 96.8-226.1 96.8-226.1l-327.4-109.1-6.7 13z" style="fill:#464a64;stroke:#464a64;stroke-width:3;stroke-linecap:round;stroke-miterlimit:10"/><path d="M712.1 1185.8c65.2 45.4 251.1 102 311.9 121.5l26.1-55.9-338-103.5v37.9" style="opacity:.3;fill:#192947"/><path d="M705.3 1131.3c-20.2-25.6-32.9-71.5-31.5-79.6 1.3-7.4 26.9-68.4 51.6-88.7 9.6-7.9 58.1-28.3 58.1-28.3l42.6 130.1L974.8 937s54.6-10.1 78.6 8.9c14 11.1 47.3 55.7 47.3 134.3 0 11-30.1 32.2-30.1 32.2s13.4-75.8 12.3-71.7c-1 4.1-17.4 264.7-27.3 256.1-48.6-42.6-361-124.5-359-135.8 3-16.7 25.6-146.6 25.6-146.6s-13.1 121.8-16.9 116.9z" style="fill:#eeb55f"/><path fill="#c58d5d" d="M722.3 1014.4s-19.4 101.3-19.8 113.3c-.1 3.2-9.3-14.8-13.2-23.1-.9-2.3 33-90.2 33-90.2zm355.7 92.4s5.9-71.7 5-66.2 5.7 57 5.7 57l-10.7 9.2zM696.7 1161l15.8 24.8v-16.4zm327.7 146.3 9.6-24.3 21.7 13.7z"/><circle cx="818.5" cy="508.6" r="179.4" style="fill:#474a64;stroke:#fff;stroke-width:20;stroke-miterlimit:10"/><circle cx="767.4" cy="533.6" r="80.2" style="fill:#eaedf8"/><circle cx="785.9" cy="496.2" r="14.5" fill="#fff"/><circle cx="811.1" cy="513.9" r="7.3" fill="#fff"/><path fill="none" stroke="#464a64" stroke-linecap="round" stroke-miterlimit="10" stroke-width="7" d="M600.9 529.7c3.7 15.6 7.4 31.2 11 46.8m163.9 178.8c-18.1-17.9-39.7-32.3-63.2-42.2-5.4-2.3-11.2-4.4-17.1-3.7-6.6.8-12.4 5.1-16.5 10.3s-6.7 11.5-9.2 17.7m-13-10.9c6.4 7.6 12.8 15.3 19.1 22.9m50.4 3.8 18 10.8m259.4-372c14.7 22.9 23.8 49.3 26.5 76.3"/><path d="M1133.7 1081.9c-6.8-2.1-17.4 2.4-20.9 8.6-3.5 6.2-5.4 13.6-10.5 18.6-2.1 2.1-4.7 3.7-6.8 5.9-4.7 5.1-5.7 12.8-4.2 19.5 1.5 6.8 5.8 16.5 9.4 22.4 6.3-.5 17.7-1.8 23.7-3.6 1.7-.5 3.4-1.1 4.7-2.4.9-1 1.5-2.2 2-3.4 3.8-8.8 7.2-17.8 10.2-26.9 1.8-5.5 3.5-11.3 2.9-17.1-.7-6.7-6.6-15.9-10.5-21.6z" style="fill:#e3e4ed"/><path d="M1171.6 977.4c-23.9 58.9-55 138.5-77.5 197.9-2.8 7.5-11.5 10.7-18.6 7-10.8-5.8-21.9-12.3-31.4-19.7-4.4-3.5-6.2-9.4-4.3-14.7 20-57.9 50.9-134.6 76.4-190.3 4.6-10 16.3-14 26-9 7.8 4 15.4 7.9 23.2 12 6.1 3.2 8.8 10.5 6.2 16.8z" style="fill:#ffe2ab"/><path d="M1167.8 985.5c-1.7 5.6-4.3 10-5.7 15.7-.2.9-.7 1.6-1.5 2.1-15.7-13-30.7-26.8-45.1-41.3 18.3 6.5 35.6 13.4 52.3 23.5z" style="fill:#e3c484"/><path d="M1155.5 613.1c-3.8-4.1-9.3-6.2-14.5-8.1-10.7-3.9-29.4-11.6-40.1-15.3-9.5-3.2-31.1 6.6-37.7 18.4-49.5 88.1-71.5 170.3-83.7 281.7 31.2-21.8 60.8-46.5 86.8-74.3 47.1-50.3 49.5-128.1 89-184.5.3-5.8.2-12.3.2-17.9z" style="opacity:.54;fill:#b7bbca"/><path d="M1499.5 790.7c-124.1-74.8-255.5-136.9-391.7-186.5-13.5-4.9-28.6.7-35.5 13.3-43.4 78.8-68.9 167.6-75.5 257.4-.8 10.9 4.5 21.3 13.8 27 106.7 65.7 220.6 119.7 339 160.7 12.5 4.3 26.4-.4 33.8-11.4 48-71.7 91.9-144.9 127.7-223.3 6.1-13.4 1.2-29.5-11.6-37.2z" style="fill:#ffe3ac"/><g fill="none" stroke="#ef7a57" stroke-linecap="round" stroke-miterlimit="10" stroke-width="40"><path d="M1196.6 745.3c21 58.6 42.1 117.3 63.1 175.9"/><path d="M1140.2 865c58.6-21 117.3-42.1 175.9-63.1"/></g></svg>