<svg xmlns="http://www.w3.org/2000/svg" viewBox="0 0 1195.96 2142.23"><path d="M490.15 1152.26c-.4-6.3 6.17-23.94 0-25.24-40.04-8.47-110.92-21.12-141.19-46.4-54.79-45.75-103.99-135.39-142.93-245.25-35.99-101.53-10.83-197.78-2.91-228.14 4.19-16.08 34.43 53.14 38.37 39.88 8.62-29 36.27-106.94 52.68-131.24 6.11-9.05 18.62 40.5 27.39 34.01 28.09-20.77 48.47-84.59 151.66-105.66 84.97-17.35 177.08-22.11 215.76 27.39 27.24 34.85 63 84.61 91.96 146.49 109.58 234.13 44.25 368.94 16.86 399.29-38.95 43.16-108.82 67.51-139.08 94.83-9.39 8.48 2.11 50.57 2.11 50.57l-134.87 109.58s-31.61-53.2-35.82-120.11Z" style="fill:#dddfec;stroke:#dde0ec;stroke-miterlimit:10;stroke-width:20px"/><path d="M449.46 1005.6s-25.28-40.62-16.25-36.4c25.08 11.74 50.55 54.14 143.77 6.97 20.38-10.31 74.5-46.44 74.5-46.44m-8.81-18.63 18.9 36.23M311.12 724.78c-6.26 54.14 15.27 104.8 15.27 104.8m210.38 214.28c5.47-1.56 35.19-3.91 35.19-3.91" style="fill:none;stroke:#464a64;stroke-linecap:round;stroke-miterlimit:10;stroke-width:10px"/><path d="M405.93 1373.97s13.2 143.71 78.18 319.14l-23.02 29.3 86.11-31.39c-42.16-73.24-40.07-207.18-40.07-207.18s34.8-1.05 56.5 192.53l98.5 64.87-18.9-44.99c18.9-23.02 96.77-226.15 96.77-226.15l-327.37-109.06-6.72 12.93Z" style="fill:#464a64;stroke:#464a64;stroke-linecap:round;stroke-miterlimit:10;stroke-width:3px"/><path d="M408.32 1406.47c65.23 45.36 251.09 102.03 311.92 121.54l26.07-55.87-337.98-103.55v37.88" style="fill:#192947;opacity:.3"/><path d="M401.5 1351.99c-20.23-25.56-32.87-71.47-31.47-79.62 1.27-7.42 26.89-68.38 51.61-88.72 9.61-7.91 58.13-28.27 58.13-28.27l42.65 130.08 148.66-127.72s54.57-10.15 78.61 8.86c14.05 11.1 47.33 55.74 47.31 134.29 0 11.01-30.09 32.18-30.09 32.18s13.36-75.78 12.33-71.67-17.36 264.75-27.28 256.07c-48.64-42.56-361.05-124.47-358.99-135.78 3.03-16.69 25.58-146.61 25.58-146.61S405.37 1356.89 401.5 1352Z" style="fill:#eeb55f"/><path d="M418.56 1235.07s-19.36 101.28-19.77 113.3c-.11 3.23-9.34-14.8-13.16-23.09-1.03-2.23 32.93-90.2 32.93-90.2Zm355.66 92.49s5.86-71.73 5.03-66.16 5.66 57.01 5.66 57.01l-10.69 9.15Zm-381.25 54.12 15.75 24.79v-16.3l-15.75-8.49zm327.66 146.33 9.6-24.28 21.73 13.74-31.33 10.54z" style="fill:#c58d5d"/><circle cx="514.71" cy="729.29" r="179.41" style="fill:#474a64;stroke:#fff;stroke-miterlimit:10;stroke-width:20px"/><circle cx="558.51" cy="669.95" r="80.16" style="fill:#eaedf8"/><circle cx="576.97" cy="632.6" r="14.5" style="fill:#fff"/><circle cx="602.23" cy="650.32" r="7.25" style="fill:#fff"/></svg>