<svg width="26" height="27" viewBox="0 0 26 27" fill="none" xmlns="http://www.w3.org/2000/svg">
<rect y="0.5" width="26" height="26" rx="5" fill="white"/>
<path d="M8.52742 6.87405C8.79716 6.87405 9.00454 6.66653 9.00454 6.39692V5.65006H15.6018V4.69567H9.00454V3.9488C9.00454 3.67906 8.79702 3.47168 8.52742 3.47168C8.25767 3.47168 8.05029 3.6792 8.05029 3.9488V6.39678C8.05015 6.64583 8.25767 6.87405 8.52742 6.87405Z" fill="#232A3E"/>
<path d="M20.2075 4.69567H17.3446V3.9488C17.3446 3.67906 17.1371 3.47168 16.8675 3.47168C16.5977 3.47168 16.3904 3.6792 16.3904 3.9488V6.39678C16.3904 6.66652 16.5979 6.8739 16.8675 6.8739C17.1372 6.8739 17.3446 6.66638 17.3446 6.39678V5.65006H20.2076C20.4981 5.65006 20.747 5.89897 20.747 6.18943V8.07736H4.66872V6.18943C4.66872 5.89899 4.91762 5.65006 5.20808 5.65006H7.26199V4.69567H5.20808C4.39898 4.69567 3.71436 5.35962 3.71436 6.18939V21.7075C3.71436 22.5166 4.37831 23.2012 5.20808 23.2012H20.2076C21.0166 23.2012 21.7013 22.5373 21.7013 21.7075V6.18939C21.6806 5.35962 21.0166 4.69567 20.2076 4.69567H20.2075ZM20.7261 21.6868C20.7261 21.9772 20.4772 22.2261 20.1868 22.2261H5.1873C4.89686 22.2261 4.64793 21.9772 4.64793 21.6868L4.64779 9.03161H20.7261L20.7261 21.6868Z" fill="#232A3E"/>
<path d="M10.8922 13.0352C11.6806 13.0352 12.3029 12.4128 12.3029 11.6245C12.3029 10.8361 11.6805 10.2139 10.8922 10.2139C10.1247 10.2139 9.48157 10.8363 9.48157 11.6245C9.48142 12.3921 10.1245 13.0352 10.8922 13.0352ZM10.8922 11.0021C11.2242 11.0021 11.5147 11.2719 11.5147 11.6245C11.5147 11.9772 11.2242 12.247 10.8922 12.247C10.5602 12.247 10.2698 11.9772 10.2698 11.6245C10.2698 11.2717 10.5602 11.0021 10.8922 11.0021Z" fill="#232A3E"/>
<path d="M7.28237 13.0352C8.04994 13.0352 8.69303 12.4128 8.69303 11.6245C8.69303 10.8361 8.07061 10.2139 7.28237 10.2139C6.49398 10.2139 5.8717 10.8363 5.8717 11.6245C5.8924 12.3921 6.5148 13.0352 7.28237 13.0352ZM7.28237 11.0021C7.61434 11.0021 7.90479 11.2719 7.90479 11.6245C7.90479 11.9772 7.63505 12.247 7.28237 12.247C6.9504 12.247 6.65995 11.9772 6.65995 11.6245C6.65995 11.2717 6.95039 11.0021 7.28237 11.0021Z" fill="#232A3E"/>
<path d="M14.5021 13.0352C15.2697 13.0352 15.9128 12.4128 15.9128 11.6245C15.9128 10.8361 15.2903 10.2139 14.5021 10.2139C13.7137 10.2139 13.0914 10.8363 13.0914 11.6245C13.0914 12.3921 13.7139 13.0352 14.5021 13.0352ZM14.5021 11.0021C14.8341 11.0021 15.1245 11.2719 15.1245 11.6245C15.1245 11.9772 14.8548 12.247 14.5021 12.247C14.1701 12.247 13.8797 11.9772 13.8797 11.6245C13.8798 11.2717 14.1703 11.0021 14.5021 11.0021Z" fill="#232A3E"/>
<path d="M18.1122 13.0352C18.8798 13.0352 19.5229 12.4128 19.5229 11.6245C19.5229 10.8361 18.9004 10.2139 18.1122 10.2139C17.3446 10.2139 16.7015 10.8363 16.7015 11.6245C16.7014 12.3921 17.3238 13.0352 18.1122 13.0352ZM18.1122 11.0021C18.4442 11.0021 18.7346 11.2719 18.7346 11.6245C18.7346 11.9772 18.4649 12.247 18.1122 12.247C17.7802 12.247 17.4898 11.9772 17.4898 11.6245C17.4898 11.2717 17.7595 11.0021 18.1122 11.0021Z" fill="#232A3E"/>
<path d="M7.28237 17.0391C8.04994 17.0391 8.69303 16.4167 8.69303 15.6284C8.69303 14.8609 8.07061 14.2178 7.28237 14.2178C6.49398 14.2178 5.8717 14.8402 5.8717 15.6284C5.8924 16.396 6.5148 17.0391 7.28237 17.0391ZM7.28237 15.006C7.61434 15.006 7.90479 15.2758 7.90479 15.6284C7.90479 15.9604 7.63505 16.2509 7.28237 16.2509C6.9504 16.2509 6.65995 15.9811 6.65995 15.6284C6.68079 15.2965 6.95039 15.006 7.28237 15.006Z" fill="#232A3E"/>
<path d="M10.8922 17.0391C11.6806 17.0391 12.3029 16.4167 12.3029 15.6284C12.3029 14.8609 11.6805 14.2178 10.8922 14.2178C10.1247 14.2178 9.48157 14.8402 9.48157 15.6284C9.48142 16.396 10.1245 17.0391 10.8922 17.0391ZM10.8922 15.006C11.2242 15.006 11.5147 15.2758 11.5147 15.6284C11.5147 15.9604 11.2242 16.2509 10.8922 16.2509C10.5602 16.2509 10.2698 15.9811 10.2698 15.6284C10.2698 15.2965 10.5602 15.006 10.8922 15.006Z" fill="#232A3E"/>
<path d="M14.5021 17.0391C15.2697 17.0391 15.9128 16.4167 15.9128 15.6284C15.9128 14.8609 15.2903 14.2178 14.5021 14.2178C13.7137 14.2178 13.0914 14.8402 13.0914 15.6284C13.0914 16.396 13.7139 17.0391 14.5021 17.0391ZM14.5021 15.006C14.8341 15.006 15.1245 15.2758 15.1245 15.6284C15.1245 15.9604 14.8548 16.2509 14.5021 16.2509C14.1701 16.2509 13.8797 15.9811 13.8797 15.6284C13.8798 15.2965 14.1703 15.006 14.5021 15.006Z" fill="#232A3E"/>
<path d="M18.1122 17.0391C18.8798 17.0391 19.5229 16.4167 19.5229 15.6284C19.5229 14.8609 18.9004 14.2178 18.1122 14.2178C17.3446 14.2178 16.7015 14.8402 16.7015 15.6284C16.7014 16.396 17.3238 17.0391 18.1122 17.0391ZM18.1122 15.006C18.4442 15.006 18.7346 15.2758 18.7346 15.6284C18.7346 15.9604 18.4649 16.2509 18.1122 16.2509C17.7802 16.2509 17.4898 15.9811 17.4898 15.6284C17.4898 15.2965 17.7595 15.006 18.1122 15.006Z" fill="#232A3E"/>
<path d="M7.28237 21.044C8.04994 21.044 8.69303 20.4216 8.69303 19.6333C8.69303 18.8449 8.07061 18.2227 7.28237 18.2227C6.49398 18.2227 5.8717 18.8451 5.8717 19.6333C5.8717 20.4216 6.5148 21.044 7.28237 21.044ZM7.28237 19.0109C7.61434 19.0109 7.90479 19.2806 7.90479 19.6333C7.90479 19.986 7.63505 20.2557 7.28237 20.2557C6.9504 20.2557 6.65995 19.986 6.65995 19.6333C6.65995 19.2805 6.95039 19.0109 7.28237 19.0109Z" fill="#232A3E"/>
<path d="M10.8922 21.044C11.6806 21.044 12.3029 20.4216 12.3029 19.6333C12.3029 18.8449 11.6805 18.2227 10.8922 18.2227C10.1247 18.2227 9.48157 18.8451 9.48157 19.6333C9.48142 20.4216 10.1245 21.044 10.8922 21.044ZM10.8922 19.0109C11.2242 19.0109 11.5147 19.2806 11.5147 19.6333C11.5147 19.986 11.2242 20.2557 10.8922 20.2557C10.5602 20.2557 10.2698 19.986 10.2698 19.6333C10.2698 19.2805 10.5602 19.0109 10.8922 19.0109Z" fill="#232A3E"/>
<path d="M14.5021 21.044C15.2697 21.044 15.9128 20.4216 15.9128 19.6333C15.9128 18.8449 15.2903 18.2227 14.5021 18.2227C13.7137 18.2227 13.0914 18.8451 13.0914 19.6333C13.0914 20.4216 13.7139 21.044 14.5021 21.044ZM14.5021 19.0109C14.8341 19.0109 15.1245 19.2806 15.1245 19.6333C15.1245 19.986 14.8548 20.2557 14.5021 20.2557C14.1701 20.2557 13.8797 19.986 13.8797 19.6333C13.8798 19.2805 14.1703 19.0109 14.5021 19.0109Z" fill="#232A3E"/>
<path d="M18.1122 21.044C18.8798 21.044 19.5229 20.4216 19.5229 19.6333C19.5229 18.8449 18.9004 18.2227 18.1122 18.2227C17.3446 18.2227 16.7015 18.8451 16.7015 19.6333C16.7014 20.4216 17.3238 21.044 18.1122 21.044ZM18.1122 19.0109C18.4442 19.0109 18.7346 19.2806 18.7346 19.6333C18.7346 19.986 18.4649 20.2557 18.1122 20.2557C17.7802 20.2557 17.4898 19.986 17.4898 19.6333C17.4898 19.2805 17.7595 19.0109 18.1122 19.0109Z" fill="#232A3E"/>
</svg>
