<svg width="26" height="26" viewBox="0 0 26 26" fill="none" xmlns="http://www.w3.org/2000/svg">
<rect x="1" y="1" width="24" height="24" rx="4" fill="white" stroke="white" stroke-width="2"/>
<path d="M18.7632 11.7474L13.6203 9.04746C13.4996 8.98418 13.3576 8.98418 13.2369 9.04746L8.09397 11.7474C8.02283 11.7848 7.963 11.8422 7.92113 11.9134C7.87927 11.9845 7.8571 12.0664 7.8571 12.1499V14.4829C7.6072 14.5753 7.39055 14.7467 7.23709 14.9736C7.08363 15.2005 7.00075 15.4717 7 15.75V16.65C7 16.7693 7.04509 16.8838 7.12549 16.9681C7.20588 17.0525 7.3149 17.1 7.42855 17.1H9.14285C9.2565 17.1 9.36552 17.0525 9.44591 16.9681C9.52631 16.8838 9.5714 16.7693 9.5714 16.65V15.75C9.57065 15.4717 9.48778 15.2005 9.33431 14.9736C9.18084 14.7467 8.96419 14.5753 8.7143 14.4829V12.8781L10.4286 13.778V17.55C10.4286 17.6694 10.4737 17.7838 10.5541 17.8682C10.6345 17.9527 10.7435 18 10.8572 18H16.0001C16.1137 18 16.2228 17.9527 16.3031 17.8682C16.3834 17.7838 16.4286 17.6694 16.4286 17.55V13.7783L18.7632 12.5527C18.8585 12.5026 18.9328 12.4169 18.9712 12.3125C19.0096 12.2081 19.0096 12.0922 18.9712 11.9878C18.9328 11.8833 18.8585 11.7977 18.7632 11.7476L18.7632 11.7474ZM8.71453 16.1998H7.85733V15.7498C7.85733 15.589 7.93902 15.4405 8.07161 15.3601C8.2043 15.2797 8.36767 15.2797 8.50027 15.3601C8.63286 15.4405 8.71455 15.589 8.71455 15.7498L8.71453 16.1998ZM15.5717 17.0997L11.2859 17.0998V14.228L13.237 15.2524C13.3577 15.3157 13.4997 15.3157 13.6204 15.2524L15.5715 14.228L15.5717 17.0997ZM13.4289 14.3465L9.24414 12.1498L13.4289 9.95301L17.6136 12.1498L13.4289 14.3465Z" fill="#232A3E"/>
</svg>
