<svg width="26" height="26" viewBox="0 0 26 26" fill="none" xmlns="http://www.w3.org/2000/svg">
<rect x="1" y="1" width="24" height="24" rx="4" stroke="white" stroke-width="2"/>
<path d="M10.736 14.9704C9.89554 14.3121 9.36189 13.3185 9.26549 12.2328C9.16923 11.1471 9.51926 10.0696 10.2298 9.26414C10.9403 8.45885 11.9458 8 12.9999 8C14.0541 8 15.0595 8.45885 15.7701 9.26414C16.4806 10.0696 16.8306 11.1472 16.7344 12.2328C16.638 13.3186 16.1043 14.3121 15.2639 14.9704C16.886 15.7213 18 17.2437 18 19H16.8879C16.8879 17.1694 15.1439 15.6902 13 15.6902C10.8561 15.6902 9.11206 17.1796 9.11206 19H8C8 17.2438 9.11384 15.7214 10.736 14.9704ZM15.5 11.8904C15.5 11.2046 15.2366 10.5469 14.7677 10.0619C14.2989 9.57709 13.663 9.30466 12.9999 9.30466C12.3368 9.30466 11.7009 9.57709 11.2322 10.0619C10.7633 10.5469 10.4999 11.2046 10.4999 11.8904C10.4999 12.576 10.7633 13.2337 11.2322 13.7187C11.7009 14.2036 12.3368 14.476 12.9999 14.476C13.6629 14.4755 14.2983 14.2029 14.7671 13.7181C15.2359 13.2332 15.4994 12.5759 15.5 11.8904Z" fill="white"/>
</svg>
