<svg width="12" height="11" viewBox="0 0 12 11" fill="none" xmlns="http://www.w3.org/2000/svg">
<path d="M1.43544e-06 5.48926C1.41591e-06 5.71261 0.0816407 5.92671 0.226702 6.08471C0.371764 6.24256 0.568641 6.33125 0.773893 6.33125L9.26055 6.33126L6.11492 9.52268C5.9565 9.6726 5.86083 9.88626 5.85003 10.1146C5.8391 10.3429 5.91413 10.5661 6.05757 10.7331C6.20101 10.9 6.40073 10.9964 6.61071 10.9999C6.82067 11.0036 7.0231 10.914 7.17127 10.752L11.754 6.10612C11.9109 5.94694 12 5.72389 12 5.49041C12 5.25694 11.9109 5.03387 11.754 4.8747L7.17127 0.226545C6.96913 0.0212627 6.6817 -0.0511298 6.41722 0.0366797C6.15274 0.124635 5.95142 0.359288 5.88906 0.652537C5.82672 0.945632 5.91281 1.25268 6.11496 1.45812L9.26059 4.64736L0.773925 4.64736C0.568679 4.64736 0.371786 4.73605 0.226732 4.8939C0.0816703 5.0519 3.00652e-05 5.266 3.00457e-05 5.48935L1.43544e-06 5.48926Z" fill="white"/>
</svg>
