<svg width="18" height="20" viewBox="0 0 18 20" fill="none" xmlns="http://www.w3.org/2000/svg">
<path d="M7.78986 11.8073C7.78986 11.0485 7.78986 10.343 7.78986 9.63751C7.78986 6.79532 7.78869 3.95313 7.79064 1.11128C7.79103 0.609393 8.10668 0.211222 8.61149 0.0594714C9.10734 -0.0898429 9.6682 0.0445052 9.95699 0.434323C10.0936 0.618443 10.1995 0.862079 10.2002 1.07926C10.2143 4.0116 10.2076 6.94394 10.2061 9.87628C10.2057 10.5042 10.2061 11.132 10.2061 11.8121C10.7027 11.4912 11.1499 11.2027 11.5964 10.9138C12.6714 10.2181 13.7429 9.51778 14.8221 8.8276C15.562 8.35425 16.5078 8.63408 16.746 9.38622C16.8877 9.83312 16.7086 10.2818 16.2579 10.5745C14.8303 11.5017 13.4 12.4258 11.9708 13.3516C11.2496 13.819 10.5295 14.2882 9.80831 14.7556C9.26497 15.1075 8.74226 15.1103 8.20204 14.7605C6.05126 13.3683 3.90086 11.9754 1.75203 10.5807C1.17988 10.2094 1.04132 9.56442 1.41691 9.06915C1.80223 8.56099 2.54991 8.43082 3.12789 8.79732C4.1628 9.45374 5.18409 10.1269 6.212 10.792C6.7207 11.1202 7.23096 11.4474 7.78986 11.8073Z" fill="#424967"/>
<path d="M9.00133 17.8345C11.5989 17.8345 14.1961 17.8327 16.7937 17.8359C17.3978 17.8366 17.8905 18.2128 17.9832 18.7255C18.0801 19.2629 17.7512 19.7721 17.1861 19.937C17.0452 19.9781 16.8899 19.9973 16.7412 19.9976C11.5799 20.0004 6.41852 20.0004 1.25758 19.9993C0.532477 19.9993 -0.00502432 19.527 3.54253e-05 18.9033C0.00509518 18.2904 0.537536 17.8355 1.25991 17.8352C3.84 17.8334 6.42086 17.8345 9.00133 17.8345Z" fill="#424967"/>
</svg>
